<?xml version="1.0" standalone='no'?><!-- IBoard SVG File --><svg xmlns="http://www.w3.org/2000/svg" xmlns:xlink="http://www.w3.org/1999/xlink" viewBox="464.27 236.07 199.07 118.16" height="111.16" width="206.07" version="1.1"><!-- SVG File --><polygon points="531.214966,302.749847 516.926819,277.744385 517.269836,277.156311 517.950623,277.159363 532.238770,302.164825 531.895752,302.752899 " style="fill:rgb(0,0,0);fill-opacity:1.000000"/><polygon points="576.567688,278.011292 562.056641,302.887817 561.375854,302.884766 561.038086,302.293640 575.549133,277.417114 576.229919,277.420166 " style="fill:rgb(0,0,0);fill-opacity:1.000000"/><polygon points="516.932068,276.565186 531.786072,251.100845 532.123840,251.691971 532.461609,252.283096 517.950623,277.159363 517.269836,277.156311 " style="fill:rgb(0,0,0);fill-opacity:1.000000"/><polygon points="561.946899,251.235596 576.572937,276.832092 576.229919,277.420166 575.549133,277.417114 561.260864,252.411743 561.603882,251.823669 " style="fill:rgb(0,0,0);fill-opacity:1.000000"/><polygon points="561.032837,303.472839 532.233521,303.344025 531.895752,302.752899 532.238770,302.164825 561.038086,302.293640 561.375854,302.884766 " style="fill:rgb(0,0,0);fill-opacity:1.000000"/><polygon points="606.052979,276.963806 621.016724,303.151245 620.335938,303.148193 619.655151,303.145142 605.366943,278.139954 605.709961,277.551880 " style="fill:rgb(0,0,0);fill-opacity:1.000000"/><polygon points="605.819580,329.203918 575.658752,329.069122 576.001770,328.481049 576.344788,327.892975 605.144043,328.021667 605.481812,328.612793 " style="fill:rgb(0,0,0);fill-opacity:1.000000"/><polygon points="517.378906,328.808441 487.218079,328.673218 487.561127,328.085144 487.904175,327.497070 516.703369,327.626190 517.041138,328.217316 " style="fill:rgb(0,0,0);fill-opacity:1.000000"/><polygon points="472.254761,302.485565 487.452332,276.433136 487.790070,277.024261 488.127838,277.615387 473.616394,302.491669 472.935577,302.488617 " style="fill:rgb(0,0,0);fill-opacity:1.000000"/><polygon points="487.452332,276.433136 516.932068,276.565186 517.269836,277.156311 516.926819,277.744385 488.127838,277.615387 487.790070,277.024261 " style="fill:rgb(0,0,0);fill-opacity:1.000000"/><polygon points="489.819305,279.981415 515.214172,280.095154 515.211548,280.684753 515.208923,281.274353 489.813995,281.160614 489.816650,280.571014 " style="fill:rgb(0,0,0);fill-opacity:1.000000"/><polygon points="487.218079,328.673218 472.254761,302.485565 472.935577,302.488617 473.616394,302.491669 487.904175,327.497070 487.561127,328.085144 " style="fill:rgb(0,0,0);fill-opacity:1.000000"/><polygon points="489.107483,324.849213 476.508514,302.799438 477.020447,302.506927 477.532379,302.214417 490.131348,324.264191 489.619415,324.556702 " style="fill:rgb(0,0,0);fill-opacity:1.000000"/><polygon points="532.233521,303.344025 517.378906,328.808441 517.041138,328.217316 516.703369,327.626190 531.214966,302.749847 531.895752,302.752899 " style="fill:rgb(0,0,0);fill-opacity:1.000000"/><polygon points="528.320129,303.031677 515.523865,324.967651 515.014587,324.670563 514.505310,324.373474 527.301575,302.437500 527.810852,302.734589 " style="fill:rgb(0,0,0);fill-opacity:1.000000"/><polygon points="531.786072,251.100845 561.946899,251.235596 561.603882,251.823669 561.260864,252.411743 532.461609,252.283096 532.123840,251.691971 " style="fill:rgb(0,0,0);fill-opacity:1.000000"/><polygon points="534.153076,254.649094 559.548279,254.762543 559.545654,255.352142 559.543030,255.941742 534.147827,255.828293 534.150452,255.238693 " style="fill:rgb(0,0,0);fill-opacity:1.000000"/><polygon points="576.572937,276.832092 606.052979,276.963806 605.709961,277.551880 605.366943,278.139954 576.567688,278.011292 576.229919,277.420166 " style="fill:rgb(0,0,0);fill-opacity:1.000000"/><polygon points="578.259155,280.377289 603.654358,280.490753 603.651733,281.080353 603.649109,281.669952 578.253906,281.556488 578.256531,280.966888 " style="fill:rgb(0,0,0);fill-opacity:1.000000"/><polygon points="575.658752,329.069122 561.032837,303.472839 561.375854,302.884766 562.056641,302.887817 576.344788,327.892975 576.001770,328.481049 " style="fill:rgb(0,0,0);fill-opacity:1.000000"/><polygon points="577.548096,325.245117 564.948792,303.195526 565.460693,302.903015 565.972595,302.610504 578.571899,324.660095 578.059998,324.952606 " style="fill:rgb(0,0,0);fill-opacity:1.000000"/><polygon points="621.016724,303.151245 605.819580,329.203918 605.481812,328.612793 605.144043,328.021667 619.655151,303.145142 620.335938,303.148193 " style="fill:rgb(0,0,0);fill-opacity:1.000000"/><polygon points="616.760376,303.427032 603.964478,325.363159 603.455200,325.066071 602.945923,324.768982 615.741821,302.832855 616.251099,303.129944 " style="fill:rgb(0,0,0);fill-opacity:1.000000"/><text xml:space="preserve" x="601.749878" y="273.063293" textLength="7.230000" lengthAdjust="spacingAndGlyphs"><tspan font-family="Arial" font-weight="normal" baseline-shift="0" font-size="13" fill="#000000">1</tspan></text><text xml:space="preserve" x="623.005249" y="306.988281" textLength="7.230000" lengthAdjust="spacingAndGlyphs"><tspan font-family="Arial" font-weight="normal" baseline-shift="0" font-size="13" fill="#000000">2</tspan></text><text xml:space="preserve" x="601.749878" y="341.232086" textLength="7.230000" lengthAdjust="spacingAndGlyphs"><tspan font-family="Arial" font-weight="normal" baseline-shift="0" font-size="13" fill="#000000">3</tspan></text><text xml:space="preserve" x="571.624878" y="341.232086" textLength="7.230000" lengthAdjust="spacingAndGlyphs"><tspan font-family="Arial" font-weight="normal" baseline-shift="0" font-size="13" fill="#000000">4</tspan></text><text xml:space="preserve" x="555.499878" y="315.738281" textLength="7.230000" lengthAdjust="spacingAndGlyphs"><tspan font-family="Arial" font-weight="normal" baseline-shift="0" font-size="13" fill="#000000">5</tspan></text><text xml:space="preserve" x="531.374878" y="315.738281" textLength="7.230000" lengthAdjust="spacingAndGlyphs"><tspan font-family="Arial" font-weight="normal" baseline-shift="0" font-size="13" fill="#000000">6</tspan></text><text xml:space="preserve" x="513.249878" y="341.232086" textLength="7.230000" lengthAdjust="spacingAndGlyphs"><tspan font-family="Arial" font-weight="normal" baseline-shift="0" font-size="13" fill="#000000">7</tspan></text><text xml:space="preserve" x="483.499878" y="341.232086" textLength="7.230000" lengthAdjust="spacingAndGlyphs"><tspan font-family="Arial" font-weight="normal" baseline-shift="0" font-size="13" fill="#000000">8</tspan></text><text xml:space="preserve" x="464.266296" y="306.988281" textLength="7.230000" lengthAdjust="spacingAndGlyphs"><tspan font-family="Arial" font-weight="normal" baseline-shift="0" font-size="13" fill="#000000">9</tspan></text><text xml:space="preserve" x="480.499878" y="273.063293" textLength="14.460000" lengthAdjust="spacingAndGlyphs"><tspan font-family="Arial" font-weight="normal" baseline-shift="0" font-size="13" fill="#000000">10</tspan></text><text xml:space="preserve" x="506.503174" y="273.063293" textLength="13.496667" lengthAdjust="spacingAndGlyphs"><tspan font-family="Arial" font-weight="normal" baseline-shift="0" font-size="13" fill="#000000">11</tspan></text><text xml:space="preserve" x="555.499878" y="248.022675" textLength="14.460000" lengthAdjust="spacingAndGlyphs"><tspan font-family="Arial" font-weight="normal" baseline-shift="0" font-size="13" fill="#000000">12</tspan></text><text xml:space="preserve" x="525.759888" y="248.022659" textLength="14.460000" lengthAdjust="spacingAndGlyphs"><tspan font-family="Arial" font-weight="normal" baseline-shift="0" font-size="13" fill="#000000">13</tspan></text><text xml:space="preserve" x="573.854858" y="273.063293" textLength="14.460000" lengthAdjust="spacingAndGlyphs"><tspan font-family="Arial" font-weight="normal" baseline-shift="0" font-size="13" fill="#000000">14</tspan></text><line x1="638.17456" y1="265.94067" x2="646.95068" y2="265.94067" style="stroke:rgb(0,0,0);stroke-width:1.179213;stroke-opacity:1.000000" stroke-linecap="butt"/><polygon points="653.437378,265.940674 645.805908,264.032837 646.950684,265.940674 645.805908,267.848511 " style="fill:rgb(0,0,0);fill-opacity:1.000000"/><line x1="637.58325" y1="266.50574" x2="637.58325" y2="258.98071" style="stroke:rgb(0,0,0);stroke-width:1.179213;stroke-opacity:1.000000" stroke-linecap="butt"/><polygon points="637.583252,253.418732 635.947388,259.962219 637.583252,258.980713 639.219116,259.962219 " style="fill:rgb(0,0,0);fill-opacity:1.000000"/><line x1="637.95825" y1="266.13074" x2="633.27954" y2="270.80945" style="stroke:rgb(0,0,0);stroke-width:1.179213;stroke-opacity:1.000000" stroke-linecap="butt"/><polygon points="629.821289,274.267700 634.906982,271.216309 633.279541,270.809448 632.872681,269.182068 " style="fill:rgb(0,0,0);fill-opacity:1.000000"/><text xml:space="preserve" x="634.214722" y="251.955719" textLength="6.500000" lengthAdjust="spacingAndGlyphs"><tspan font-family="Arial" font-weight="normal" baseline-shift="0" font-size="13" fill="#000000">z</tspan></text><text xml:space="preserve" x="653.839722" y="268.330750" textLength="6.500000" lengthAdjust="spacingAndGlyphs"><tspan font-family="Arial" font-weight="normal" baseline-shift="0" font-size="13" fill="#000000">y</tspan></text><text xml:space="preserve" x="623.005249" y="280.280762" textLength="6.500000" lengthAdjust="spacingAndGlyphs"><tspan font-family="Arial" font-weight="normal" baseline-shift="0" font-size="13" fill="#000000">x</tspan></text></svg>