<?xml version="1.0" encoding="UTF-8" standalone="no"?>
<!-- IBoard SVG File -->

<svg
   viewBox="462.59 231.28 170.99 127.60"
   height="120.60"
   width="177.99"
   version="1.1"
   id="svg77"
   sodipodi:docname="10.svg"
   inkscape:export-filename="10.png"
   inkscape:export-xdpi="300"
   inkscape:export-ydpi="300"
   inkscape:version="1.3.2 (1:1.3.2+202311252150+091e20ef0f)"
   xmlns:inkscape="http://www.inkscape.org/namespaces/inkscape"
   xmlns:sodipodi="http://sodipodi.sourceforge.net/DTD/sodipodi-0.dtd"
   xmlns="http://www.w3.org/2000/svg"
   xmlns:svg="http://www.w3.org/2000/svg">
  <sodipodi:namedview
     id="namedview77"
     pagecolor="#ffffff"
     bordercolor="#000000"
     borderopacity="0.25"
     inkscape:showpageshadow="2"
     inkscape:pageopacity="0.0"
     inkscape:pagecheckerboard="0"
     inkscape:deskcolor="#d1d1d1"
     inkscape:zoom="4.6856564"
     inkscape:cx="88.995003"
     inkscape:cy="60.397088"
     inkscape:window-width="1466"
     inkscape:window-height="896"
     inkscape:window-x="70"
     inkscape:window-y="27"
     inkscape:window-maximized="1"
     inkscape:current-layer="svg77" />
  <!-- SVG File -->
  <polygon
     points="531.214966,302.749847 516.926819,277.744385 517.269836,277.156311 517.950623,277.159363 532.238770,302.164825 531.895752,302.752899 "
     style="fill:rgb(0,0,0);fill-opacity:1.000000"
     id="polygon1" />
  <polygon
     points="576.567688,278.011292 562.056641,302.887817 561.375854,302.884766 561.038086,302.293640 575.549133,277.417114 576.229919,277.420166 "
     style="fill:rgb(0,0,0);fill-opacity:1.000000"
     id="polygon2" />
  <polygon
     points="516.932068,276.565186 531.786072,251.100845 532.123840,251.691971 532.461609,252.283096 517.950623,277.159363 517.269836,277.156311 "
     style="fill:rgb(0,0,0);fill-opacity:1.000000"
     id="polygon3" />
  <polygon
     points="561.946899,251.235596 576.572937,276.832092 576.229919,277.420166 575.549133,277.417114 561.260864,252.411743 561.603882,251.823669 "
     style="fill:rgb(0,0,0);fill-opacity:1.000000"
     id="polygon4" />
  <polygon
     points="561.032837,303.472839 532.233521,303.344025 531.895752,302.752899 532.238770,302.164825 561.038086,302.293640 561.375854,302.884766 "
     style="fill:rgb(0,0,0);fill-opacity:1.000000"
     id="polygon5" />
  <polygon
     points="606.052979,276.963806 621.016724,303.151245 620.335938,303.148193 619.655151,303.145142 605.366943,278.139954 605.709961,277.551880 "
     style="fill:rgb(0,0,0);fill-opacity:1.000000"
     id="polygon6" />
  <polygon
     points="605.819580,329.203918 575.658752,329.069122 576.001770,328.481049 576.344788,327.892975 605.144043,328.021667 605.481812,328.612793 "
     style="fill:rgb(0,0,0);fill-opacity:1.000000"
     id="polygon7" />
  <polygon
     points="517.378906,328.808441 487.218079,328.673218 487.561127,328.085144 487.904175,327.497070 516.703369,327.626190 517.041138,328.217316 "
     style="fill:rgb(0,0,0);fill-opacity:1.000000"
     id="polygon8" />
  <polygon
     points="472.254761,302.485565 487.452332,276.433136 487.790070,277.024261 488.127838,277.615387 473.616394,302.491669 472.935577,302.488617 "
     style="fill:rgb(0,0,0);fill-opacity:1.000000"
     id="polygon9" />
  <polygon
     points="487.452332,276.433136 516.932068,276.565186 517.269836,277.156311 516.926819,277.744385 488.127838,277.615387 487.790070,277.024261 "
     style="fill:rgb(0,0,0);fill-opacity:1.000000"
     id="polygon10" />
  <polygon
     points="489.819305,279.981415 515.214172,280.095154 515.211548,280.684753 515.208923,281.274353 489.813995,281.160614 489.816650,280.571014 "
     style="fill:rgb(0,0,0);fill-opacity:1.000000"
     id="polygon11" />
  <polygon
     points="487.218079,328.673218 472.254761,302.485565 472.935577,302.488617 473.616394,302.491669 487.904175,327.497070 487.561127,328.085144 "
     style="fill:rgb(0,0,0);fill-opacity:1.000000"
     id="polygon12" />
  <polygon
     points="489.107483,324.849213 476.508514,302.799438 477.020447,302.506927 477.532379,302.214417 490.131348,324.264191 489.619415,324.556702 "
     style="fill:rgb(0,0,0);fill-opacity:1.000000"
     id="polygon13" />
  <polygon
     points="532.233521,303.344025 517.378906,328.808441 517.041138,328.217316 516.703369,327.626190 531.214966,302.749847 531.895752,302.752899 "
     style="fill:rgb(0,0,0);fill-opacity:1.000000"
     id="polygon14" />
  <polygon
     points="528.320129,303.031677 515.523865,324.967651 515.014587,324.670563 514.505310,324.373474 527.301575,302.437500 527.810852,302.734589 "
     style="fill:rgb(0,0,0);fill-opacity:1.000000"
     id="polygon15" />
  <polygon
     points="531.786072,251.100845 561.946899,251.235596 561.603882,251.823669 561.260864,252.411743 532.461609,252.283096 532.123840,251.691971 "
     style="fill:rgb(0,0,0);fill-opacity:1.000000"
     id="polygon16" />
  <polygon
     points="534.153076,254.649094 559.548279,254.762543 559.545654,255.352142 559.543030,255.941742 534.147827,255.828293 534.150452,255.238693 "
     style="fill:rgb(0,0,0);fill-opacity:1.000000"
     id="polygon17" />
  <polygon
     points="576.572937,276.832092 606.052979,276.963806 605.709961,277.551880 605.366943,278.139954 576.567688,278.011292 576.229919,277.420166 "
     style="fill:rgb(0,0,0);fill-opacity:1.000000"
     id="polygon18" />
  <polygon
     points="578.259155,280.377289 603.654358,280.490753 603.651733,281.080353 603.649109,281.669952 578.253906,281.556488 578.256531,280.966888 "
     style="fill:rgb(0,0,0);fill-opacity:1.000000"
     id="polygon19" />
  <polygon
     points="575.658752,329.069122 561.032837,303.472839 561.375854,302.884766 562.056641,302.887817 576.344788,327.892975 576.001770,328.481049 "
     style="fill:rgb(0,0,0);fill-opacity:1.000000"
     id="polygon20" />
  <polygon
     points="577.548096,325.245117 564.948792,303.195526 565.460693,302.903015 565.972595,302.610504 578.571899,324.660095 578.059998,324.952606 "
     style="fill:rgb(0,0,0);fill-opacity:1.000000"
     id="polygon21" />
  <polygon
     points="621.016724,303.151245 605.819580,329.203918 605.481812,328.612793 605.144043,328.021667 619.655151,303.145142 620.335938,303.148193 "
     style="fill:rgb(0,0,0);fill-opacity:1.000000"
     id="polygon22" />
  <polygon
     points="616.760376,303.427032 603.964478,325.363159 603.455200,325.066071 602.945923,324.768982 615.741821,302.832855 616.251099,303.129944 "
     style="fill:rgb(0,0,0);fill-opacity:1.000000"
     id="polygon23" />
  <path
     d="M605.584961 262.686737 C 601.584961 262.686737,598.584961 269.686737,605.584961 277.426880 M605.584961 262.686737 C 609.584961 262.686737,612.584961 269.686737,605.584961 277.426880"
     fill="url(#gradient1)"
     id="path23" />
  <path
     d="M605.584961 291.426880 C 609.584961 291.426880,612.584961 284.426880,605.584961 277.426880 M605.584961 291.426880 C 601.584961 291.426880,598.584961 284.426880,605.584961 277.426880"
     style="fill:rgb(255,255,255);fill-opacity:1.000000;stroke-width:1.179213;stroke:rgb(0,0,0);"
     stroke-linecap="round"
     id="path24" />
  <path
     d="M620.926758 288.419647 C 616.929993 288.259308,613.651794 295.133423,620.335938 303.148193 M620.926758 288.419647 C 624.923523 288.579987,627.640564 295.694580,620.335938 303.148193"
     fill="url(#gradient2)"
     id="path25" />
  <path
     d="M619.774780 317.136932 C 623.771545 317.297272,627.049744 310.423126,620.335938 303.148193 M619.774780 317.136932 C 615.778015 316.976593,613.060974 309.862000,620.335938 303.148193"
     style="fill:rgb(255,255,255);fill-opacity:1.000000;stroke-width:1.179213;stroke:rgb(0,0,0);"
     stroke-linecap="round"
     id="path26" />
  <path
     d="M606.415894 313.902435 C 602.423950 313.648956,598.986389 320.444763,605.481812 328.612793 M606.415894 313.902435 C 610.407837 314.155914,612.958191 321.331970,605.481812 328.612793"
     fill="url(#gradient3)"
     id="path27" />
  <path
     d="M604.594604 342.584656 C 608.586548 342.838135,612.024109 336.042328,605.481812 328.612793 M604.594604 342.584656 C 600.602661 342.331177,598.052307 335.155090,605.481812 328.612793"
     style="fill:rgb(255,255,255);fill-opacity:1.000000;stroke-width:1.179213;stroke:rgb(0,0,0);"
     stroke-linecap="round"
     id="path28" />
  <path
     d="M575.472717 343.211700 C 579.470154 343.355255,582.719421 336.467438,576.001770 328.481049 M575.472717 343.211700 C 571.475281 343.068146,568.728455 335.964966,576.001770 328.481049"
     fill="url(#gradient4)"
     id="path29" />
  <path
     d="M576.504272 314.490082 C 572.506836 314.346497,569.257507 321.234314,576.001770 328.481049 M576.504272 314.490082 C 580.501709 314.633667,583.248535 321.736816,576.001770 328.481049"
     style="fill:rgb(255,255,255);fill-opacity:1.000000;stroke-width:1.179213;stroke:rgb(0,0,0);"
     stroke-linecap="round"
     id="path30" />
  <path
     d="M560.580811 317.603668 C 564.575012 317.819427,567.948181 310.991425,561.375854 302.884766 M560.580811 317.603668 C 556.586609 317.387909,553.968567 310.236298,561.375854 302.884766"
     fill="url(#gradient5)"
     id="path31" />
  <path
     d="M562.130981 288.905151 C 558.136780 288.689392,554.763611 295.517395,561.375854 302.884766 M562.130981 288.905151 C 566.125183 289.120911,568.743225 296.272522,561.375854 302.884766"
     style="fill:rgb(255,255,255);fill-opacity:1.000000;stroke-width:1.179213;stroke:rgb(0,0,0);"
     stroke-linecap="round"
     id="path32" />
  <path
     d="M531.229858 317.478485 C 535.225769 317.659180,538.538940 310.801849,531.895752 302.752899 M531.229858 317.478485 C 527.233948 317.297791,524.553223 310.169403,531.895752 302.752899"
     fill="url(#gradient6)"
     id="path33" />
  <path
     d="M532.528198 288.767181 C 528.532288 288.586487,525.219116 295.443817,531.895752 302.752899 M532.528198 288.767181 C 536.524109 288.947876,539.204834 296.076263,531.895752 302.752899"
     style="fill:rgb(255,255,255);fill-opacity:1.000000;stroke-width:1.179213;stroke:rgb(0,0,0);"
     stroke-linecap="round"
     id="path34" />
  <path
     d="M516.431091 342.944763 C 520.427673 343.110321,523.714783 336.240479,517.041138 328.217316 M516.431091 342.944763 C 512.434509 342.779205,509.726807 335.661041,517.041138 328.217316"
     fill="url(#gradient7)"
     id="path35" />
  <path
     d="M517.620544 314.229309 C 513.623962 314.063751,510.336823 320.933594,517.041138 328.217316 M517.620544 314.229309 C 521.617126 314.394867,524.324829 321.513031,517.041138 328.217316"
     style="fill:rgb(255,255,255);fill-opacity:1.000000;stroke-width:1.179213;stroke:rgb(0,0,0);"
     stroke-linecap="round"
     id="path36" />
  <path
     d="M488.737976 313.392365 C 484.750732 313.072998,481.201447 319.811127,487.561127 328.085144 M488.737976 313.392365 C 492.725220 313.711731,495.156738 320.928894,487.561127 328.085144"
     fill="url(#gradient8)"
     id="path37" />
  <path
     d="M486.443359 342.040436 C 490.430603 342.359802,493.979889 335.621674,487.561127 328.085144 M486.443359 342.040436 C 482.456116 341.721069,480.024597 334.503906,487.561127 328.085144"
     style="fill:rgb(255,255,255);fill-opacity:1.000000;stroke-width:1.179213;stroke:rgb(0,0,0);"
     stroke-linecap="round"
     id="path38" />
  <path
     d="M473.753998 287.771057 C 469.760162 287.548981,466.376129 294.371613,472.935577 302.488617 M473.753998 287.771057 C 477.747833 287.993134,480.354553 295.148926,472.935577 302.488617"
     fill="url(#gradient9)"
     id="path39" />
  <path
     d="M472.158264 316.467010 C 476.152100 316.689087,479.536133 309.866486,472.935577 302.488617 M472.158264 316.467010 C 468.164429 316.244934,465.557739 309.089142,472.935577 302.488617"
     style="fill:rgb(255,255,255);fill-opacity:1.000000;stroke-width:1.179213;stroke:rgb(0,0,0);"
     stroke-linecap="round"
     id="path40" />
  <path
     d="M488.152893 262.288605 C 484.154114 262.190155,480.982697 269.114166,487.790070 277.024261 M488.152893 262.288605 C 492.151672 262.387054,494.978455 269.458801,487.790070 277.024261"
     fill="url(#gradient10)"
     id="path41" />
  <path
     d="M487.445465 291.020020 C 491.444244 291.118469,494.615662 284.194458,487.790070 277.024261 M487.445465 291.020020 C 483.446686 290.921570,480.619904 283.849823,487.790070 277.024261"
     style="fill:rgb(255,255,255);fill-opacity:1.000000;stroke-width:1.179213;stroke:rgb(0,0,0);"
     stroke-linecap="round"
     id="path42" />
  <path
     d="M517.637634 262.420807 C 513.638855 262.320984,510.465149 269.243958,517.269836 277.156311 M517.637634 262.420807 C 521.636414 262.520630,524.460754 269.593292,517.269836 277.156311"
     fill="url(#gradient11)"
     id="path43" />
  <path
     d="M516.920532 291.151947 C 520.919312 291.251740,524.093018 284.328796,517.269836 277.156311 M516.920532 291.151947 C 512.921753 291.052155,510.097382 283.979462,517.269836 277.156311"
     style="fill:rgb(255,255,255);fill-opacity:1.000000;stroke-width:1.179213;stroke:rgb(0,0,0);"
     stroke-linecap="round"
     id="path44" />
  <path
     d="M532.382996 236.954056 C 528.383606 236.883728,525.260986 243.829910,532.123840 251.691971 M532.382996 236.954056 C 536.382385 237.024384,539.258850 244.076050,532.123840 251.691971"
     fill="url(#gradient12)"
     id="path45" />
  <path
     d="M531.877686 265.689819 C 535.877075 265.760162,538.999695 258.813965,532.123840 251.691971 M531.877686 265.689819 C 527.878296 265.619476,525.001892 258.567810,532.123840 251.691971"
     style="fill:rgb(255,255,255);fill-opacity:1.000000;stroke-width:1.179213;stroke:rgb(0,0,0);"
     stroke-linecap="round"
     id="path46" />
  <path
     d="M561.851868 237.085373 C 557.852417 237.018082,554.735107 243.966614,561.603882 251.823669 M561.851868 237.085373 C 565.851318 237.152664,568.733093 244.202148,561.603882 251.823669"
     fill="url(#gradient13)"
     id="path47" />
  <path
     d="M561.368347 265.821686 C 565.367798 265.888977,568.485107 258.940430,561.603882 251.823669 M561.368347 265.821686 C 557.368896 265.754395,554.487122 258.704895,561.603882 251.823669"
     style="fill:rgb(255,255,255);fill-opacity:1.000000;stroke-width:1.179213;stroke:rgb(0,0,0);"
     stroke-linecap="round"
     id="path48" />
  <path
     d="M576.424988 262.681183 C 572.425354 262.628235,569.332947 269.587921,576.229919 277.420166 M576.424988 262.681183 C 580.424622 262.734131,583.331726 269.773193,576.229919 277.420166"
     fill="url(#gradient14)"
     id="path49" />
  <path
     d="M576.044678 291.418945 C 580.044312 291.471863,583.136658 284.512177,576.229919 277.420166 M576.044678 291.418945 C 572.045044 291.366028,569.137878 284.326935,576.229919 277.420166"
     style="fill:rgb(255,255,255);fill-opacity:1.000000;stroke-width:1.179213;stroke:rgb(0,0,0);"
     stroke-linecap="round"
     id="path50" />
  <defs
     id="defs77">
    <radialGradient
       id="gradient1"
       cx="50.000000%"
       cy="50.000000%"
       r="50.000000%"
       fx="50.000000%"
       fy="50.000000%">
      <stop
         style="stop-color:rgb(255,255,255);stop-opacity:1.000000"
         offset="0%"
         id="stop50" />
      <stop
         style="stop-color:rgb(0,0,0);stop-opacity:1.000000"
         offset="100%"
         id="stop51" />
    </radialGradient>
    <radialGradient
       id="gradient2"
       cx="50.000000%"
       cy="50.000000%"
       r="50.000000%"
       fx="50.000000%"
       fy="50.000000%">
      <stop
         style="stop-color:rgb(255,255,255);stop-opacity:1.000000"
         offset="0%"
         id="stop52" />
      <stop
         style="stop-color:rgb(0,0,0);stop-opacity:1.000000"
         offset="100%"
         id="stop53" />
    </radialGradient>
    <radialGradient
       id="gradient3"
       cx="50.000000%"
       cy="50.000000%"
       r="50.000000%"
       fx="50.000000%"
       fy="50.000000%">
      <stop
         style="stop-color:rgb(255,255,255);stop-opacity:1.000000"
         offset="0%"
         id="stop54" />
      <stop
         style="stop-color:rgb(0,0,0);stop-opacity:1.000000"
         offset="100%"
         id="stop55" />
    </radialGradient>
    <radialGradient
       id="gradient4"
       cx="50.000000%"
       cy="50.000000%"
       r="50.000000%"
       fx="50.000000%"
       fy="50.000000%">
      <stop
         style="stop-color:rgb(255,255,255);stop-opacity:1.000000"
         offset="0%"
         id="stop56" />
      <stop
         style="stop-color:rgb(0,0,0);stop-opacity:1.000000"
         offset="100%"
         id="stop57" />
    </radialGradient>
    <radialGradient
       id="gradient5"
       cx="50.000000%"
       cy="50.000000%"
       r="50.000000%"
       fx="50.000000%"
       fy="50.000000%">
      <stop
         style="stop-color:rgb(255,255,255);stop-opacity:1.000000"
         offset="0%"
         id="stop58" />
      <stop
         style="stop-color:rgb(0,0,0);stop-opacity:1.000000"
         offset="100%"
         id="stop59" />
    </radialGradient>
    <radialGradient
       id="gradient6"
       cx="50.000000%"
       cy="50.000000%"
       r="50.000000%"
       fx="50.000000%"
       fy="50.000000%">
      <stop
         style="stop-color:rgb(255,255,255);stop-opacity:1.000000"
         offset="0%"
         id="stop60" />
      <stop
         style="stop-color:rgb(0,0,0);stop-opacity:1.000000"
         offset="100%"
         id="stop61" />
    </radialGradient>
    <radialGradient
       id="gradient7"
       cx="50.000000%"
       cy="50.000000%"
       r="50.000000%"
       fx="50.000000%"
       fy="50.000000%">
      <stop
         style="stop-color:rgb(255,255,255);stop-opacity:1.000000"
         offset="0%"
         id="stop62" />
      <stop
         style="stop-color:rgb(0,0,0);stop-opacity:1.000000"
         offset="100%"
         id="stop63" />
    </radialGradient>
    <radialGradient
       id="gradient8"
       cx="50.000000%"
       cy="50.000000%"
       r="50.000000%"
       fx="50.000000%"
       fy="50.000000%">
      <stop
         style="stop-color:rgb(255,255,255);stop-opacity:1.000000"
         offset="0%"
         id="stop64" />
      <stop
         style="stop-color:rgb(0,0,0);stop-opacity:1.000000"
         offset="100%"
         id="stop65" />
    </radialGradient>
    <radialGradient
       id="gradient9"
       cx="50.000000%"
       cy="50.000000%"
       r="50.000000%"
       fx="50.000000%"
       fy="50.000000%">
      <stop
         style="stop-color:rgb(255,255,255);stop-opacity:1.000000"
         offset="0%"
         id="stop66" />
      <stop
         style="stop-color:rgb(0,0,0);stop-opacity:1.000000"
         offset="100%"
         id="stop67" />
    </radialGradient>
    <radialGradient
       id="gradient10"
       cx="50.000000%"
       cy="50.000000%"
       r="50.000000%"
       fx="50.000000%"
       fy="50.000000%">
      <stop
         style="stop-color:rgb(255,255,255);stop-opacity:1.000000"
         offset="0%"
         id="stop68" />
      <stop
         style="stop-color:rgb(0,0,0);stop-opacity:1.000000"
         offset="100%"
         id="stop69" />
    </radialGradient>
    <radialGradient
       id="gradient11"
       cx="50.000000%"
       cy="50.000000%"
       r="50.000000%"
       fx="50.000000%"
       fy="50.000000%">
      <stop
         style="stop-color:rgb(255,255,255);stop-opacity:1.000000"
         offset="0%"
         id="stop70" />
      <stop
         style="stop-color:rgb(0,0,0);stop-opacity:1.000000"
         offset="100%"
         id="stop71" />
    </radialGradient>
    <radialGradient
       id="gradient12"
       cx="50.000000%"
       cy="50.000000%"
       r="50.000000%"
       fx="50.000000%"
       fy="50.000000%">
      <stop
         style="stop-color:rgb(255,255,255);stop-opacity:1.000000"
         offset="0%"
         id="stop72" />
      <stop
         style="stop-color:rgb(0,0,0);stop-opacity:1.000000"
         offset="100%"
         id="stop73" />
    </radialGradient>
    <radialGradient
       id="gradient13"
       cx="50.000000%"
       cy="50.000000%"
       r="50.000000%"
       fx="50.000000%"
       fy="50.000000%">
      <stop
         style="stop-color:rgb(255,255,255);stop-opacity:1.000000"
         offset="0%"
         id="stop74" />
      <stop
         style="stop-color:rgb(0,0,0);stop-opacity:1.000000"
         offset="100%"
         id="stop75" />
    </radialGradient>
    <radialGradient
       id="gradient14"
       cx="50.000000%"
       cy="50.000000%"
       r="50.000000%"
       fx="50.000000%"
       fy="50.000000%">
      <stop
         style="stop-color:rgb(255,255,255);stop-opacity:1.000000"
         offset="0%"
         id="stop76" />
      <stop
         style="stop-color:rgb(0,0,0);stop-opacity:1.000000"
         offset="100%"
         id="stop77" />
    </radialGradient>
  </defs>
</svg>
