<?xml version="1.0" standalone='no'?><!-- IBoard SVG File --><svg xmlns="http://www.w3.org/2000/svg" xmlns:xlink="http://www.w3.org/1999/xlink" viewBox="462.57 232.02 170.93 126.24" height="119.24" width="177.93" version="1.1"><!-- SVG File --><polygon points="531.214966,302.749847 516.926819,277.744385 517.269836,277.156311 517.950623,277.159363 532.238770,302.164825 531.895752,302.752899 " style="fill:rgb(0,0,0);fill-opacity:1.000000"/><polygon points="576.567688,278.011292 562.056641,302.887817 561.375854,302.884766 561.038086,302.293640 575.549133,277.417114 576.229919,277.420166 " style="fill:rgb(0,0,0);fill-opacity:1.000000"/><polygon points="516.932068,276.565186 531.786072,251.100845 532.123840,251.691971 532.461609,252.283096 517.950623,277.159363 517.269836,277.156311 " style="fill:rgb(0,0,0);fill-opacity:1.000000"/><polygon points="561.946899,251.235596 576.572937,276.832092 576.229919,277.420166 575.549133,277.417114 561.260864,252.411743 561.603882,251.823669 " style="fill:rgb(0,0,0);fill-opacity:1.000000"/><polygon points="561.032837,303.472839 532.233521,303.344025 531.895752,302.752899 532.238770,302.164825 561.038086,302.293640 561.375854,302.884766 " style="fill:rgb(0,0,0);fill-opacity:1.000000"/><polygon points="606.052979,276.963806 621.016724,303.151245 620.335938,303.148193 619.655151,303.145142 605.366943,278.139954 605.709961,277.551880 " style="fill:rgb(0,0,0);fill-opacity:1.000000"/><polygon points="605.819580,329.203918 575.658752,329.069122 576.001770,328.481049 576.344788,327.892975 605.144043,328.021667 605.481812,328.612793 " style="fill:rgb(0,0,0);fill-opacity:1.000000"/><polygon points="517.378906,328.808441 487.218079,328.673218 487.561127,328.085144 487.904175,327.497070 516.703369,327.626190 517.041138,328.217316 " style="fill:rgb(0,0,0);fill-opacity:1.000000"/><polygon points="472.254761,302.485565 487.452332,276.433136 487.790070,277.024261 488.127838,277.615387 473.616394,302.491669 472.935577,302.488617 " style="fill:rgb(0,0,0);fill-opacity:1.000000"/><polygon points="487.452332,276.433136 516.932068,276.565186 517.269836,277.156311 516.926819,277.744385 488.127838,277.615387 487.790070,277.024261 " style="fill:rgb(0,0,0);fill-opacity:1.000000"/><polygon points="489.819305,279.981415 515.214172,280.095154 515.211548,280.684753 515.208923,281.274353 489.813995,281.160614 489.816650,280.571014 " style="fill:rgb(0,0,0);fill-opacity:1.000000"/><polygon points="487.218079,328.673218 472.254761,302.485565 472.935577,302.488617 473.616394,302.491669 487.904175,327.497070 487.561127,328.085144 " style="fill:rgb(0,0,0);fill-opacity:1.000000"/><polygon points="489.107483,324.849213 476.508514,302.799438 477.020447,302.506927 477.532379,302.214417 490.131348,324.264191 489.619415,324.556702 " style="fill:rgb(0,0,0);fill-opacity:1.000000"/><polygon points="532.233521,303.344025 517.378906,328.808441 517.041138,328.217316 516.703369,327.626190 531.214966,302.749847 531.895752,302.752899 " style="fill:rgb(0,0,0);fill-opacity:1.000000"/><polygon points="528.320129,303.031677 515.523865,324.967651 515.014587,324.670563 514.505310,324.373474 527.301575,302.437500 527.810852,302.734589 " style="fill:rgb(0,0,0);fill-opacity:1.000000"/><polygon points="531.786072,251.100845 561.946899,251.235596 561.603882,251.823669 561.260864,252.411743 532.461609,252.283096 532.123840,251.691971 " style="fill:rgb(0,0,0);fill-opacity:1.000000"/><polygon points="534.153076,254.649094 559.548279,254.762543 559.545654,255.352142 559.543030,255.941742 534.147827,255.828293 534.150452,255.238693 " style="fill:rgb(0,0,0);fill-opacity:1.000000"/><polygon points="576.572937,276.832092 606.052979,276.963806 605.709961,277.551880 605.366943,278.139954 576.567688,278.011292 576.229919,277.420166 " style="fill:rgb(0,0,0);fill-opacity:1.000000"/><polygon points="578.259155,280.377289 603.654358,280.490753 603.651733,281.080353 603.649109,281.669952 578.253906,281.556488 578.256531,280.966888 " style="fill:rgb(0,0,0);fill-opacity:1.000000"/><polygon points="575.658752,329.069122 561.032837,303.472839 561.375854,302.884766 562.056641,302.887817 576.344788,327.892975 576.001770,328.481049 " style="fill:rgb(0,0,0);fill-opacity:1.000000"/><polygon points="577.548096,325.245117 564.948792,303.195526 565.460693,302.903015 565.972595,302.610504 578.571899,324.660095 578.059998,324.952606 " style="fill:rgb(0,0,0);fill-opacity:1.000000"/><polygon points="621.016724,303.151245 605.819580,329.203918 605.481812,328.612793 605.144043,328.021667 619.655151,303.145142 620.335938,303.148193 " style="fill:rgb(0,0,0);fill-opacity:1.000000"/><polygon points="616.760376,303.427032 603.964478,325.363159 603.455200,325.066071 602.945923,324.768982 615.741821,302.832855 616.251099,303.129944 " style="fill:rgb(0,0,0);fill-opacity:1.000000"/><path d="M605.584961 262.686737 C 601.584961 262.686737,598.584961 269.686737,605.584961 277.426880 M605.584961 262.686737 C 609.584961 262.686737,612.584961 269.686737,605.584961 277.426880" fill="url(#gradient1)"/><path d="M605.584961 291.426880 C 609.584961 291.426880,612.584961 284.426880,605.584961 277.426880 M605.584961 291.426880 C 601.584961 291.426880,598.584961 284.426880,605.584961 277.426880" style="fill:rgb(255,255,255);fill-opacity:1.000000;stroke-width:1.179213;stroke:rgb(0,0,0);" stroke-linecap="round"/><path d="M619.822327 317.879639 C 623.819885 318.019012,627.061951 311.127777,620.335938 303.148193 M619.822327 317.879639 C 615.824768 317.740265,613.070496 310.639984,620.335938 303.148193" fill="url(#gradient2)"/><path d="M620.823730 289.156708 C 616.826172 289.017334,613.584106 295.908569,620.335938 303.148193 M620.823730 289.156708 C 624.821289 289.296082,627.575623 296.396332,620.335938 303.148193" style="fill:rgb(255,255,255);fill-opacity:1.000000;stroke-width:1.179213;stroke:rgb(0,0,0);" stroke-linecap="round"/><path d="M606.300781 313.895416 C 602.306946 313.673187,598.922668 320.495697,605.481812 328.612793 M606.300781 313.895416 C 610.294617 314.117645,612.901062 321.273529,605.481812 328.612793" fill="url(#gradient3)"/><path d="M604.703979 342.591156 C 608.697815 342.813385,612.082092 335.990906,605.481812 328.612793 M604.703979 342.591156 C 600.710144 342.368927,598.103699 335.213074,605.481812 328.612793" style="fill:rgb(255,255,255);fill-opacity:1.000000;stroke-width:1.179213;stroke:rgb(0,0,0);" stroke-linecap="round"/><path d="M576.406982 313.746490 C 572.408508 313.636536,569.217224 320.551422,576.001770 328.481049 M576.406982 313.746490 C 580.405457 313.856445,583.211914 320.936279,576.001770 328.481049" fill="url(#gradient4)"/><path d="M575.616882 342.475769 C 579.615356 342.585724,582.806702 335.670868,576.001770 328.481049 M575.616882 342.475769 C 571.618408 342.365814,568.811951 335.285980,576.001770 328.481049" style="fill:rgb(255,255,255);fill-opacity:1.000000;stroke-width:1.179213;stroke:rgb(0,0,0);" stroke-linecap="round"/><path d="M560.889404 317.617065 C 564.887207 317.749084,568.116577 310.851898,561.375854 302.884766 M560.889404 317.617065 C 556.891602 317.485046,554.124207 310.389862,561.375854 302.884766" fill="url(#gradient5)"/><path d="M561.837891 288.892395 C 557.840088 288.760376,554.610657 295.657562,561.375854 302.884766 M561.837891 288.892395 C 565.835693 289.024414,568.603027 296.119598,561.375854 302.884766" style="fill:rgb(255,255,255);fill-opacity:1.000000;stroke-width:1.179213;stroke:rgb(0,0,0);" stroke-linecap="round"/><path d="M531.413391 317.485443 C 535.411255 317.616333,538.638733 310.718262,531.895752 302.752899 M531.413391 317.485443 C 527.415527 317.354553,524.646179 310.260132,531.895752 302.752899" fill="url(#gradient6)"/><path d="M532.353882 288.760406 C 528.356018 288.629517,525.128540 295.527588,531.895752 302.752899 M532.353882 288.760406 C 536.351746 288.891296,539.121033 295.985748,531.895752 302.752899" style="fill:rgb(255,255,255);fill-opacity:1.000000;stroke-width:1.179213;stroke:rgb(0,0,0);" stroke-linecap="round"/><path d="M517.583374 313.487213 C 513.586060 313.340057,510.330597 320.224976,517.041138 328.217316 M517.583374 313.487213 C 521.580688 313.634369,524.321167 320.739960,517.041138 328.217316" fill="url(#gradient7)"/><path d="M516.526123 342.207825 C 520.523438 342.354980,523.778870 335.470062,517.041138 328.217316 M516.526123 342.207825 C 512.528809 342.060669,509.788391 334.955048,517.041138 328.217316" style="fill:rgb(255,255,255);fill-opacity:1.000000;stroke-width:1.179213;stroke:rgb(0,0,0);" stroke-linecap="round"/><path d="M488.598602 313.381958 C 484.608521 313.100403,481.123260 319.871887,487.561127 328.085144 M488.598602 313.381958 C 492.588684 313.663513,495.088531 320.857300,487.561127 328.085144" fill="url(#gradient8)"/><path d="M486.575714 342.050415 C 490.565796 342.331970,494.051056 335.560486,487.561127 328.085144 M486.575714 342.050415 C 482.585632 341.768860,480.085785 334.575073,487.561127 328.085144" style="fill:rgb(255,255,255);fill-opacity:1.000000;stroke-width:1.179213;stroke:rgb(0,0,0);" stroke-linecap="round"/><path d="M472.147491 317.207672 C 476.141785 317.421539,479.511719 310.591949,472.935577 302.488617 M472.147491 317.207672 C 468.153198 316.993805,465.531769 309.843445,472.935577 302.488617" fill="url(#gradient9)"/><path d="M473.684082 288.508636 C 469.689789 288.294769,466.319855 295.124390,472.935577 302.488617 M473.684082 288.508636 C 477.678375 288.722504,480.299835 295.872864,472.935577 302.488617" style="fill:rgb(255,255,255);fill-opacity:1.000000;stroke-width:1.179213;stroke:rgb(0,0,0);" stroke-linecap="round"/><path d="M488.152893 262.288605 C 484.154114 262.190155,480.982697 269.114166,487.790070 277.024261 M488.152893 262.288605 C 492.151672 262.387054,494.978455 269.458801,487.790070 277.024261" fill="url(#gradient10)"/><path d="M487.445465 291.020020 C 491.444244 291.118469,494.615662 284.194458,487.790070 277.024261 M487.445465 291.020020 C 483.446686 290.921570,480.619904 283.849823,487.790070 277.024261" style="fill:rgb(255,255,255);fill-opacity:1.000000;stroke-width:1.179213;stroke:rgb(0,0,0);" stroke-linecap="round"/><path d="M517.637634 262.420807 C 513.638855 262.320984,510.465149 269.243958,517.269836 277.156311 M517.637634 262.420807 C 521.636414 262.520630,524.460754 269.593292,517.269836 277.156311" fill="url(#gradient11)"/><path d="M516.920532 291.151947 C 520.919312 291.251740,524.093018 284.328796,517.269836 277.156311 M516.920532 291.151947 C 512.921753 291.052155,510.097382 283.979462,517.269836 277.156311" style="fill:rgb(255,255,255);fill-opacity:1.000000;stroke-width:1.179213;stroke:rgb(0,0,0);" stroke-linecap="round"/><path d="M531.961731 266.431061 C 535.961487 266.475067,539.038269 259.508453,532.123840 251.691971 M531.961731 266.431061 C 527.961975 266.387054,525.039124 259.354492,532.123840 251.691971" fill="url(#gradient12)"/><path d="M532.277832 237.692810 C 528.278076 237.648819,525.201233 244.615387,532.123840 251.691971 M532.277832 237.692810 C 536.277588 237.736801,539.200439 244.769363,532.123840 251.691971" style="fill:rgb(255,255,255);fill-opacity:1.000000;stroke-width:1.179213;stroke:rgb(0,0,0);" stroke-linecap="round"/><path d="M561.469116 266.563324 C 565.468933 266.599884,568.532837 259.627594,561.603882 251.823669 M561.469116 266.563324 C 557.469299 266.526764,554.533386 259.499603,561.603882 251.823669" fill="url(#gradient13)"/><path d="M561.731873 237.824249 C 557.732056 237.787674,554.668152 244.759949,561.603882 251.823669 M561.731873 237.824249 C 565.731689 237.860825,568.667603 244.887939,561.603882 251.823669" style="fill:rgb(255,255,255);fill-opacity:1.000000;stroke-width:1.179213;stroke:rgb(0,0,0);" stroke-linecap="round"/><path d="M576.424988 262.681183 C 572.425354 262.628235,569.332947 269.587921,576.229919 277.420166 M576.424988 262.681183 C 580.424622 262.734131,583.331726 269.773193,576.229919 277.420166" fill="url(#gradient14)"/><path d="M576.044678 291.418945 C 580.044312 291.471863,583.136658 284.512177,576.229919 277.420166 M576.044678 291.418945 C 572.045044 291.366028,569.137878 284.326935,576.229919 277.420166" style="fill:rgb(255,255,255);fill-opacity:1.000000;stroke-width:1.179213;stroke:rgb(0,0,0);" stroke-linecap="round"/><defs><radialGradient id="gradient1" cx="50.000000%" cy="50.000000%" r="50.000000%" fx="50.000000%" fy="50.000000%"><stop style="stop-color:rgb(255,255,255);stop-opacity:1.000000" offset="0%"/><stop style="stop-color:rgb(0,0,0);stop-opacity:1.000000" offset="100%"/></radialGradient><radialGradient id="gradient2" cx="50.000000%" cy="50.000000%" r="50.000000%" fx="50.000000%" fy="50.000000%"><stop style="stop-color:rgb(255,255,255);stop-opacity:1.000000" offset="0%"/><stop style="stop-color:rgb(0,0,0);stop-opacity:1.000000" offset="100%"/></radialGradient><radialGradient id="gradient3" cx="50.000000%" cy="50.000000%" r="50.000000%" fx="50.000000%" fy="50.000000%"><stop style="stop-color:rgb(255,255,255);stop-opacity:1.000000" offset="0%"/><stop style="stop-color:rgb(0,0,0);stop-opacity:1.000000" offset="100%"/></radialGradient><radialGradient id="gradient4" cx="50.000000%" cy="50.000000%" r="50.000000%" fx="50.000000%" fy="50.000000%"><stop style="stop-color:rgb(255,255,255);stop-opacity:1.000000" offset="0%"/><stop style="stop-color:rgb(0,0,0);stop-opacity:1.000000" offset="100%"/></radialGradient><radialGradient id="gradient5" cx="50.000000%" cy="50.000000%" r="50.000000%" fx="50.000000%" fy="50.000000%"><stop style="stop-color:rgb(255,255,255);stop-opacity:1.000000" offset="0%"/><stop style="stop-color:rgb(0,0,0);stop-opacity:1.000000" offset="100%"/></radialGradient><radialGradient id="gradient6" cx="50.000000%" cy="50.000000%" r="50.000000%" fx="50.000000%" fy="50.000000%"><stop style="stop-color:rgb(255,255,255);stop-opacity:1.000000" offset="0%"/><stop style="stop-color:rgb(0,0,0);stop-opacity:1.000000" offset="100%"/></radialGradient><radialGradient id="gradient7" cx="50.000000%" cy="50.000000%" r="50.000000%" fx="50.000000%" fy="50.000000%"><stop style="stop-color:rgb(255,255,255);stop-opacity:1.000000" offset="0%"/><stop style="stop-color:rgb(0,0,0);stop-opacity:1.000000" offset="100%"/></radialGradient><radialGradient id="gradient8" cx="50.000000%" cy="50.000000%" r="50.000000%" fx="50.000000%" fy="50.000000%"><stop style="stop-color:rgb(255,255,255);stop-opacity:1.000000" offset="0%"/><stop style="stop-color:rgb(0,0,0);stop-opacity:1.000000" offset="100%"/></radialGradient><radialGradient id="gradient9" cx="50.000000%" cy="50.000000%" r="50.000000%" fx="50.000000%" fy="50.000000%"><stop style="stop-color:rgb(255,255,255);stop-opacity:1.000000" offset="0%"/><stop style="stop-color:rgb(0,0,0);stop-opacity:1.000000" offset="100%"/></radialGradient><radialGradient id="gradient10" cx="50.000000%" cy="50.000000%" r="50.000000%" fx="50.000000%" fy="50.000000%"><stop style="stop-color:rgb(255,255,255);stop-opacity:1.000000" offset="0%"/><stop style="stop-color:rgb(0,0,0);stop-opacity:1.000000" offset="100%"/></radialGradient><radialGradient id="gradient11" cx="50.000000%" cy="50.000000%" r="50.000000%" fx="50.000000%" fy="50.000000%"><stop style="stop-color:rgb(255,255,255);stop-opacity:1.000000" offset="0%"/><stop style="stop-color:rgb(0,0,0);stop-opacity:1.000000" offset="100%"/></radialGradient><radialGradient id="gradient12" cx="50.000000%" cy="50.000000%" r="50.000000%" fx="50.000000%" fy="50.000000%"><stop style="stop-color:rgb(255,255,255);stop-opacity:1.000000" offset="0%"/><stop style="stop-color:rgb(0,0,0);stop-opacity:1.000000" offset="100%"/></radialGradient><radialGradient id="gradient13" cx="50.000000%" cy="50.000000%" r="50.000000%" fx="50.000000%" fy="50.000000%"><stop style="stop-color:rgb(255,255,255);stop-opacity:1.000000" offset="0%"/><stop style="stop-color:rgb(0,0,0);stop-opacity:1.000000" offset="100%"/></radialGradient><radialGradient id="gradient14" cx="50.000000%" cy="50.000000%" r="50.000000%" fx="50.000000%" fy="50.000000%"><stop style="stop-color:rgb(255,255,255);stop-opacity:1.000000" offset="0%"/><stop style="stop-color:rgb(0,0,0);stop-opacity:1.000000" offset="100%"/></radialGradient></defs></svg>