<?xml version="1.0" standalone='no'?><!-- IBoard SVG File --><svg xmlns="http://www.w3.org/2000/svg" xmlns:xlink="http://www.w3.org/1999/xlink" viewBox="462.70 231.28 170.63 127.60" height="120.60" width="177.63" version="1.1"><!-- SVG File --><polygon points="531.214966,302.749847 516.926819,277.744385 517.269836,277.156311 517.950623,277.159363 532.238770,302.164825 531.895752,302.752899 " style="fill:rgb(0,0,0);fill-opacity:1.000000"/><polygon points="576.567688,278.011292 562.056641,302.887817 561.375854,302.884766 561.038086,302.293640 575.549133,277.417114 576.229919,277.420166 " style="fill:rgb(0,0,0);fill-opacity:1.000000"/><polygon points="516.932068,276.565186 531.786072,251.100845 532.123840,251.691971 532.461609,252.283096 517.950623,277.159363 517.269836,277.156311 " style="fill:rgb(0,0,0);fill-opacity:1.000000"/><polygon points="561.946899,251.235596 576.572937,276.832092 576.229919,277.420166 575.549133,277.417114 561.260864,252.411743 561.603882,251.823669 " style="fill:rgb(0,0,0);fill-opacity:1.000000"/><polygon points="561.032837,303.472839 532.233521,303.344025 531.895752,302.752899 532.238770,302.164825 561.038086,302.293640 561.375854,302.884766 " style="fill:rgb(0,0,0);fill-opacity:1.000000"/><polygon points="606.052979,276.963806 621.016724,303.151245 620.335938,303.148193 619.655151,303.145142 605.366943,278.139954 605.709961,277.551880 " style="fill:rgb(0,0,0);fill-opacity:1.000000"/><polygon points="605.819580,329.203918 575.658752,329.069122 576.001770,328.481049 576.344788,327.892975 605.144043,328.021667 605.481812,328.612793 " style="fill:rgb(0,0,0);fill-opacity:1.000000"/><polygon points="517.378906,328.808441 487.218079,328.673218 487.561127,328.085144 487.904175,327.497070 516.703369,327.626190 517.041138,328.217316 " style="fill:rgb(0,0,0);fill-opacity:1.000000"/><polygon points="472.254761,302.485565 487.452332,276.433136 487.790070,277.024261 488.127838,277.615387 473.616394,302.491669 472.935577,302.488617 " style="fill:rgb(0,0,0);fill-opacity:1.000000"/><polygon points="487.452332,276.433136 516.932068,276.565186 517.269836,277.156311 516.926819,277.744385 488.127838,277.615387 487.790070,277.024261 " style="fill:rgb(0,0,0);fill-opacity:1.000000"/><polygon points="489.819305,279.981415 515.214172,280.095154 515.211548,280.684753 515.208923,281.274353 489.813995,281.160614 489.816650,280.571014 " style="fill:rgb(0,0,0);fill-opacity:1.000000"/><polygon points="487.218079,328.673218 472.254761,302.485565 472.935577,302.488617 473.616394,302.491669 487.904175,327.497070 487.561127,328.085144 " style="fill:rgb(0,0,0);fill-opacity:1.000000"/><polygon points="489.107483,324.849213 476.508514,302.799438 477.020447,302.506927 477.532379,302.214417 490.131348,324.264191 489.619415,324.556702 " style="fill:rgb(0,0,0);fill-opacity:1.000000"/><polygon points="532.233521,303.344025 517.378906,328.808441 517.041138,328.217316 516.703369,327.626190 531.214966,302.749847 531.895752,302.752899 " style="fill:rgb(0,0,0);fill-opacity:1.000000"/><polygon points="528.320129,303.031677 515.523865,324.967651 515.014587,324.670563 514.505310,324.373474 527.301575,302.437500 527.810852,302.734589 " style="fill:rgb(0,0,0);fill-opacity:1.000000"/><polygon points="531.786072,251.100845 561.946899,251.235596 561.603882,251.823669 561.260864,252.411743 532.461609,252.283096 532.123840,251.691971 " style="fill:rgb(0,0,0);fill-opacity:1.000000"/><polygon points="534.153076,254.649094 559.548279,254.762543 559.545654,255.352142 559.543030,255.941742 534.147827,255.828293 534.150452,255.238693 " style="fill:rgb(0,0,0);fill-opacity:1.000000"/><polygon points="576.572937,276.832092 606.052979,276.963806 605.709961,277.551880 605.366943,278.139954 576.567688,278.011292 576.229919,277.420166 " style="fill:rgb(0,0,0);fill-opacity:1.000000"/><polygon points="578.259155,280.377289 603.654358,280.490753 603.651733,281.080353 603.649109,281.669952 578.253906,281.556488 578.256531,280.966888 " style="fill:rgb(0,0,0);fill-opacity:1.000000"/><polygon points="575.658752,329.069122 561.032837,303.472839 561.375854,302.884766 562.056641,302.887817 576.344788,327.892975 576.001770,328.481049 " style="fill:rgb(0,0,0);fill-opacity:1.000000"/><polygon points="577.548096,325.245117 564.948792,303.195526 565.460693,302.903015 565.972595,302.610504 578.571899,324.660095 578.059998,324.952606 " style="fill:rgb(0,0,0);fill-opacity:1.000000"/><polygon points="621.016724,303.151245 605.819580,329.203918 605.481812,328.612793 605.144043,328.021667 619.655151,303.145142 620.335938,303.148193 " style="fill:rgb(0,0,0);fill-opacity:1.000000"/><polygon points="616.760376,303.427032 603.964478,325.363159 603.455200,325.066071 602.945923,324.768982 615.741821,302.832855 616.251099,303.129944 " style="fill:rgb(0,0,0);fill-opacity:1.000000"/><path d="M605.584961 262.686737 C 601.584961 262.686737,598.584961 269.686737,605.584961 277.426880 M605.584961 262.686737 C 609.584961 262.686737,612.584961 269.686737,605.584961 277.426880" fill="url(#gradient1)"/><path d="M605.584961 291.426880 C 609.584961 291.426880,612.584961 284.426880,605.584961 277.426880 M605.584961 291.426880 C 601.584961 291.426880,598.584961 284.426880,605.584961 277.426880" style="fill:rgb(255,255,255);fill-opacity:1.000000;stroke-width:1.179213;stroke:rgb(0,0,0);" stroke-linecap="round"/><path d="M620.107666 317.886566 C 624.107178 317.948517,627.215271 310.995819,620.335938 303.148193 M620.107666 317.886566 C 616.108154 317.824615,613.216919 310.778992,620.335938 303.148193" fill="url(#gradient2)"/><path d="M620.552734 289.149872 C 616.553223 289.087921,613.445190 296.040619,620.335938 303.148193 M620.552734 289.149872 C 624.552246 289.211823,627.443481 296.257446,620.335938 303.148193" style="fill:rgb(255,255,255);fill-opacity:1.000000;stroke-width:1.179213;stroke:rgb(0,0,0);" stroke-linecap="round"/><path d="M605.927917 313.879333 C 601.929749 313.758270,598.719299 320.664276,605.481812 328.612793 M605.927917 313.879333 C 609.926086 314.000397,612.712891 321.087952,605.481812 328.612793" fill="url(#gradient3)"/><path d="M605.058105 342.606384 C 609.056274 342.727448,612.266724 335.821442,605.481812 328.612793 M605.058105 342.606384 C 601.059937 342.485321,598.273193 335.397736,605.481812 328.612793" style="fill:rgb(255,255,255);fill-opacity:1.000000;stroke-width:1.179213;stroke:rgb(0,0,0);" stroke-linecap="round"/><path d="M575.628357 343.216431 C 579.627075 343.317749,582.803467 336.395996,576.001770 328.481049 M575.628357 343.216431 C 571.629639 343.115112,568.807922 336.041351,576.001770 328.481049" fill="url(#gradient4)"/><path d="M576.356445 314.485535 C 572.357727 314.384186,569.181335 321.305969,576.001770 328.481049 M576.356445 314.485535 C 580.355164 314.586884,583.176880 321.660645,576.001770 328.481049" style="fill:rgb(255,255,255);fill-opacity:1.000000;stroke-width:1.179213;stroke:rgb(0,0,0);" stroke-linecap="round"/><path d="M561.727234 288.148743 C 557.728394 288.053375,554.562378 294.979889,561.375854 302.884766 M561.727234 288.148743 C 565.726074 288.244110,568.558350 295.313629,561.375854 302.884766" fill="url(#gradient5)"/><path d="M561.042114 316.880798 C 565.040955 316.976166,568.206970 310.049652,561.375854 302.884766 M561.042114 316.880798 C 557.043274 316.785431,554.210999 309.715912,561.375854 302.884766" style="fill:rgb(255,255,255);fill-opacity:1.000000;stroke-width:1.179213;stroke:rgb(0,0,0);" stroke-linecap="round"/><path d="M532.217285 288.015991 C 528.218262 287.928741,525.066223 294.861633,531.895752 302.752899 M532.217285 288.015991 C 536.216309 288.103241,539.062927 295.166992,531.895752 302.752899" fill="url(#gradient6)"/><path d="M531.590393 316.749573 C 535.589417 316.836823,538.741394 309.903931,531.895752 302.752899 M531.590393 316.749573 C 527.591370 316.662323,524.744751 309.598541,531.895752 302.752899" style="fill:rgb(255,255,255);fill-opacity:1.000000;stroke-width:1.179213;stroke:rgb(0,0,0);" stroke-linecap="round"/><path d="M516.604126 342.950867 C 520.602356 343.069458,523.808594 336.161499,517.041138 328.217316 M516.604126 342.950867 C 512.605896 342.832275,509.814758 335.746399,517.041138 328.217316" fill="url(#gradient7)"/><path d="M517.456238 314.223480 C 513.458008 314.104889,510.251770 321.012848,517.041138 328.217316 M517.456238 314.223480 C 521.454468 314.342072,524.245605 321.427948,517.041138 328.217316" style="fill:rgb(255,255,255);fill-opacity:1.000000;stroke-width:1.179213;stroke:rgb(0,0,0);" stroke-linecap="round"/><path d="M488.288391 313.363220 C 484.293274 313.165863,480.951538 320.009308,487.561127 328.085144 M488.288391 313.363220 C 492.283508 313.560577,494.934479 320.700073,487.561127 328.085144" fill="url(#gradient8)"/><path d="M486.870361 342.068085 C 490.865479 342.265442,494.207214 335.421997,487.561127 328.085144 M486.870361 342.068085 C 482.875244 341.870728,480.224274 334.731232,487.561127 328.085144" style="fill:rgb(255,255,255);fill-opacity:1.000000;stroke-width:1.179213;stroke:rgb(0,0,0);" stroke-linecap="round"/><path d="M472.355072 317.217438 C 476.351959 317.374969,479.625336 310.498566,472.935577 302.488617 M472.355072 317.217438 C 468.358185 317.059906,465.636200 309.947174,472.935577 302.488617" fill="url(#gradient9)"/><path d="M473.486938 288.499481 C 469.490051 288.341949,466.216705 295.218384,472.935577 302.488617 M473.486938 288.499481 C 477.483826 288.657013,480.205841 295.769714,472.935577 302.488617" style="fill:rgb(255,255,255);fill-opacity:1.000000;stroke-width:1.179213;stroke:rgb(0,0,0);" stroke-linecap="round"/><path d="M488.152893 262.288605 C 484.154114 262.190155,480.982697 269.114166,487.790070 277.024261 M488.152893 262.288605 C 492.151672 262.387054,494.978455 269.458801,487.790070 277.024261" fill="url(#gradient10)"/><path d="M487.445465 291.020020 C 491.444244 291.118469,494.615662 284.194458,487.790070 277.024261 M487.445465 291.020020 C 483.446686 290.921570,480.619904 283.849823,487.790070 277.024261" style="fill:rgb(255,255,255);fill-opacity:1.000000;stroke-width:1.179213;stroke:rgb(0,0,0);" stroke-linecap="round"/><path d="M516.998718 291.893951 C 520.998047 291.967529,524.126282 285.023895,517.269836 277.156311 M516.998718 291.893951 C 512.999390 291.820374,510.128662 284.766388,517.269836 277.156311" fill="url(#gradient11)"/><path d="M517.527344 263.158691 C 513.528015 263.085114,510.399750 270.028748,517.269836 277.156311 M517.527344 263.158691 C 521.526672 263.232269,524.397400 270.286255,517.269836 277.156311" style="fill:rgb(255,255,255);fill-opacity:1.000000;stroke-width:1.179213;stroke:rgb(0,0,0);" stroke-linecap="round"/><path d="M532.269043 236.952606 C 528.269226 236.913208,525.200439 243.883316,532.123840 251.691971 M532.269043 236.952606 C 536.268860 236.992004,539.199768 244.021225,532.123840 251.691971" fill="url(#gradient12)"/><path d="M531.985901 265.691284 C 535.985718 265.730682,539.054504 258.760590,532.123840 251.691971 M531.985901 265.691284 C 527.986084 265.651886,525.055237 258.622650,532.123840 251.691971" style="fill:rgb(255,255,255);fill-opacity:1.000000;stroke-width:1.179213;stroke:rgb(0,0,0);" stroke-linecap="round"/><path d="M561.603882 237.083511 C 557.603882 237.083511,554.603882 244.083511,561.603882 251.823669 M561.603882 237.083511 C 565.603882 237.083511,568.603882 244.083511,561.603882 251.823669" fill="url(#gradient13)"/><path d="M561.603882 265.823669 C 565.603882 265.823669,568.603882 258.823669,561.603882 251.823669 M561.603882 265.823669 C 557.603882 265.823669,554.603882 258.823669,561.603882 251.823669" style="fill:rgb(255,255,255);fill-opacity:1.000000;stroke-width:1.179213;stroke:rgb(0,0,0);" stroke-linecap="round"/><path d="M576.147827 292.160034 C 580.147766 292.182312,583.186707 285.199127,576.229919 277.420166 M576.147827 292.160034 C 572.147888 292.137756,569.186890 285.121155,576.229919 277.420166" fill="url(#gradient14)"/><path d="M576.307861 263.420380 C 572.307922 263.398102,569.268982 270.381287,576.229919 277.420166 M576.307861 263.420380 C 580.307800 263.442657,583.268799 270.459229,576.229919 277.420166" style="fill:rgb(255,255,255);fill-opacity:1.000000;stroke-width:1.179213;stroke:rgb(0,0,0);" stroke-linecap="round"/><defs><radialGradient id="gradient1" cx="50.000000%" cy="50.000000%" r="50.000000%" fx="50.000000%" fy="50.000000%"><stop style="stop-color:rgb(255,255,255);stop-opacity:1.000000" offset="0%"/><stop style="stop-color:rgb(0,0,0);stop-opacity:1.000000" offset="100%"/></radialGradient><radialGradient id="gradient2" cx="50.000000%" cy="50.000000%" r="50.000000%" fx="50.000000%" fy="50.000000%"><stop style="stop-color:rgb(255,255,255);stop-opacity:1.000000" offset="0%"/><stop style="stop-color:rgb(0,0,0);stop-opacity:1.000000" offset="100%"/></radialGradient><radialGradient id="gradient3" cx="50.000000%" cy="50.000000%" r="50.000000%" fx="50.000000%" fy="50.000000%"><stop style="stop-color:rgb(255,255,255);stop-opacity:1.000000" offset="0%"/><stop style="stop-color:rgb(0,0,0);stop-opacity:1.000000" offset="100%"/></radialGradient><radialGradient id="gradient4" cx="50.000000%" cy="50.000000%" r="50.000000%" fx="50.000000%" fy="50.000000%"><stop style="stop-color:rgb(255,255,255);stop-opacity:1.000000" offset="0%"/><stop style="stop-color:rgb(0,0,0);stop-opacity:1.000000" offset="100%"/></radialGradient><radialGradient id="gradient5" cx="50.000000%" cy="50.000000%" r="50.000000%" fx="50.000000%" fy="50.000000%"><stop style="stop-color:rgb(255,255,255);stop-opacity:1.000000" offset="0%"/><stop style="stop-color:rgb(0,0,0);stop-opacity:1.000000" offset="100%"/></radialGradient><radialGradient id="gradient6" cx="50.000000%" cy="50.000000%" r="50.000000%" fx="50.000000%" fy="50.000000%"><stop style="stop-color:rgb(255,255,255);stop-opacity:1.000000" offset="0%"/><stop style="stop-color:rgb(0,0,0);stop-opacity:1.000000" offset="100%"/></radialGradient><radialGradient id="gradient7" cx="50.000000%" cy="50.000000%" r="50.000000%" fx="50.000000%" fy="50.000000%"><stop style="stop-color:rgb(255,255,255);stop-opacity:1.000000" offset="0%"/><stop style="stop-color:rgb(0,0,0);stop-opacity:1.000000" offset="100%"/></radialGradient><radialGradient id="gradient8" cx="50.000000%" cy="50.000000%" r="50.000000%" fx="50.000000%" fy="50.000000%"><stop style="stop-color:rgb(255,255,255);stop-opacity:1.000000" offset="0%"/><stop style="stop-color:rgb(0,0,0);stop-opacity:1.000000" offset="100%"/></radialGradient><radialGradient id="gradient9" cx="50.000000%" cy="50.000000%" r="50.000000%" fx="50.000000%" fy="50.000000%"><stop style="stop-color:rgb(255,255,255);stop-opacity:1.000000" offset="0%"/><stop style="stop-color:rgb(0,0,0);stop-opacity:1.000000" offset="100%"/></radialGradient><radialGradient id="gradient10" cx="50.000000%" cy="50.000000%" r="50.000000%" fx="50.000000%" fy="50.000000%"><stop style="stop-color:rgb(255,255,255);stop-opacity:1.000000" offset="0%"/><stop style="stop-color:rgb(0,0,0);stop-opacity:1.000000" offset="100%"/></radialGradient><radialGradient id="gradient11" cx="50.000000%" cy="50.000000%" r="50.000000%" fx="50.000000%" fy="50.000000%"><stop style="stop-color:rgb(255,255,255);stop-opacity:1.000000" offset="0%"/><stop style="stop-color:rgb(0,0,0);stop-opacity:1.000000" offset="100%"/></radialGradient><radialGradient id="gradient12" cx="50.000000%" cy="50.000000%" r="50.000000%" fx="50.000000%" fy="50.000000%"><stop style="stop-color:rgb(255,255,255);stop-opacity:1.000000" offset="0%"/><stop style="stop-color:rgb(0,0,0);stop-opacity:1.000000" offset="100%"/></radialGradient><radialGradient id="gradient13" cx="50.000000%" cy="50.000000%" r="50.000000%" fx="50.000000%" fy="50.000000%"><stop style="stop-color:rgb(255,255,255);stop-opacity:1.000000" offset="0%"/><stop style="stop-color:rgb(0,0,0);stop-opacity:1.000000" offset="100%"/></radialGradient><radialGradient id="gradient14" cx="50.000000%" cy="50.000000%" r="50.000000%" fx="50.000000%" fy="50.000000%"><stop style="stop-color:rgb(255,255,255);stop-opacity:1.000000" offset="0%"/><stop style="stop-color:rgb(0,0,0);stop-opacity:1.000000" offset="100%"/></radialGradient></defs></svg>