<?xml version="1.0" encoding="UTF-8" standalone="no"?>
<!-- IBoard SVG File -->

<svg
   viewBox="462.83 231.41 170.41 127.61"
   height="120.61"
   width="177.41"
   version="1.1"
   id="svg77"
   sodipodi:docname="2.svg"
   inkscape:export-filename="2.png"
   inkscape:export-xdpi="300"
   inkscape:export-ydpi="300"
   inkscape:version="1.3.2 (1:1.3.2+202311252150+091e20ef0f)"
   xmlns:inkscape="http://www.inkscape.org/namespaces/inkscape"
   xmlns:sodipodi="http://sodipodi.sourceforge.net/DTD/sodipodi-0.dtd"
   xmlns="http://www.w3.org/2000/svg"
   xmlns:svg="http://www.w3.org/2000/svg">
  <sodipodi:namedview
     id="namedview77"
     pagecolor="#ffffff"
     bordercolor="#000000"
     borderopacity="0.25"
     inkscape:showpageshadow="2"
     inkscape:pageopacity="0.0"
     inkscape:pagecheckerboard="0"
     inkscape:deskcolor="#d1d1d1"
     inkscape:zoom="4.700975"
     inkscape:cx="88.705002"
     inkscape:cy="60.200277"
     inkscape:window-width="1466"
     inkscape:window-height="896"
     inkscape:window-x="70"
     inkscape:window-y="27"
     inkscape:window-maximized="1"
     inkscape:current-layer="svg77" />
  <!-- SVG File -->
  <polygon
     points="531.214966,302.749847 516.926819,277.744385 517.269836,277.156311 517.950623,277.159363 532.238770,302.164825 531.895752,302.752899 "
     style="fill:rgb(0,0,0);fill-opacity:1.000000"
     id="polygon1" />
  <polygon
     points="576.567688,278.011292 562.056641,302.887817 561.375854,302.884766 561.038086,302.293640 575.549133,277.417114 576.229919,277.420166 "
     style="fill:rgb(0,0,0);fill-opacity:1.000000"
     id="polygon2" />
  <polygon
     points="516.932068,276.565186 531.786072,251.100845 532.123840,251.691971 532.461609,252.283096 517.950623,277.159363 517.269836,277.156311 "
     style="fill:rgb(0,0,0);fill-opacity:1.000000"
     id="polygon3" />
  <polygon
     points="561.946899,251.235596 576.572937,276.832092 576.229919,277.420166 575.549133,277.417114 561.260864,252.411743 561.603882,251.823669 "
     style="fill:rgb(0,0,0);fill-opacity:1.000000"
     id="polygon4" />
  <polygon
     points="561.032837,303.472839 532.233521,303.344025 531.895752,302.752899 532.238770,302.164825 561.038086,302.293640 561.375854,302.884766 "
     style="fill:rgb(0,0,0);fill-opacity:1.000000"
     id="polygon5" />
  <polygon
     points="606.052979,276.963806 621.016724,303.151245 620.335938,303.148193 619.655151,303.145142 605.366943,278.139954 605.709961,277.551880 "
     style="fill:rgb(0,0,0);fill-opacity:1.000000"
     id="polygon6" />
  <polygon
     points="605.819580,329.203918 575.658752,329.069122 576.001770,328.481049 576.344788,327.892975 605.144043,328.021667 605.481812,328.612793 "
     style="fill:rgb(0,0,0);fill-opacity:1.000000"
     id="polygon7" />
  <polygon
     points="517.378906,328.808441 487.218079,328.673218 487.561127,328.085144 487.904175,327.497070 516.703369,327.626190 517.041138,328.217316 "
     style="fill:rgb(0,0,0);fill-opacity:1.000000"
     id="polygon8" />
  <polygon
     points="472.254761,302.485565 487.452332,276.433136 487.790070,277.024261 488.127838,277.615387 473.616394,302.491669 472.935577,302.488617 "
     style="fill:rgb(0,0,0);fill-opacity:1.000000"
     id="polygon9" />
  <polygon
     points="487.452332,276.433136 516.932068,276.565186 517.269836,277.156311 516.926819,277.744385 488.127838,277.615387 487.790070,277.024261 "
     style="fill:rgb(0,0,0);fill-opacity:1.000000"
     id="polygon10" />
  <polygon
     points="489.819305,279.981415 515.214172,280.095154 515.211548,280.684753 515.208923,281.274353 489.813995,281.160614 489.816650,280.571014 "
     style="fill:rgb(0,0,0);fill-opacity:1.000000"
     id="polygon11" />
  <polygon
     points="487.218079,328.673218 472.254761,302.485565 472.935577,302.488617 473.616394,302.491669 487.904175,327.497070 487.561127,328.085144 "
     style="fill:rgb(0,0,0);fill-opacity:1.000000"
     id="polygon12" />
  <polygon
     points="489.107483,324.849213 476.508514,302.799438 477.020447,302.506927 477.532379,302.214417 490.131348,324.264191 489.619415,324.556702 "
     style="fill:rgb(0,0,0);fill-opacity:1.000000"
     id="polygon13" />
  <polygon
     points="532.233521,303.344025 517.378906,328.808441 517.041138,328.217316 516.703369,327.626190 531.214966,302.749847 531.895752,302.752899 "
     style="fill:rgb(0,0,0);fill-opacity:1.000000"
     id="polygon14" />
  <polygon
     points="528.320129,303.031677 515.523865,324.967651 515.014587,324.670563 514.505310,324.373474 527.301575,302.437500 527.810852,302.734589 "
     style="fill:rgb(0,0,0);fill-opacity:1.000000"
     id="polygon15" />
  <polygon
     points="531.786072,251.100845 561.946899,251.235596 561.603882,251.823669 561.260864,252.411743 532.461609,252.283096 532.123840,251.691971 "
     style="fill:rgb(0,0,0);fill-opacity:1.000000"
     id="polygon16" />
  <polygon
     points="534.153076,254.649094 559.548279,254.762543 559.545654,255.352142 559.543030,255.941742 534.147827,255.828293 534.150452,255.238693 "
     style="fill:rgb(0,0,0);fill-opacity:1.000000"
     id="polygon17" />
  <polygon
     points="576.572937,276.832092 606.052979,276.963806 605.709961,277.551880 605.366943,278.139954 576.567688,278.011292 576.229919,277.420166 "
     style="fill:rgb(0,0,0);fill-opacity:1.000000"
     id="polygon18" />
  <polygon
     points="578.259155,280.377289 603.654358,280.490753 603.651733,281.080353 603.649109,281.669952 578.253906,281.556488 578.256531,280.966888 "
     style="fill:rgb(0,0,0);fill-opacity:1.000000"
     id="polygon19" />
  <polygon
     points="575.658752,329.069122 561.032837,303.472839 561.375854,302.884766 562.056641,302.887817 576.344788,327.892975 576.001770,328.481049 "
     style="fill:rgb(0,0,0);fill-opacity:1.000000"
     id="polygon20" />
  <polygon
     points="577.548096,325.245117 564.948792,303.195526 565.460693,302.903015 565.972595,302.610504 578.571899,324.660095 578.059998,324.952606 "
     style="fill:rgb(0,0,0);fill-opacity:1.000000"
     id="polygon21" />
  <polygon
     points="621.016724,303.151245 605.819580,329.203918 605.481812,328.612793 605.144043,328.021667 619.655151,303.145142 620.335938,303.148193 "
     style="fill:rgb(0,0,0);fill-opacity:1.000000"
     id="polygon22" />
  <polygon
     points="616.760376,303.427032 603.964478,325.363159 603.455200,325.066071 602.945923,324.768982 615.741821,302.832855 616.251099,303.129944 "
     style="fill:rgb(0,0,0);fill-opacity:1.000000"
     id="polygon23" />
  <path
     d="M605.709961 262.811737 C 601.709961 262.811737,598.709961 269.811737,605.709961 277.551880 M605.709961 262.811737 C 609.709961 262.811737,612.709961 269.811737,605.709961 277.551880"
     fill="url(#gradient1)"
     id="path23" />
  <path
     d="M605.709961 291.551880 C 609.709961 291.551880,612.709961 284.551880,605.709961 277.551880 M605.709961 291.551880 C 601.709961 291.551880,598.709961 284.551880,605.709961 277.551880"
     style="fill:rgb(255,255,255);fill-opacity:1.000000;stroke-width:1.179213;stroke:rgb(0,0,0);"
     stroke-linecap="round"
     id="path24" />
  <path
     d="M620.278748 317.888336 C 624.278748 317.903870,627.305847 310.915558,620.335938 303.148193 M620.278748 317.888336 C 616.278748 317.872803,613.305969 310.861237,620.335938 303.148193"
     fill="url(#gradient2)"
     id="path25" />
  <path
     d="M620.390259 289.148285 C 616.390259 289.132751,613.363159 296.121094,620.335938 303.148193 M620.390259 289.148285 C 624.390259 289.163818,627.363037 296.175415,620.335938 303.148193"
     style="fill:rgb(255,255,255);fill-opacity:1.000000;stroke-width:1.179213;stroke:rgb(0,0,0);"
     stroke-linecap="round"
     id="path26" />
  <path
     d="M605.393127 343.352600 C 609.393066 343.376678,612.435120 336.394836,605.481812 328.612793 M605.393127 343.352600 C 601.393188 343.328522,598.435364 336.310608,605.481812 328.612793"
     fill="url(#gradient3)"
     id="path27" />
  <path
     d="M605.566040 314.613037 C 601.566101 314.588959,598.524048 321.570801,605.481812 328.612793 M605.566040 314.613037 C 609.565979 314.637115,612.523804 321.655029,605.481812 328.612793"
     style="fill:rgb(255,255,255);fill-opacity:1.000000;stroke-width:1.179213;stroke:rgb(0,0,0);"
     stroke-linecap="round"
     id="path28" />
  <path
     d="M575.879456 343.220581 C 579.879333 343.253784,582.937317 336.278900,576.001770 328.481049 M575.879456 343.220581 C 571.879578 343.187378,568.937805 336.162750,576.001770 328.481049"
     fill="url(#gradient4)"
     id="path29" />
  <path
     d="M576.117920 314.481537 C 572.118042 314.448364,569.060059 321.423218,576.001770 328.481049 M576.117920 314.481537 C 580.117798 314.514709,583.059631 321.539368,576.001770 328.481049"
     style="fill:rgb(255,255,255);fill-opacity:1.000000;stroke-width:1.179213;stroke:rgb(0,0,0);"
     stroke-linecap="round"
     id="path30" />
  <path
     d="M561.375854 288.144623 C 557.375854 288.144623,554.375854 295.144623,561.375854 302.884766 M561.375854 288.144623 C 565.375854 288.144623,568.375854 295.144623,561.375854 302.884766"
     fill="url(#gradient5)"
     id="path31" />
  <path
     d="M561.375854 316.884766 C 565.375854 316.884766,568.375854 309.884766,561.375854 302.884766 M561.375854 316.884766 C 557.375854 316.884766,554.375854 309.884766,561.375854 302.884766"
     style="fill:rgb(255,255,255);fill-opacity:1.000000;stroke-width:1.179213;stroke:rgb(0,0,0);"
     stroke-linecap="round"
     id="path32" />
  <path
     d="M531.749512 317.492310 C 535.749329 317.531982,538.818604 310.562103,531.895752 302.752899 M531.749512 317.492310 C 527.749695 317.452637,524.819275 310.423218,531.895752 302.752899"
     fill="url(#gradient6)"
     id="path33" />
  <path
     d="M532.034668 288.753601 C 528.034851 288.713898,524.965576 295.683807,531.895752 302.752899 M532.034668 288.753601 C 536.034485 288.793304,538.964844 295.822723,531.895752 302.752899"
     style="fill:rgb(255,255,255);fill-opacity:1.000000;stroke-width:1.179213;stroke:rgb(0,0,0);"
     stroke-linecap="round"
     id="path34" />
  <path
     d="M517.374512 313.481018 C 513.375549 313.390564,510.217987 320.320923,517.041138 328.217316 M517.374512 313.481018 C 521.373474 313.571472,524.214417 320.637512,517.041138 328.217316"
     fill="url(#gradient7)"
     id="path35" />
  <path
     d="M516.724487 342.213745 C 520.723450 342.304230,523.881042 335.373840,517.041138 328.217316 M516.724487 342.213745 C 512.725525 342.123260,509.884583 335.057220,517.041138 328.217316"
     style="fill:rgb(255,255,255);fill-opacity:1.000000;stroke-width:1.179213;stroke:rgb(0,0,0);"
     stroke-linecap="round"
     id="path36" />
  <path
     d="M488.050201 313.353210 C 484.052399 313.220490,480.821808 320.117096,487.561127 328.085144 M488.050201 313.353210 C 492.048004 313.485931,494.814087 320.581604,487.561127 328.085144"
     fill="url(#gradient8)"
     id="path37" />
  <path
     d="M487.096619 342.077423 C 491.094421 342.210144,494.325012 335.313538,487.561127 328.085144 M487.096619 342.077423 C 483.098816 341.944702,480.332733 334.849030,487.561127 328.085144"
     style="fill:rgb(255,255,255);fill-opacity:1.000000;stroke-width:1.179213;stroke:rgb(0,0,0);"
     stroke-linecap="round"
     id="path38" />
  <path
     d="M473.349823 287.754272 C 469.351410 287.641846,466.155884 294.554779,472.935577 302.488617 M473.349823 287.754272 C 477.348236 287.866699,480.150330 294.948212,472.935577 302.488617"
     fill="url(#gradient9)"
     id="path39" />
  <path
     d="M472.542145 316.483093 C 476.540558 316.595490,479.736084 309.682587,472.935577 302.488617 M472.542145 316.483093 C 468.543732 316.370697,465.741638 309.289154,472.935577 302.488617"
     style="fill:rgb(255,255,255);fill-opacity:1.000000;stroke-width:1.179213;stroke:rgb(0,0,0);"
     stroke-linecap="round"
     id="path40" />
  <path
     d="M487.557068 291.762543 C 491.556580 291.825775,494.666840 284.874084,487.790070 277.024261 M487.557068 291.762543 C 483.557556 291.699310,480.668610 284.652771,487.790070 277.024261"
     fill="url(#gradient10)"
     id="path41" />
  <path
     d="M488.011383 263.026001 C 484.011871 262.962769,480.901611 269.914459,487.790070 277.024261 M488.011383 263.026001 C 492.010895 263.089233,494.899841 270.135773,487.790070 277.024261"
     style="fill:rgb(255,255,255);fill-opacity:1.000000;stroke-width:1.179213;stroke:rgb(0,0,0);"
     stroke-linecap="round"
     id="path42" />
  <path
     d="M517.184509 291.896271 C 521.184448 291.919434,524.224915 284.936920,517.269836 277.156311 M517.184509 291.896271 C 513.184570 291.873108,510.225159 284.855865,517.269836 277.156311"
     fill="url(#gradient11)"
     id="path43" />
  <path
     d="M517.350891 263.156555 C 513.350952 263.133392,510.310486 270.115906,517.269836 277.156311 M517.350891 263.156555 C 521.350830 263.179718,524.310242 270.196960,517.269836 277.156311"
     style="fill:rgb(255,255,255);fill-opacity:1.000000;stroke-width:1.179213;stroke:rgb(0,0,0);"
     stroke-linecap="round"
     id="path44" />
  <path
     d="M532.064453 266.431976 C 536.064392 266.448090,539.092590 259.460236,532.123840 251.691971 M532.064453 266.431976 C 528.064514 266.415863,525.092712 259.403809,532.123840 251.691971"
     fill="url(#gradient12)"
     id="path45" />
  <path
     d="M532.180237 237.692078 C 528.180298 237.675964,525.152100 244.663834,532.123840 251.691971 M532.180237 237.692078 C 536.180176 237.708191,539.151978 244.720215,532.123840 251.691971"
     style="fill:rgb(255,255,255);fill-opacity:1.000000;stroke-width:1.179213;stroke:rgb(0,0,0);"
     stroke-linecap="round"
     id="path46" />
  <path
     d="M561.603882 237.083511 C 557.603882 237.083511,554.603882 244.083511,561.603882 251.823669 M561.603882 237.083511 C 565.603882 237.083511,568.603882 244.083511,561.603882 251.823669"
     fill="url(#gradient13)"
     id="path47" />
  <path
     d="M561.603882 265.823669 C 565.603882 265.823669,568.603882 258.823669,561.603882 251.823669 M561.603882 265.823669 C 557.603882 265.823669,554.603882 258.823669,561.603882 251.823669"
     style="fill:rgb(255,255,255);fill-opacity:1.000000;stroke-width:1.179213;stroke:rgb(0,0,0);"
     stroke-linecap="round"
     id="path48" />
  <path
     d="M576.229919 262.680023 C 572.229919 262.680023,569.229919 269.680023,576.229919 277.420166 M576.229919 262.680023 C 580.229919 262.680023,583.229919 269.680023,576.229919 277.420166"
     fill="url(#gradient14)"
     id="path49" />
  <path
     d="M576.229919 291.420166 C 580.229919 291.420166,583.229919 284.420166,576.229919 277.420166 M576.229919 291.420166 C 572.229919 291.420166,569.229919 284.420166,576.229919 277.420166"
     style="fill:rgb(255,255,255);fill-opacity:1.000000;stroke-width:1.179213;stroke:rgb(0,0,0);"
     stroke-linecap="round"
     id="path50" />
  <defs
     id="defs77">
    <radialGradient
       id="gradient1"
       cx="50.000000%"
       cy="50.000000%"
       r="50.000000%"
       fx="50.000000%"
       fy="50.000000%">
      <stop
         style="stop-color:rgb(255,255,255);stop-opacity:1.000000"
         offset="0%"
         id="stop50" />
      <stop
         style="stop-color:rgb(0,0,0);stop-opacity:1.000000"
         offset="100%"
         id="stop51" />
    </radialGradient>
    <radialGradient
       id="gradient2"
       cx="50.000000%"
       cy="50.000000%"
       r="50.000000%"
       fx="50.000000%"
       fy="50.000000%">
      <stop
         style="stop-color:rgb(255,255,255);stop-opacity:1.000000"
         offset="0%"
         id="stop52" />
      <stop
         style="stop-color:rgb(0,0,0);stop-opacity:1.000000"
         offset="100%"
         id="stop53" />
    </radialGradient>
    <radialGradient
       id="gradient3"
       cx="50.000000%"
       cy="50.000000%"
       r="50.000000%"
       fx="50.000000%"
       fy="50.000000%">
      <stop
         style="stop-color:rgb(255,255,255);stop-opacity:1.000000"
         offset="0%"
         id="stop54" />
      <stop
         style="stop-color:rgb(0,0,0);stop-opacity:1.000000"
         offset="100%"
         id="stop55" />
    </radialGradient>
    <radialGradient
       id="gradient4"
       cx="50.000000%"
       cy="50.000000%"
       r="50.000000%"
       fx="50.000000%"
       fy="50.000000%">
      <stop
         style="stop-color:rgb(255,255,255);stop-opacity:1.000000"
         offset="0%"
         id="stop56" />
      <stop
         style="stop-color:rgb(0,0,0);stop-opacity:1.000000"
         offset="100%"
         id="stop57" />
    </radialGradient>
    <radialGradient
       id="gradient5"
       cx="50.000000%"
       cy="50.000000%"
       r="50.000000%"
       fx="50.000000%"
       fy="50.000000%">
      <stop
         style="stop-color:rgb(255,255,255);stop-opacity:1.000000"
         offset="0%"
         id="stop58" />
      <stop
         style="stop-color:rgb(0,0,0);stop-opacity:1.000000"
         offset="100%"
         id="stop59" />
    </radialGradient>
    <radialGradient
       id="gradient6"
       cx="50.000000%"
       cy="50.000000%"
       r="50.000000%"
       fx="50.000000%"
       fy="50.000000%">
      <stop
         style="stop-color:rgb(255,255,255);stop-opacity:1.000000"
         offset="0%"
         id="stop60" />
      <stop
         style="stop-color:rgb(0,0,0);stop-opacity:1.000000"
         offset="100%"
         id="stop61" />
    </radialGradient>
    <radialGradient
       id="gradient7"
       cx="50.000000%"
       cy="50.000000%"
       r="50.000000%"
       fx="50.000000%"
       fy="50.000000%">
      <stop
         style="stop-color:rgb(255,255,255);stop-opacity:1.000000"
         offset="0%"
         id="stop62" />
      <stop
         style="stop-color:rgb(0,0,0);stop-opacity:1.000000"
         offset="100%"
         id="stop63" />
    </radialGradient>
    <radialGradient
       id="gradient8"
       cx="50.000000%"
       cy="50.000000%"
       r="50.000000%"
       fx="50.000000%"
       fy="50.000000%">
      <stop
         style="stop-color:rgb(255,255,255);stop-opacity:1.000000"
         offset="0%"
         id="stop64" />
      <stop
         style="stop-color:rgb(0,0,0);stop-opacity:1.000000"
         offset="100%"
         id="stop65" />
    </radialGradient>
    <radialGradient
       id="gradient9"
       cx="50.000000%"
       cy="50.000000%"
       r="50.000000%"
       fx="50.000000%"
       fy="50.000000%">
      <stop
         style="stop-color:rgb(255,255,255);stop-opacity:1.000000"
         offset="0%"
         id="stop66" />
      <stop
         style="stop-color:rgb(0,0,0);stop-opacity:1.000000"
         offset="100%"
         id="stop67" />
    </radialGradient>
    <radialGradient
       id="gradient10"
       cx="50.000000%"
       cy="50.000000%"
       r="50.000000%"
       fx="50.000000%"
       fy="50.000000%">
      <stop
         style="stop-color:rgb(255,255,255);stop-opacity:1.000000"
         offset="0%"
         id="stop68" />
      <stop
         style="stop-color:rgb(0,0,0);stop-opacity:1.000000"
         offset="100%"
         id="stop69" />
    </radialGradient>
    <radialGradient
       id="gradient11"
       cx="50.000000%"
       cy="50.000000%"
       r="50.000000%"
       fx="50.000000%"
       fy="50.000000%">
      <stop
         style="stop-color:rgb(255,255,255);stop-opacity:1.000000"
         offset="0%"
         id="stop70" />
      <stop
         style="stop-color:rgb(0,0,0);stop-opacity:1.000000"
         offset="100%"
         id="stop71" />
    </radialGradient>
    <radialGradient
       id="gradient12"
       cx="50.000000%"
       cy="50.000000%"
       r="50.000000%"
       fx="50.000000%"
       fy="50.000000%">
      <stop
         style="stop-color:rgb(255,255,255);stop-opacity:1.000000"
         offset="0%"
         id="stop72" />
      <stop
         style="stop-color:rgb(0,0,0);stop-opacity:1.000000"
         offset="100%"
         id="stop73" />
    </radialGradient>
    <radialGradient
       id="gradient13"
       cx="50.000000%"
       cy="50.000000%"
       r="50.000000%"
       fx="50.000000%"
       fy="50.000000%">
      <stop
         style="stop-color:rgb(255,255,255);stop-opacity:1.000000"
         offset="0%"
         id="stop74" />
      <stop
         style="stop-color:rgb(0,0,0);stop-opacity:1.000000"
         offset="100%"
         id="stop75" />
    </radialGradient>
    <radialGradient
       id="gradient14"
       cx="50.000000%"
       cy="50.000000%"
       r="50.000000%"
       fx="50.000000%"
       fy="50.000000%">
      <stop
         style="stop-color:rgb(255,255,255);stop-opacity:1.000000"
         offset="0%"
         id="stop76" />
      <stop
         style="stop-color:rgb(0,0,0);stop-opacity:1.000000"
         offset="100%"
         id="stop77" />
    </radialGradient>
  </defs>
</svg>
