<?xml version="1.0" standalone='no'?><!-- IBoard SVG File --><svg xmlns="http://www.w3.org/2000/svg" xmlns:xlink="http://www.w3.org/1999/xlink" viewBox="462.86 231.41 170.40 127.21" height="120.21" width="177.40" version="1.1"><!-- SVG File --><polygon points="531.214966,302.749847 516.926819,277.744385 517.269836,277.156311 517.950623,277.159363 532.238770,302.164825 531.895752,302.752899 " style="fill:rgb(0,0,0);fill-opacity:1.000000"/><polygon points="576.567688,278.011292 562.056641,302.887817 561.375854,302.884766 561.038086,302.293640 575.549133,277.417114 576.229919,277.420166 " style="fill:rgb(0,0,0);fill-opacity:1.000000"/><polygon points="516.932068,276.565186 531.786072,251.100845 532.123840,251.691971 532.461609,252.283096 517.950623,277.159363 517.269836,277.156311 " style="fill:rgb(0,0,0);fill-opacity:1.000000"/><polygon points="561.946899,251.235596 576.572937,276.832092 576.229919,277.420166 575.549133,277.417114 561.260864,252.411743 561.603882,251.823669 " style="fill:rgb(0,0,0);fill-opacity:1.000000"/><polygon points="561.032837,303.472839 532.233521,303.344025 531.895752,302.752899 532.238770,302.164825 561.038086,302.293640 561.375854,302.884766 " style="fill:rgb(0,0,0);fill-opacity:1.000000"/><polygon points="606.052979,276.963806 621.016724,303.151245 620.335938,303.148193 619.655151,303.145142 605.366943,278.139954 605.709961,277.551880 " style="fill:rgb(0,0,0);fill-opacity:1.000000"/><polygon points="605.819580,329.203918 575.658752,329.069122 576.001770,328.481049 576.344788,327.892975 605.144043,328.021667 605.481812,328.612793 " style="fill:rgb(0,0,0);fill-opacity:1.000000"/><polygon points="517.378906,328.808441 487.218079,328.673218 487.561127,328.085144 487.904175,327.497070 516.703369,327.626190 517.041138,328.217316 " style="fill:rgb(0,0,0);fill-opacity:1.000000"/><polygon points="472.254761,302.485565 487.452332,276.433136 487.790070,277.024261 488.127838,277.615387 473.616394,302.491669 472.935577,302.488617 " style="fill:rgb(0,0,0);fill-opacity:1.000000"/><polygon points="487.452332,276.433136 516.932068,276.565186 517.269836,277.156311 516.926819,277.744385 488.127838,277.615387 487.790070,277.024261 " style="fill:rgb(0,0,0);fill-opacity:1.000000"/><polygon points="489.819305,279.981415 515.214172,280.095154 515.211548,280.684753 515.208923,281.274353 489.813995,281.160614 489.816650,280.571014 " style="fill:rgb(0,0,0);fill-opacity:1.000000"/><polygon points="487.218079,328.673218 472.254761,302.485565 472.935577,302.488617 473.616394,302.491669 487.904175,327.497070 487.561127,328.085144 " style="fill:rgb(0,0,0);fill-opacity:1.000000"/><polygon points="489.107483,324.849213 476.508514,302.799438 477.020447,302.506927 477.532379,302.214417 490.131348,324.264191 489.619415,324.556702 " style="fill:rgb(0,0,0);fill-opacity:1.000000"/><polygon points="532.233521,303.344025 517.378906,328.808441 517.041138,328.217316 516.703369,327.626190 531.214966,302.749847 531.895752,302.752899 " style="fill:rgb(0,0,0);fill-opacity:1.000000"/><polygon points="528.320129,303.031677 515.523865,324.967651 515.014587,324.670563 514.505310,324.373474 527.301575,302.437500 527.810852,302.734589 " style="fill:rgb(0,0,0);fill-opacity:1.000000"/><polygon points="531.786072,251.100845 561.946899,251.235596 561.603882,251.823669 561.260864,252.411743 532.461609,252.283096 532.123840,251.691971 " style="fill:rgb(0,0,0);fill-opacity:1.000000"/><polygon points="534.153076,254.649094 559.548279,254.762543 559.545654,255.352142 559.543030,255.941742 534.147827,255.828293 534.150452,255.238693 " style="fill:rgb(0,0,0);fill-opacity:1.000000"/><polygon points="576.572937,276.832092 606.052979,276.963806 605.709961,277.551880 605.366943,278.139954 576.567688,278.011292 576.229919,277.420166 " style="fill:rgb(0,0,0);fill-opacity:1.000000"/><polygon points="578.259155,280.377289 603.654358,280.490753 603.651733,281.080353 603.649109,281.669952 578.253906,281.556488 578.256531,280.966888 " style="fill:rgb(0,0,0);fill-opacity:1.000000"/><polygon points="575.658752,329.069122 561.032837,303.472839 561.375854,302.884766 562.056641,302.887817 576.344788,327.892975 576.001770,328.481049 " style="fill:rgb(0,0,0);fill-opacity:1.000000"/><polygon points="577.548096,325.245117 564.948792,303.195526 565.460693,302.903015 565.972595,302.610504 578.571899,324.660095 578.059998,324.952606 " style="fill:rgb(0,0,0);fill-opacity:1.000000"/><polygon points="621.016724,303.151245 605.819580,329.203918 605.481812,328.612793 605.144043,328.021667 619.655151,303.145142 620.335938,303.148193 " style="fill:rgb(0,0,0);fill-opacity:1.000000"/><polygon points="616.760376,303.427032 603.964478,325.363159 603.455200,325.066071 602.945923,324.768982 615.741821,302.832855 616.251099,303.129944 " style="fill:rgb(0,0,0);fill-opacity:1.000000"/><path d="M605.709961 262.811737 C 601.709961 262.811737,598.709961 269.811737,605.709961 277.551880 M605.709961 262.811737 C 609.709961 262.811737,612.709961 269.811737,605.709961 277.551880" fill="url(#gradient1)"/><path d="M605.709961 291.551880 C 609.709961 291.551880,612.709961 284.551880,605.709961 277.551880 M605.709961 291.551880 C 601.709961 291.551880,598.709961 284.551880,605.709961 277.551880" style="fill:rgb(255,255,255);fill-opacity:1.000000;stroke-width:1.179213;stroke:rgb(0,0,0);" stroke-linecap="round"/><path d="M620.247925 317.888245 C 624.247864 317.912140,627.289612 310.930176,620.335938 303.148193 M620.247925 317.888245 C 616.247986 317.864349,613.289856 310.846558,620.335938 303.148193" fill="url(#gradient2)"/><path d="M620.419556 289.148438 C 616.419617 289.124542,613.377869 296.106506,620.335938 303.148193 M620.419556 289.148438 C 624.419495 289.172333,627.377625 296.190125,620.335938 303.148193" style="fill:rgb(255,255,255);fill-opacity:1.000000;stroke-width:1.179213;stroke:rgb(0,0,0);" stroke-linecap="round"/><path d="M605.707275 313.874420 C 601.707764 313.813232,598.601013 320.766510,605.481812 328.612793 M605.707275 313.874420 C 609.706787 313.935608,612.599426 320.980652,605.481812 328.612793" fill="url(#gradient3)"/><path d="M605.267639 342.611145 C 609.267151 342.672333,612.373901 335.719055,605.481812 328.612793 M605.267639 342.611145 C 601.268127 342.549957,598.375549 335.504883,605.481812 328.612793" style="fill:rgb(255,255,255);fill-opacity:1.000000;stroke-width:1.179213;stroke:rgb(0,0,0);" stroke-linecap="round"/><path d="M576.001770 313.740906 C 572.001770 313.740906,569.001770 320.740906,576.001770 328.481049 M576.001770 313.740906 C 580.001770 313.740906,583.001770 320.740906,576.001770 328.481049" fill="url(#gradient4)"/><path d="M576.001770 342.481049 C 580.001770 342.481049,583.001770 335.481049,576.001770 328.481049 M576.001770 342.481049 C 572.001770 342.481049,569.001770 335.481049,576.001770 328.481049" style="fill:rgb(255,255,255);fill-opacity:1.000000;stroke-width:1.179213;stroke:rgb(0,0,0);" stroke-linecap="round"/><path d="M561.330383 317.624847 C 565.330383 317.637177,568.351929 310.646484,561.375854 302.884766 M561.330383 317.624847 C 557.330383 317.612518,554.352051 310.603271,561.375854 302.884766" fill="url(#gradient5)"/><path d="M561.419067 288.884827 C 557.419067 288.872467,554.397461 295.863159,561.375854 302.884766 M561.419067 288.884827 C 565.419067 288.897186,568.397461 295.906403,561.375854 302.884766" style="fill:rgb(255,255,255);fill-opacity:1.000000;stroke-width:1.179213;stroke:rgb(0,0,0);" stroke-linecap="round"/><path d="M532.257019 288.017090 C 528.258240 287.919067,525.087585 294.843445,531.895752 302.752899 M532.257019 288.017090 C 536.255798 288.115112,539.083374 295.186554,531.895752 302.752899" fill="url(#gradient6)"/><path d="M531.552612 316.748688 C 535.551392 316.846741,538.722107 309.922363,531.895752 302.752899 M531.552612 316.748688 C 527.553833 316.650635,524.726257 309.579224,531.895752 302.752899" style="fill:rgb(255,255,255);fill-opacity:1.000000;stroke-width:1.179213;stroke:rgb(0,0,0);" stroke-linecap="round"/><path d="M516.860413 342.956390 C 520.860107 343.005432,523.945740 336.042755,517.041138 328.217316 M516.860413 342.956390 C 512.860718 342.907349,509.946777 335.871094,517.041138 328.217316" fill="url(#gradient7)"/><path d="M517.212769 314.218353 C 513.213074 314.169312,510.127472 321.132019,517.041138 328.217316 M517.212769 314.218353 C 521.212463 314.267395,524.126404 321.303650,517.041138 328.217316" style="fill:rgb(255,255,255);fill-opacity:1.000000;stroke-width:1.179213;stroke:rgb(0,0,0);" stroke-linecap="round"/><path d="M486.907104 342.810547 C 490.903168 342.988037,494.210815 336.128021,487.561127 328.085144 M486.907104 342.810547 C 482.911041 342.633057,480.224579 335.506836,487.561127 328.085144" fill="url(#gradient8)"/><path d="M488.182312 314.098938 C 484.186249 313.921448,480.878601 320.781464,487.561127 328.085144 M488.182312 314.098938 C 492.178375 314.276428,494.864838 321.402649,487.561127 328.085144" style="fill:rgb(255,255,255);fill-opacity:1.000000;stroke-width:1.179213;stroke:rgb(0,0,0);" stroke-linecap="round"/><path d="M473.291473 287.752563 C 469.292633 287.655975,466.124512 294.581512,472.935577 302.488617 M473.291473 287.752563 C 477.290314 287.849152,480.120422 294.919525,472.935577 302.488617" fill="url(#gradient9)"/><path d="M472.597565 316.484528 C 476.596405 316.581116,479.764526 309.655579,472.935577 302.488617 M472.597565 316.484528 C 468.598724 316.387939,465.768616 309.317566,472.935577 302.488617" style="fill:rgb(255,255,255);fill-opacity:1.000000;stroke-width:1.179213;stroke:rgb(0,0,0);" stroke-linecap="round"/><path d="M487.557068 291.762543 C 491.556580 291.825775,494.666840 284.874084,487.790070 277.024261 M487.557068 291.762543 C 483.557556 291.699310,480.668610 284.652771,487.790070 277.024261" fill="url(#gradient10)"/><path d="M488.011383 263.026001 C 484.011871 262.962769,480.901611 269.914459,487.790070 277.024261 M488.011383 263.026001 C 492.010895 263.089233,494.899841 270.135773,487.790070 277.024261" style="fill:rgb(255,255,255);fill-opacity:1.000000;stroke-width:1.179213;stroke:rgb(0,0,0);" stroke-linecap="round"/><path d="M517.539734 262.418732 C 513.540405 262.345490,510.412720 269.289368,517.269836 277.156311 M517.539734 262.418732 C 521.539063 262.491974,524.410339 269.545746,517.269836 277.156311" fill="url(#gradient11)"/><path d="M517.013489 291.153961 C 521.012817 291.227203,524.140503 284.283325,517.269836 277.156311 M517.013489 291.153961 C 513.014160 291.080719,510.142853 284.026947,517.269836 277.156311" style="fill:rgb(255,255,255);fill-opacity:1.000000;stroke-width:1.179213;stroke:rgb(0,0,0);" stroke-linecap="round"/><path d="M532.064453 266.431976 C 536.064392 266.448090,539.092590 259.460236,532.123840 251.691971 M532.064453 266.431976 C 528.064514 266.415863,525.092712 259.403809,532.123840 251.691971" fill="url(#gradient12)"/><path d="M532.180237 237.692078 C 528.180298 237.675964,525.152100 244.663834,532.123840 251.691971 M532.180237 237.692078 C 536.180176 237.708191,539.151978 244.720215,532.123840 251.691971" style="fill:rgb(255,255,255);fill-opacity:1.000000;stroke-width:1.179213;stroke:rgb(0,0,0);" stroke-linecap="round"/><path d="M561.603882 237.083511 C 557.603882 237.083511,554.603882 244.083511,561.603882 251.823669 M561.603882 237.083511 C 565.603882 237.083511,568.603882 244.083511,561.603882 251.823669" fill="url(#gradient13)"/><path d="M561.603882 265.823669 C 565.603882 265.823669,568.603882 258.823669,561.603882 251.823669 M561.603882 265.823669 C 557.603882 265.823669,554.603882 258.823669,561.603882 251.823669" style="fill:rgb(255,255,255);fill-opacity:1.000000;stroke-width:1.179213;stroke:rgb(0,0,0);" stroke-linecap="round"/><path d="M576.219849 292.160217 C 580.219849 292.162964,583.224609 285.165009,576.229919 277.420166 M576.219849 292.160217 C 572.219849 292.157471,569.224609 285.155426,576.229919 277.420166" fill="url(#gradient14)"/><path d="M576.239502 263.420166 C 572.239502 263.417419,569.234741 270.415375,576.229919 277.420166 M576.239502 263.420166 C 580.239502 263.422913,583.234680 270.424957,576.229919 277.420166" style="fill:rgb(255,255,255);fill-opacity:1.000000;stroke-width:1.179213;stroke:rgb(0,0,0);" stroke-linecap="round"/><defs><radialGradient id="gradient1" cx="50.000000%" cy="50.000000%" r="50.000000%" fx="50.000000%" fy="50.000000%"><stop style="stop-color:rgb(255,255,255);stop-opacity:1.000000" offset="0%"/><stop style="stop-color:rgb(0,0,0);stop-opacity:1.000000" offset="100%"/></radialGradient><radialGradient id="gradient2" cx="50.000000%" cy="50.000000%" r="50.000000%" fx="50.000000%" fy="50.000000%"><stop style="stop-color:rgb(255,255,255);stop-opacity:1.000000" offset="0%"/><stop style="stop-color:rgb(0,0,0);stop-opacity:1.000000" offset="100%"/></radialGradient><radialGradient id="gradient3" cx="50.000000%" cy="50.000000%" r="50.000000%" fx="50.000000%" fy="50.000000%"><stop style="stop-color:rgb(255,255,255);stop-opacity:1.000000" offset="0%"/><stop style="stop-color:rgb(0,0,0);stop-opacity:1.000000" offset="100%"/></radialGradient><radialGradient id="gradient4" cx="50.000000%" cy="50.000000%" r="50.000000%" fx="50.000000%" fy="50.000000%"><stop style="stop-color:rgb(255,255,255);stop-opacity:1.000000" offset="0%"/><stop style="stop-color:rgb(0,0,0);stop-opacity:1.000000" offset="100%"/></radialGradient><radialGradient id="gradient5" cx="50.000000%" cy="50.000000%" r="50.000000%" fx="50.000000%" fy="50.000000%"><stop style="stop-color:rgb(255,255,255);stop-opacity:1.000000" offset="0%"/><stop style="stop-color:rgb(0,0,0);stop-opacity:1.000000" offset="100%"/></radialGradient><radialGradient id="gradient6" cx="50.000000%" cy="50.000000%" r="50.000000%" fx="50.000000%" fy="50.000000%"><stop style="stop-color:rgb(255,255,255);stop-opacity:1.000000" offset="0%"/><stop style="stop-color:rgb(0,0,0);stop-opacity:1.000000" offset="100%"/></radialGradient><radialGradient id="gradient7" cx="50.000000%" cy="50.000000%" r="50.000000%" fx="50.000000%" fy="50.000000%"><stop style="stop-color:rgb(255,255,255);stop-opacity:1.000000" offset="0%"/><stop style="stop-color:rgb(0,0,0);stop-opacity:1.000000" offset="100%"/></radialGradient><radialGradient id="gradient8" cx="50.000000%" cy="50.000000%" r="50.000000%" fx="50.000000%" fy="50.000000%"><stop style="stop-color:rgb(255,255,255);stop-opacity:1.000000" offset="0%"/><stop style="stop-color:rgb(0,0,0);stop-opacity:1.000000" offset="100%"/></radialGradient><radialGradient id="gradient9" cx="50.000000%" cy="50.000000%" r="50.000000%" fx="50.000000%" fy="50.000000%"><stop style="stop-color:rgb(255,255,255);stop-opacity:1.000000" offset="0%"/><stop style="stop-color:rgb(0,0,0);stop-opacity:1.000000" offset="100%"/></radialGradient><radialGradient id="gradient10" cx="50.000000%" cy="50.000000%" r="50.000000%" fx="50.000000%" fy="50.000000%"><stop style="stop-color:rgb(255,255,255);stop-opacity:1.000000" offset="0%"/><stop style="stop-color:rgb(0,0,0);stop-opacity:1.000000" offset="100%"/></radialGradient><radialGradient id="gradient11" cx="50.000000%" cy="50.000000%" r="50.000000%" fx="50.000000%" fy="50.000000%"><stop style="stop-color:rgb(255,255,255);stop-opacity:1.000000" offset="0%"/><stop style="stop-color:rgb(0,0,0);stop-opacity:1.000000" offset="100%"/></radialGradient><radialGradient id="gradient12" cx="50.000000%" cy="50.000000%" r="50.000000%" fx="50.000000%" fy="50.000000%"><stop style="stop-color:rgb(255,255,255);stop-opacity:1.000000" offset="0%"/><stop style="stop-color:rgb(0,0,0);stop-opacity:1.000000" offset="100%"/></radialGradient><radialGradient id="gradient13" cx="50.000000%" cy="50.000000%" r="50.000000%" fx="50.000000%" fy="50.000000%"><stop style="stop-color:rgb(255,255,255);stop-opacity:1.000000" offset="0%"/><stop style="stop-color:rgb(0,0,0);stop-opacity:1.000000" offset="100%"/></radialGradient><radialGradient id="gradient14" cx="50.000000%" cy="50.000000%" r="50.000000%" fx="50.000000%" fy="50.000000%"><stop style="stop-color:rgb(255,255,255);stop-opacity:1.000000" offset="0%"/><stop style="stop-color:rgb(0,0,0);stop-opacity:1.000000" offset="100%"/></radialGradient></defs></svg>