<?xml version="1.0" encoding="UTF-8" standalone="no"?>
<!-- IBoard SVG File -->

<svg
   viewBox="462.92 231.41 170.37 127.48"
   height="120.48"
   width="177.37"
   version="1.1"
   id="svg77"
   sodipodi:docname="7.svg"
   inkscape:export-filename="7.png"
   inkscape:export-xdpi="300"
   inkscape:export-ydpi="300"
   inkscape:version="1.3.2 (1:1.3.2+202311252150+091e20ef0f)"
   xmlns:inkscape="http://www.inkscape.org/namespaces/inkscape"
   xmlns:sodipodi="http://sodipodi.sourceforge.net/DTD/sodipodi-0.dtd"
   xmlns="http://www.w3.org/2000/svg"
   xmlns:svg="http://www.w3.org/2000/svg">
  <sodipodi:namedview
     id="namedview77"
     pagecolor="#ffffff"
     bordercolor="#000000"
     borderopacity="0.25"
     inkscape:showpageshadow="2"
     inkscape:pageopacity="0.0"
     inkscape:pagecheckerboard="0"
     inkscape:deskcolor="#d1d1d1"
     inkscape:zoom="4.7020354"
     inkscape:cx="88.684998"
     inkscape:cy="60.186701"
     inkscape:window-width="1466"
     inkscape:window-height="896"
     inkscape:window-x="70"
     inkscape:window-y="27"
     inkscape:window-maximized="1"
     inkscape:current-layer="svg77" />
  <!-- SVG File -->
  <polygon
     points="531.214966,302.749847 516.926819,277.744385 517.269836,277.156311 517.950623,277.159363 532.238770,302.164825 531.895752,302.752899 "
     style="fill:rgb(0,0,0);fill-opacity:1.000000"
     id="polygon1" />
  <polygon
     points="576.567688,278.011292 562.056641,302.887817 561.375854,302.884766 561.038086,302.293640 575.549133,277.417114 576.229919,277.420166 "
     style="fill:rgb(0,0,0);fill-opacity:1.000000"
     id="polygon2" />
  <polygon
     points="516.932068,276.565186 531.786072,251.100845 532.123840,251.691971 532.461609,252.283096 517.950623,277.159363 517.269836,277.156311 "
     style="fill:rgb(0,0,0);fill-opacity:1.000000"
     id="polygon3" />
  <polygon
     points="561.946899,251.235596 576.572937,276.832092 576.229919,277.420166 575.549133,277.417114 561.260864,252.411743 561.603882,251.823669 "
     style="fill:rgb(0,0,0);fill-opacity:1.000000"
     id="polygon4" />
  <polygon
     points="561.032837,303.472839 532.233521,303.344025 531.895752,302.752899 532.238770,302.164825 561.038086,302.293640 561.375854,302.884766 "
     style="fill:rgb(0,0,0);fill-opacity:1.000000"
     id="polygon5" />
  <polygon
     points="606.052979,276.963806 621.016724,303.151245 620.335938,303.148193 619.655151,303.145142 605.366943,278.139954 605.709961,277.551880 "
     style="fill:rgb(0,0,0);fill-opacity:1.000000"
     id="polygon6" />
  <polygon
     points="605.819580,329.203918 575.658752,329.069122 576.001770,328.481049 576.344788,327.892975 605.144043,328.021667 605.481812,328.612793 "
     style="fill:rgb(0,0,0);fill-opacity:1.000000"
     id="polygon7" />
  <polygon
     points="517.378906,328.808441 487.218079,328.673218 487.561127,328.085144 487.904175,327.497070 516.703369,327.626190 517.041138,328.217316 "
     style="fill:rgb(0,0,0);fill-opacity:1.000000"
     id="polygon8" />
  <polygon
     points="472.254761,302.485565 487.452332,276.433136 487.790070,277.024261 488.127838,277.615387 473.616394,302.491669 472.935577,302.488617 "
     style="fill:rgb(0,0,0);fill-opacity:1.000000"
     id="polygon9" />
  <polygon
     points="487.452332,276.433136 516.932068,276.565186 517.269836,277.156311 516.926819,277.744385 488.127838,277.615387 487.790070,277.024261 "
     style="fill:rgb(0,0,0);fill-opacity:1.000000"
     id="polygon10" />
  <polygon
     points="489.819305,279.981415 515.214172,280.095154 515.211548,280.684753 515.208923,281.274353 489.813995,281.160614 489.816650,280.571014 "
     style="fill:rgb(0,0,0);fill-opacity:1.000000"
     id="polygon11" />
  <polygon
     points="487.218079,328.673218 472.254761,302.485565 472.935577,302.488617 473.616394,302.491669 487.904175,327.497070 487.561127,328.085144 "
     style="fill:rgb(0,0,0);fill-opacity:1.000000"
     id="polygon12" />
  <polygon
     points="489.107483,324.849213 476.508514,302.799438 477.020447,302.506927 477.532379,302.214417 490.131348,324.264191 489.619415,324.556702 "
     style="fill:rgb(0,0,0);fill-opacity:1.000000"
     id="polygon13" />
  <polygon
     points="532.233521,303.344025 517.378906,328.808441 517.041138,328.217316 516.703369,327.626190 531.214966,302.749847 531.895752,302.752899 "
     style="fill:rgb(0,0,0);fill-opacity:1.000000"
     id="polygon14" />
  <polygon
     points="528.320129,303.031677 515.523865,324.967651 515.014587,324.670563 514.505310,324.373474 527.301575,302.437500 527.810852,302.734589 "
     style="fill:rgb(0,0,0);fill-opacity:1.000000"
     id="polygon15" />
  <polygon
     points="531.786072,251.100845 561.946899,251.235596 561.603882,251.823669 561.260864,252.411743 532.461609,252.283096 532.123840,251.691971 "
     style="fill:rgb(0,0,0);fill-opacity:1.000000"
     id="polygon16" />
  <polygon
     points="534.153076,254.649094 559.548279,254.762543 559.545654,255.352142 559.543030,255.941742 534.147827,255.828293 534.150452,255.238693 "
     style="fill:rgb(0,0,0);fill-opacity:1.000000"
     id="polygon17" />
  <polygon
     points="576.572937,276.832092 606.052979,276.963806 605.709961,277.551880 605.366943,278.139954 576.567688,278.011292 576.229919,277.420166 "
     style="fill:rgb(0,0,0);fill-opacity:1.000000"
     id="polygon18" />
  <polygon
     points="578.259155,280.377289 603.654358,280.490753 603.651733,281.080353 603.649109,281.669952 578.253906,281.556488 578.256531,280.966888 "
     style="fill:rgb(0,0,0);fill-opacity:1.000000"
     id="polygon19" />
  <polygon
     points="575.658752,329.069122 561.032837,303.472839 561.375854,302.884766 562.056641,302.887817 576.344788,327.892975 576.001770,328.481049 "
     style="fill:rgb(0,0,0);fill-opacity:1.000000"
     id="polygon20" />
  <polygon
     points="577.548096,325.245117 564.948792,303.195526 565.460693,302.903015 565.972595,302.610504 578.571899,324.660095 578.059998,324.952606 "
     style="fill:rgb(0,0,0);fill-opacity:1.000000"
     id="polygon21" />
  <polygon
     points="621.016724,303.151245 605.819580,329.203918 605.481812,328.612793 605.144043,328.021667 619.655151,303.145142 620.335938,303.148193 "
     style="fill:rgb(0,0,0);fill-opacity:1.000000"
     id="polygon22" />
  <polygon
     points="616.760376,303.427032 603.964478,325.363159 603.455200,325.066071 602.945923,324.768982 615.741821,302.832855 616.251099,303.129944 "
     style="fill:rgb(0,0,0);fill-opacity:1.000000"
     id="polygon23" />
  <path
     d="M605.709961 262.811737 C 601.709961 262.811737,598.709961 269.811737,605.709961 277.551880 M605.709961 262.811737 C 609.709961 262.811737,612.709961 269.811737,605.709961 277.551880"
     fill="url(#gradient1)"
     id="path23" />
  <path
     d="M605.709961 291.551880 C 609.709961 291.551880,612.709961 284.551880,605.709961 277.551880 M605.709961 291.551880 C 601.709961 291.551880,598.709961 284.551880,605.709961 277.551880"
     style="fill:rgb(255,255,255);fill-opacity:1.000000;stroke-width:1.179213;stroke:rgb(0,0,0);"
     stroke-linecap="round"
     id="path24" />
  <path
     d="M620.184082 317.887604 C 624.183899 317.928802,627.255859 310.960114,620.335938 303.148193 M620.184082 317.887604 C 616.184265 317.846405,613.256531 310.815857,620.335938 303.148193"
     fill="url(#gradient2)"
     id="path25" />
  <path
     d="M620.480164 289.148926 C 616.480347 289.107727,613.408447 296.076447,620.335938 303.148193 M620.480164 289.148926 C 624.479980 289.190125,627.407654 296.220673,620.335938 303.148193"
     style="fill:rgb(255,255,255);fill-opacity:1.000000;stroke-width:1.179213;stroke:rgb(0,0,0);"
     stroke-linecap="round"
     id="path26" />
  <path
     d="M605.481812 313.872650 C 601.481812 313.872650,598.481812 320.872650,605.481812 328.612793 M605.481812 313.872650 C 609.481812 313.872650,612.481812 320.872650,605.481812 328.612793"
     fill="url(#gradient3)"
     id="path27" />
  <path
     d="M605.481812 342.612793 C 609.481812 342.612793,612.481812 335.612793,605.481812 328.612793 M605.481812 342.612793 C 601.481812 342.612793,598.481812 335.612793,605.481812 328.612793"
     style="fill:rgb(255,255,255);fill-opacity:1.000000;stroke-width:1.179213;stroke:rgb(0,0,0);"
     stroke-linecap="round"
     id="path28" />
  <path
     d="M575.868286 343.220520 C 579.868103 343.256744,582.931396 336.284180,576.001770 328.481049 M575.868286 343.220520 C 571.868469 343.184296,568.931946 336.157410,576.001770 328.481049"
     fill="url(#gradient4)"
     id="path29" />
  <path
     d="M576.128540 314.481628 C 572.128723 314.445404,569.065430 321.417938,576.001770 328.481049 M576.128540 314.481628 C 580.128357 314.517853,583.064880 321.544708,576.001770 328.481049"
     style="fill:rgb(255,255,255);fill-opacity:1.000000;stroke-width:1.179213;stroke:rgb(0,0,0);"
     stroke-linecap="round"
     id="path30" />
  <path
     d="M561.375854 288.144623 C 557.375854 288.144623,554.375854 295.144623,561.375854 302.884766 M561.375854 288.144623 C 565.375854 288.144623,568.375854 295.144623,561.375854 302.884766"
     fill="url(#gradient5)"
     id="path31" />
  <path
     d="M561.375854 316.884766 C 565.375854 316.884766,568.375854 309.884766,561.375854 302.884766 M561.375854 316.884766 C 557.375854 316.884766,554.375854 309.884766,561.375854 302.884766"
     style="fill:rgb(255,255,255);fill-opacity:1.000000;stroke-width:1.179213;stroke:rgb(0,0,0);"
     stroke-linecap="round"
     id="path32" />
  <path
     d="M531.749512 317.492310 C 535.749329 317.531982,538.818604 310.562103,531.895752 302.752899 M531.749512 317.492310 C 527.749695 317.452637,524.819275 310.423218,531.895752 302.752899"
     fill="url(#gradient6)"
     id="path33" />
  <path
     d="M532.034668 288.753601 C 528.034851 288.713898,524.965576 295.683807,531.895752 302.752899 M532.034668 288.753601 C 536.034485 288.793304,538.964844 295.822723,531.895752 302.752899"
     style="fill:rgb(255,255,255);fill-opacity:1.000000;stroke-width:1.179213;stroke:rgb(0,0,0);"
     stroke-linecap="round"
     id="path34" />
  <path
     d="M517.252075 313.478546 C 513.252502 313.421295,510.152618 320.377655,517.041138 328.217316 M517.252075 313.478546 C 521.251648 313.535797,524.151184 320.578003,517.041138 328.217316"
     fill="url(#gradient7)"
     id="path35" />
  <path
     d="M516.840820 342.215881 C 520.840393 342.273102,523.940247 335.316772,517.041138 328.217316 M516.840820 342.215881 C 512.841248 342.158661,509.941711 335.116425,517.041138 328.217316"
     style="fill:rgb(255,255,255);fill-opacity:1.000000;stroke-width:1.179213;stroke:rgb(0,0,0);"
     stroke-linecap="round"
     id="path36" />
  <path
     d="M487.308716 342.823029 C 491.308136 342.891510,494.427551 335.943909,487.561127 328.085144 M487.308716 342.823029 C 483.309296 342.754547,480.429596 335.704193,487.561127 328.085144"
     fill="url(#gradient8)"
     id="path37" />
  <path
     d="M487.800873 314.087189 C 483.801453 314.018677,480.682037 320.966278,487.561127 328.085144 M487.800873 314.087189 C 491.800293 314.155701,494.679962 321.206024,487.561127 328.085144"
     style="fill:rgb(255,255,255);fill-opacity:1.000000;stroke-width:1.179213;stroke:rgb(0,0,0);"
     stroke-linecap="round"
     id="path38" />
  <path
     d="M473.181641 287.750305 C 469.182190 287.683533,466.065765 294.632477,472.935577 302.488617 M473.181641 287.750305 C 477.181091 287.817078,480.063812 294.866180,472.935577 302.488617"
     fill="url(#gradient9)"
     id="path39" />
  <path
     d="M472.701874 316.486664 C 476.701324 316.553436,479.817749 309.604492,472.935577 302.488617 M472.701874 316.486664 C 468.702423 316.419891,465.819702 309.370789,472.935577 302.488617"
     style="fill:rgb(255,255,255);fill-opacity:1.000000;stroke-width:1.179213;stroke:rgb(0,0,0);"
     stroke-linecap="round"
     id="path40" />
  <path
     d="M487.557068 291.762543 C 491.556580 291.825775,494.666840 284.874084,487.790070 277.024261 M487.557068 291.762543 C 483.557556 291.699310,480.668610 284.652771,487.790070 277.024261"
     fill="url(#gradient10)"
     id="path41" />
  <path
     d="M488.011383 263.026001 C 484.011871 262.962769,480.901611 269.914459,487.790070 277.024261 M488.011383 263.026001 C 492.010895 263.089233,494.899841 270.135773,487.790070 277.024261"
     style="fill:rgb(255,255,255);fill-opacity:1.000000;stroke-width:1.179213;stroke:rgb(0,0,0);"
     stroke-linecap="round"
     id="path42" />
  <path
     d="M517.572754 262.419189 C 513.573608 262.336975,510.430389 269.273865,517.269836 277.156311 M517.572754 262.419189 C 521.571899 262.501404,524.427429 269.561554,517.269836 277.156311"
     fill="url(#gradient11)"
     id="path43" />
  <path
     d="M516.982117 291.153351 C 520.981262 291.235565,524.124512 284.298676,517.269836 277.156311 M516.982117 291.153351 C 512.982971 291.071136,510.127441 284.010986,517.269836 277.156311"
     style="fill:rgb(255,255,255);fill-opacity:1.000000;stroke-width:1.179213;stroke:rgb(0,0,0);"
     stroke-linecap="round"
     id="path44" />
  <path
     d="M532.064453 266.431976 C 536.064392 266.448090,539.092590 259.460236,532.123840 251.691971 M532.064453 266.431976 C 528.064514 266.415863,525.092712 259.403809,532.123840 251.691971"
     fill="url(#gradient12)"
     id="path45" />
  <path
     d="M532.180237 237.692078 C 528.180298 237.675964,525.152100 244.663834,532.123840 251.691971 M532.180237 237.692078 C 536.180176 237.708191,539.151978 244.720215,532.123840 251.691971"
     style="fill:rgb(255,255,255);fill-opacity:1.000000;stroke-width:1.179213;stroke:rgb(0,0,0);"
     stroke-linecap="round"
     id="path46" />
  <path
     d="M561.603882 237.083511 C 557.603882 237.083511,554.603882 244.083511,561.603882 251.823669 M561.603882 237.083511 C 565.603882 237.083511,568.603882 244.083511,561.603882 251.823669"
     fill="url(#gradient13)"
     id="path47" />
  <path
     d="M561.603882 265.823669 C 565.603882 265.823669,568.603882 258.823669,561.603882 251.823669 M561.603882 265.823669 C 557.603882 265.823669,554.603882 258.823669,561.603882 251.823669"
     style="fill:rgb(255,255,255);fill-opacity:1.000000;stroke-width:1.179213;stroke:rgb(0,0,0);"
     stroke-linecap="round"
     id="path48" />
  <path
     d="M576.028137 292.158844 C 580.027771 292.213593,583.123291 285.255341,576.229919 277.420166 M576.028137 292.158844 C 572.028503 292.104095,569.124634 285.063660,576.229919 277.420166"
     fill="url(#gradient14)"
     id="path49" />
  <path
     d="M576.421570 263.421478 C 572.421936 263.366730,569.326416 270.325012,576.229919 277.420166 M576.421570 263.421478 C 580.421204 263.476227,583.325073 270.516632,576.229919 277.420166"
     style="fill:rgb(255,255,255);fill-opacity:1.000000;stroke-width:1.179213;stroke:rgb(0,0,0);"
     stroke-linecap="round"
     id="path50" />
  <defs
     id="defs77">
    <radialGradient
       id="gradient1"
       cx="50.000000%"
       cy="50.000000%"
       r="50.000000%"
       fx="50.000000%"
       fy="50.000000%">
      <stop
         style="stop-color:rgb(255,255,255);stop-opacity:1.000000"
         offset="0%"
         id="stop50" />
      <stop
         style="stop-color:rgb(0,0,0);stop-opacity:1.000000"
         offset="100%"
         id="stop51" />
    </radialGradient>
    <radialGradient
       id="gradient2"
       cx="50.000000%"
       cy="50.000000%"
       r="50.000000%"
       fx="50.000000%"
       fy="50.000000%">
      <stop
         style="stop-color:rgb(255,255,255);stop-opacity:1.000000"
         offset="0%"
         id="stop52" />
      <stop
         style="stop-color:rgb(0,0,0);stop-opacity:1.000000"
         offset="100%"
         id="stop53" />
    </radialGradient>
    <radialGradient
       id="gradient3"
       cx="50.000000%"
       cy="50.000000%"
       r="50.000000%"
       fx="50.000000%"
       fy="50.000000%">
      <stop
         style="stop-color:rgb(255,255,255);stop-opacity:1.000000"
         offset="0%"
         id="stop54" />
      <stop
         style="stop-color:rgb(0,0,0);stop-opacity:1.000000"
         offset="100%"
         id="stop55" />
    </radialGradient>
    <radialGradient
       id="gradient4"
       cx="50.000000%"
       cy="50.000000%"
       r="50.000000%"
       fx="50.000000%"
       fy="50.000000%">
      <stop
         style="stop-color:rgb(255,255,255);stop-opacity:1.000000"
         offset="0%"
         id="stop56" />
      <stop
         style="stop-color:rgb(0,0,0);stop-opacity:1.000000"
         offset="100%"
         id="stop57" />
    </radialGradient>
    <radialGradient
       id="gradient5"
       cx="50.000000%"
       cy="50.000000%"
       r="50.000000%"
       fx="50.000000%"
       fy="50.000000%">
      <stop
         style="stop-color:rgb(255,255,255);stop-opacity:1.000000"
         offset="0%"
         id="stop58" />
      <stop
         style="stop-color:rgb(0,0,0);stop-opacity:1.000000"
         offset="100%"
         id="stop59" />
    </radialGradient>
    <radialGradient
       id="gradient6"
       cx="50.000000%"
       cy="50.000000%"
       r="50.000000%"
       fx="50.000000%"
       fy="50.000000%">
      <stop
         style="stop-color:rgb(255,255,255);stop-opacity:1.000000"
         offset="0%"
         id="stop60" />
      <stop
         style="stop-color:rgb(0,0,0);stop-opacity:1.000000"
         offset="100%"
         id="stop61" />
    </radialGradient>
    <radialGradient
       id="gradient7"
       cx="50.000000%"
       cy="50.000000%"
       r="50.000000%"
       fx="50.000000%"
       fy="50.000000%">
      <stop
         style="stop-color:rgb(255,255,255);stop-opacity:1.000000"
         offset="0%"
         id="stop62" />
      <stop
         style="stop-color:rgb(0,0,0);stop-opacity:1.000000"
         offset="100%"
         id="stop63" />
    </radialGradient>
    <radialGradient
       id="gradient8"
       cx="50.000000%"
       cy="50.000000%"
       r="50.000000%"
       fx="50.000000%"
       fy="50.000000%">
      <stop
         style="stop-color:rgb(255,255,255);stop-opacity:1.000000"
         offset="0%"
         id="stop64" />
      <stop
         style="stop-color:rgb(0,0,0);stop-opacity:1.000000"
         offset="100%"
         id="stop65" />
    </radialGradient>
    <radialGradient
       id="gradient9"
       cx="50.000000%"
       cy="50.000000%"
       r="50.000000%"
       fx="50.000000%"
       fy="50.000000%">
      <stop
         style="stop-color:rgb(255,255,255);stop-opacity:1.000000"
         offset="0%"
         id="stop66" />
      <stop
         style="stop-color:rgb(0,0,0);stop-opacity:1.000000"
         offset="100%"
         id="stop67" />
    </radialGradient>
    <radialGradient
       id="gradient10"
       cx="50.000000%"
       cy="50.000000%"
       r="50.000000%"
       fx="50.000000%"
       fy="50.000000%">
      <stop
         style="stop-color:rgb(255,255,255);stop-opacity:1.000000"
         offset="0%"
         id="stop68" />
      <stop
         style="stop-color:rgb(0,0,0);stop-opacity:1.000000"
         offset="100%"
         id="stop69" />
    </radialGradient>
    <radialGradient
       id="gradient11"
       cx="50.000000%"
       cy="50.000000%"
       r="50.000000%"
       fx="50.000000%"
       fy="50.000000%">
      <stop
         style="stop-color:rgb(255,255,255);stop-opacity:1.000000"
         offset="0%"
         id="stop70" />
      <stop
         style="stop-color:rgb(0,0,0);stop-opacity:1.000000"
         offset="100%"
         id="stop71" />
    </radialGradient>
    <radialGradient
       id="gradient12"
       cx="50.000000%"
       cy="50.000000%"
       r="50.000000%"
       fx="50.000000%"
       fy="50.000000%">
      <stop
         style="stop-color:rgb(255,255,255);stop-opacity:1.000000"
         offset="0%"
         id="stop72" />
      <stop
         style="stop-color:rgb(0,0,0);stop-opacity:1.000000"
         offset="100%"
         id="stop73" />
    </radialGradient>
    <radialGradient
       id="gradient13"
       cx="50.000000%"
       cy="50.000000%"
       r="50.000000%"
       fx="50.000000%"
       fy="50.000000%">
      <stop
         style="stop-color:rgb(255,255,255);stop-opacity:1.000000"
         offset="0%"
         id="stop74" />
      <stop
         style="stop-color:rgb(0,0,0);stop-opacity:1.000000"
         offset="100%"
         id="stop75" />
    </radialGradient>
    <radialGradient
       id="gradient14"
       cx="50.000000%"
       cy="50.000000%"
       r="50.000000%"
       fx="50.000000%"
       fy="50.000000%">
      <stop
         style="stop-color:rgb(255,255,255);stop-opacity:1.000000"
         offset="0%"
         id="stop76" />
      <stop
         style="stop-color:rgb(0,0,0);stop-opacity:1.000000"
         offset="100%"
         id="stop77" />
    </radialGradient>
  </defs>
</svg>
