<?xml version="1.0" standalone='no'?><!-- IBoard SVG File --><svg xmlns="http://www.w3.org/2000/svg" xmlns:xlink="http://www.w3.org/1999/xlink" viewBox="462.83 231.28 170.46 127.00" height="120.00" width="177.46" version="1.1"><!-- SVG File --><polygon points="531.214966,302.749847 516.926819,277.744385 517.269836,277.156311 517.950623,277.159363 532.238770,302.164825 531.895752,302.752899 " style="fill:rgb(0,0,0);fill-opacity:1.000000"/><polygon points="576.567688,278.011292 562.056641,302.887817 561.375854,302.884766 561.038086,302.293640 575.549133,277.417114 576.229919,277.420166 " style="fill:rgb(0,0,0);fill-opacity:1.000000"/><polygon points="516.932068,276.565186 531.786072,251.100845 532.123840,251.691971 532.461609,252.283096 517.950623,277.159363 517.269836,277.156311 " style="fill:rgb(0,0,0);fill-opacity:1.000000"/><polygon points="561.946899,251.235596 576.572937,276.832092 576.229919,277.420166 575.549133,277.417114 561.260864,252.411743 561.603882,251.823669 " style="fill:rgb(0,0,0);fill-opacity:1.000000"/><polygon points="561.032837,303.472839 532.233521,303.344025 531.895752,302.752899 532.238770,302.164825 561.038086,302.293640 561.375854,302.884766 " style="fill:rgb(0,0,0);fill-opacity:1.000000"/><polygon points="606.052979,276.963806 621.016724,303.151245 620.335938,303.148193 619.655151,303.145142 605.366943,278.139954 605.709961,277.551880 " style="fill:rgb(0,0,0);fill-opacity:1.000000"/><polygon points="605.819580,329.203918 575.658752,329.069122 576.001770,328.481049 576.344788,327.892975 605.144043,328.021667 605.481812,328.612793 " style="fill:rgb(0,0,0);fill-opacity:1.000000"/><polygon points="517.378906,328.808441 487.218079,328.673218 487.561127,328.085144 487.904175,327.497070 516.703369,327.626190 517.041138,328.217316 " style="fill:rgb(0,0,0);fill-opacity:1.000000"/><polygon points="472.254761,302.485565 487.452332,276.433136 487.790070,277.024261 488.127838,277.615387 473.616394,302.491669 472.935577,302.488617 " style="fill:rgb(0,0,0);fill-opacity:1.000000"/><polygon points="487.452332,276.433136 516.932068,276.565186 517.269836,277.156311 516.926819,277.744385 488.127838,277.615387 487.790070,277.024261 " style="fill:rgb(0,0,0);fill-opacity:1.000000"/><polygon points="489.819305,279.981415 515.214172,280.095154 515.211548,280.684753 515.208923,281.274353 489.813995,281.160614 489.816650,280.571014 " style="fill:rgb(0,0,0);fill-opacity:1.000000"/><polygon points="487.218079,328.673218 472.254761,302.485565 472.935577,302.488617 473.616394,302.491669 487.904175,327.497070 487.561127,328.085144 " style="fill:rgb(0,0,0);fill-opacity:1.000000"/><polygon points="489.107483,324.849213 476.508514,302.799438 477.020447,302.506927 477.532379,302.214417 490.131348,324.264191 489.619415,324.556702 " style="fill:rgb(0,0,0);fill-opacity:1.000000"/><polygon points="532.233521,303.344025 517.378906,328.808441 517.041138,328.217316 516.703369,327.626190 531.214966,302.749847 531.895752,302.752899 " style="fill:rgb(0,0,0);fill-opacity:1.000000"/><polygon points="528.320129,303.031677 515.523865,324.967651 515.014587,324.670563 514.505310,324.373474 527.301575,302.437500 527.810852,302.734589 " style="fill:rgb(0,0,0);fill-opacity:1.000000"/><polygon points="531.786072,251.100845 561.946899,251.235596 561.603882,251.823669 561.260864,252.411743 532.461609,252.283096 532.123840,251.691971 " style="fill:rgb(0,0,0);fill-opacity:1.000000"/><polygon points="534.153076,254.649094 559.548279,254.762543 559.545654,255.352142 559.543030,255.941742 534.147827,255.828293 534.150452,255.238693 " style="fill:rgb(0,0,0);fill-opacity:1.000000"/><polygon points="576.572937,276.832092 606.052979,276.963806 605.709961,277.551880 605.366943,278.139954 576.567688,278.011292 576.229919,277.420166 " style="fill:rgb(0,0,0);fill-opacity:1.000000"/><polygon points="578.259155,280.377289 603.654358,280.490753 603.651733,281.080353 603.649109,281.669952 578.253906,281.556488 578.256531,280.966888 " style="fill:rgb(0,0,0);fill-opacity:1.000000"/><polygon points="575.658752,329.069122 561.032837,303.472839 561.375854,302.884766 562.056641,302.887817 576.344788,327.892975 576.001770,328.481049 " style="fill:rgb(0,0,0);fill-opacity:1.000000"/><polygon points="577.548096,325.245117 564.948792,303.195526 565.460693,302.903015 565.972595,302.610504 578.571899,324.660095 578.059998,324.952606 " style="fill:rgb(0,0,0);fill-opacity:1.000000"/><polygon points="621.016724,303.151245 605.819580,329.203918 605.481812,328.612793 605.144043,328.021667 619.655151,303.145142 620.335938,303.148193 " style="fill:rgb(0,0,0);fill-opacity:1.000000"/><polygon points="616.760376,303.427032 603.964478,325.363159 603.455200,325.066071 602.945923,324.768982 615.741821,302.832855 616.251099,303.129944 " style="fill:rgb(0,0,0);fill-opacity:1.000000"/><path d="M605.709961 262.811737 C 601.709961 262.811737,598.709961 269.811737,605.709961 277.551880 M605.709961 262.811737 C 609.709961 262.811737,612.709961 269.811737,605.709961 277.551880" fill="url(#gradient1)"/><path d="M605.709961 291.551880 C 609.709961 291.551880,612.709961 284.551880,605.709961 277.551880 M605.709961 291.551880 C 601.709961 291.551880,598.709961 284.551880,605.709961 277.551880" style="fill:rgb(255,255,255);fill-opacity:1.000000;stroke-width:1.179213;stroke:rgb(0,0,0);" stroke-linecap="round"/><path d="M620.463867 288.408630 C 616.463989 288.373901,613.403381 295.347626,620.335938 303.148193 M620.463867 288.408630 C 624.463745 288.443359,627.402832 295.469116,620.335938 303.148193" fill="url(#gradient2)"/><path d="M620.214417 317.147675 C 624.214294 317.182404,627.274902 310.208679,620.335938 303.148193 M620.214417 317.147675 C 616.214539 317.112946,613.275452 310.087158,620.335938 303.148193" style="fill:rgb(255,255,255);fill-opacity:1.000000;stroke-width:1.179213;stroke:rgb(0,0,0);" stroke-linecap="round"/><path d="M605.786133 313.875916 C 601.786987 313.793335,598.643127 320.729889,605.481812 328.612793 M605.786133 313.875916 C 609.785278 313.958496,612.640137 321.018951,605.481812 328.612793" fill="url(#gradient3)"/><path d="M605.192749 342.609802 C 609.191895 342.692383,612.335815 335.755829,605.481812 328.612793 M605.192749 342.609802 C 601.193604 342.527222,598.338745 335.466766,605.481812 328.612793" style="fill:rgb(255,255,255);fill-opacity:1.000000;stroke-width:1.179213;stroke:rgb(0,0,0);" stroke-linecap="round"/><path d="M576.214355 313.742432 C 572.214783 313.684753,569.114136 320.640747,576.001770 328.481049 M576.214355 313.742432 C 580.213928 313.800110,583.112671 320.842682,576.001770 328.481049" fill="url(#gradient4)"/><path d="M575.799866 342.479584 C 579.799438 342.537262,582.900085 335.581238,576.001770 328.481049 M575.799866 342.479584 C 571.800293 342.421906,568.901550 335.379364,576.001770 328.481049" style="fill:rgb(255,255,255);fill-opacity:1.000000;stroke-width:1.179213;stroke:rgb(0,0,0);" stroke-linecap="round"/><path d="M561.375854 288.144623 C 557.375854 288.144623,554.375854 295.144623,561.375854 302.884766 M561.375854 288.144623 C 565.375854 288.144623,568.375854 295.144623,561.375854 302.884766" fill="url(#gradient5)"/><path d="M561.375854 316.884766 C 565.375854 316.884766,568.375854 309.884766,561.375854 302.884766 M561.375854 316.884766 C 557.375854 316.884766,554.375854 309.884766,561.375854 302.884766" style="fill:rgb(255,255,255);fill-opacity:1.000000;stroke-width:1.179213;stroke:rgb(0,0,0);" stroke-linecap="round"/><path d="M532.104858 288.014252 C 528.105286 287.957520,525.006226 294.914215,531.895752 302.752899 M532.104858 288.014252 C 536.104431 288.070984,539.004883 295.112854,531.895752 302.752899" fill="url(#gradient6)"/><path d="M531.697144 316.751495 C 535.696716 316.808228,538.795776 309.851501,531.895752 302.752899 M531.697144 316.751495 C 527.697571 316.694763,524.797180 309.652893,531.895752 302.752899" style="fill:rgb(255,255,255);fill-opacity:1.000000;stroke-width:1.179213;stroke:rgb(0,0,0);" stroke-linecap="round"/><path d="M517.374512 313.480988 C 513.375549 313.390533,510.217987 320.320892,517.041138 328.217316 M517.374512 313.480988 C 521.373474 313.571442,524.214417 320.637512,517.041138 328.217316" fill="url(#gradient7)"/><path d="M516.724487 342.213745 C 520.723450 342.304230,523.881042 335.373840,517.041138 328.217316 M516.724487 342.213745 C 512.725525 342.123260,509.884583 335.057220,517.041138 328.217316" style="fill:rgb(255,255,255);fill-opacity:1.000000;stroke-width:1.179213;stroke:rgb(0,0,0);" stroke-linecap="round"/><path d="M488.050201 313.353210 C 484.052399 313.220490,480.821808 320.117096,487.561127 328.085144 M488.050201 313.353210 C 492.048004 313.485931,494.814087 320.581604,487.561127 328.085144" fill="url(#gradient8)"/><path d="M487.096619 342.077423 C 491.094421 342.210144,494.325012 335.313538,487.561127 328.085144 M487.096619 342.077423 C 483.098816 341.944702,480.332733 334.849030,487.561127 328.085144" style="fill:rgb(255,255,255);fill-opacity:1.000000;stroke-width:1.179213;stroke:rgb(0,0,0);" stroke-linecap="round"/><path d="M473.349823 287.754272 C 469.351410 287.641846,466.155884 294.554779,472.935577 302.488617 M473.349823 287.754272 C 477.348236 287.866699,480.150330 294.948212,472.935577 302.488617" fill="url(#gradient9)"/><path d="M472.542145 316.483093 C 476.540558 316.595490,479.736084 309.682587,472.935577 302.488617 M472.542145 316.483093 C 468.543732 316.370697,465.741638 309.289154,472.935577 302.488617" style="fill:rgb(255,255,255);fill-opacity:1.000000;stroke-width:1.179213;stroke:rgb(0,0,0);" stroke-linecap="round"/><path d="M488.152893 262.288605 C 484.154114 262.190155,480.982697 269.114166,487.790070 277.024261 M488.152893 262.288605 C 492.151672 262.387054,494.978455 269.458801,487.790070 277.024261" fill="url(#gradient10)"/><path d="M487.445465 291.020020 C 491.444244 291.118469,494.615662 284.194458,487.790070 277.024261 M487.445465 291.020020 C 483.446686 290.921570,480.619904 283.849823,487.790070 277.024261" style="fill:rgb(255,255,255);fill-opacity:1.000000;stroke-width:1.179213;stroke:rgb(0,0,0);" stroke-linecap="round"/><path d="M517.491882 262.417877 C 513.492310 262.357635,510.387238 269.311646,517.269836 277.156311 M517.491882 262.417877 C 521.491455 262.478119,524.385620 269.522522,517.269836 277.156311" fill="url(#gradient11)"/><path d="M517.058960 291.154724 C 521.058533 291.214966,524.163574 284.260956,517.269836 277.156311 M517.058960 291.154724 C 513.059387 291.094482,510.165192 284.050079,517.269836 277.156311" style="fill:rgb(255,255,255);fill-opacity:1.000000;stroke-width:1.179213;stroke:rgb(0,0,0);" stroke-linecap="round"/><path d="M532.269043 236.952606 C 528.269226 236.913208,525.200439 243.883316,532.123840 251.691971 M532.269043 236.952606 C 536.268860 236.992004,539.199768 244.021225,532.123840 251.691971" fill="url(#gradient12)"/><path d="M531.985901 265.691284 C 535.985718 265.730682,539.054504 258.760590,532.123840 251.691971 M531.985901 265.691284 C 527.986084 265.651886,525.055237 258.622650,532.123840 251.691971" style="fill:rgb(255,255,255);fill-opacity:1.000000;stroke-width:1.179213;stroke:rgb(0,0,0);" stroke-linecap="round"/><path d="M561.603882 237.083511 C 557.603882 237.083511,554.603882 244.083511,561.603882 251.823669 M561.603882 237.083511 C 565.603882 237.083511,568.603882 244.083511,561.603882 251.823669" fill="url(#gradient13)"/><path d="M561.603882 265.823669 C 565.603882 265.823669,568.603882 258.823669,561.603882 251.823669 M561.603882 265.823669 C 557.603882 265.823669,554.603882 258.823669,561.603882 251.823669" style="fill:rgb(255,255,255);fill-opacity:1.000000;stroke-width:1.179213;stroke:rgb(0,0,0);" stroke-linecap="round"/><path d="M576.229919 262.680023 C 572.229919 262.680023,569.229919 269.680023,576.229919 277.420166 M576.229919 262.680023 C 580.229919 262.680023,583.229919 269.680023,576.229919 277.420166" fill="url(#gradient14)"/><path d="M576.229919 291.420166 C 580.229919 291.420166,583.229919 284.420166,576.229919 277.420166 M576.229919 291.420166 C 572.229919 291.420166,569.229919 284.420166,576.229919 277.420166" style="fill:rgb(255,255,255);fill-opacity:1.000000;stroke-width:1.179213;stroke:rgb(0,0,0);" stroke-linecap="round"/><defs><radialGradient id="gradient1" cx="50.000000%" cy="50.000000%" r="50.000000%" fx="50.000000%" fy="50.000000%"><stop style="stop-color:rgb(255,255,255);stop-opacity:1.000000" offset="0%"/><stop style="stop-color:rgb(0,0,0);stop-opacity:1.000000" offset="100%"/></radialGradient><radialGradient id="gradient2" cx="50.000000%" cy="50.000000%" r="50.000000%" fx="50.000000%" fy="50.000000%"><stop style="stop-color:rgb(255,255,255);stop-opacity:1.000000" offset="0%"/><stop style="stop-color:rgb(0,0,0);stop-opacity:1.000000" offset="100%"/></radialGradient><radialGradient id="gradient3" cx="50.000000%" cy="50.000000%" r="50.000000%" fx="50.000000%" fy="50.000000%"><stop style="stop-color:rgb(255,255,255);stop-opacity:1.000000" offset="0%"/><stop style="stop-color:rgb(0,0,0);stop-opacity:1.000000" offset="100%"/></radialGradient><radialGradient id="gradient4" cx="50.000000%" cy="50.000000%" r="50.000000%" fx="50.000000%" fy="50.000000%"><stop style="stop-color:rgb(255,255,255);stop-opacity:1.000000" offset="0%"/><stop style="stop-color:rgb(0,0,0);stop-opacity:1.000000" offset="100%"/></radialGradient><radialGradient id="gradient5" cx="50.000000%" cy="50.000000%" r="50.000000%" fx="50.000000%" fy="50.000000%"><stop style="stop-color:rgb(255,255,255);stop-opacity:1.000000" offset="0%"/><stop style="stop-color:rgb(0,0,0);stop-opacity:1.000000" offset="100%"/></radialGradient><radialGradient id="gradient6" cx="50.000000%" cy="50.000000%" r="50.000000%" fx="50.000000%" fy="50.000000%"><stop style="stop-color:rgb(255,255,255);stop-opacity:1.000000" offset="0%"/><stop style="stop-color:rgb(0,0,0);stop-opacity:1.000000" offset="100%"/></radialGradient><radialGradient id="gradient7" cx="50.000000%" cy="50.000000%" r="50.000000%" fx="50.000000%" fy="50.000000%"><stop style="stop-color:rgb(255,255,255);stop-opacity:1.000000" offset="0%"/><stop style="stop-color:rgb(0,0,0);stop-opacity:1.000000" offset="100%"/></radialGradient><radialGradient id="gradient8" cx="50.000000%" cy="50.000000%" r="50.000000%" fx="50.000000%" fy="50.000000%"><stop style="stop-color:rgb(255,255,255);stop-opacity:1.000000" offset="0%"/><stop style="stop-color:rgb(0,0,0);stop-opacity:1.000000" offset="100%"/></radialGradient><radialGradient id="gradient9" cx="50.000000%" cy="50.000000%" r="50.000000%" fx="50.000000%" fy="50.000000%"><stop style="stop-color:rgb(255,255,255);stop-opacity:1.000000" offset="0%"/><stop style="stop-color:rgb(0,0,0);stop-opacity:1.000000" offset="100%"/></radialGradient><radialGradient id="gradient10" cx="50.000000%" cy="50.000000%" r="50.000000%" fx="50.000000%" fy="50.000000%"><stop style="stop-color:rgb(255,255,255);stop-opacity:1.000000" offset="0%"/><stop style="stop-color:rgb(0,0,0);stop-opacity:1.000000" offset="100%"/></radialGradient><radialGradient id="gradient11" cx="50.000000%" cy="50.000000%" r="50.000000%" fx="50.000000%" fy="50.000000%"><stop style="stop-color:rgb(255,255,255);stop-opacity:1.000000" offset="0%"/><stop style="stop-color:rgb(0,0,0);stop-opacity:1.000000" offset="100%"/></radialGradient><radialGradient id="gradient12" cx="50.000000%" cy="50.000000%" r="50.000000%" fx="50.000000%" fy="50.000000%"><stop style="stop-color:rgb(255,255,255);stop-opacity:1.000000" offset="0%"/><stop style="stop-color:rgb(0,0,0);stop-opacity:1.000000" offset="100%"/></radialGradient><radialGradient id="gradient13" cx="50.000000%" cy="50.000000%" r="50.000000%" fx="50.000000%" fy="50.000000%"><stop style="stop-color:rgb(255,255,255);stop-opacity:1.000000" offset="0%"/><stop style="stop-color:rgb(0,0,0);stop-opacity:1.000000" offset="100%"/></radialGradient><radialGradient id="gradient14" cx="50.000000%" cy="50.000000%" r="50.000000%" fx="50.000000%" fy="50.000000%"><stop style="stop-color:rgb(255,255,255);stop-opacity:1.000000" offset="0%"/><stop style="stop-color:rgb(0,0,0);stop-opacity:1.000000" offset="100%"/></radialGradient></defs></svg>