<?xml version="1.0" encoding="UTF-8" standalone="no"?>
<!-- IBoard SVG File -->

<svg
   viewBox="462.70 231.28 170.63 127.73"
   height="120.73"
   width="177.63"
   version="1.1"
   id="svg77"
   sodipodi:docname="9.svg"
   inkscape:export-filename="9.png"
   inkscape:export-xdpi="300"
   inkscape:export-ydpi="300"
   inkscape:version="1.3.2 (1:1.3.2+202311252150+091e20ef0f)"
   xmlns:inkscape="http://www.inkscape.org/namespaces/inkscape"
   xmlns:sodipodi="http://sodipodi.sourceforge.net/DTD/sodipodi-0.dtd"
   xmlns="http://www.w3.org/2000/svg"
   xmlns:svg="http://www.w3.org/2000/svg">
  <sodipodi:namedview
     id="namedview77"
     pagecolor="#ffffff"
     bordercolor="#000000"
     borderopacity="0.25"
     inkscape:showpageshadow="2"
     inkscape:pageopacity="0.0"
     inkscape:pagecheckerboard="0"
     inkscape:deskcolor="#d1d1d1"
     inkscape:zoom="4.6951527"
     inkscape:cx="88.815002"
     inkscape:cy="60.27493"
     inkscape:window-width="1466"
     inkscape:window-height="896"
     inkscape:window-x="70"
     inkscape:window-y="27"
     inkscape:window-maximized="1"
     inkscape:current-layer="svg77" />
  <!-- SVG File -->
  <polygon
     points="531.214966,302.749847 516.926819,277.744385 517.269836,277.156311 517.950623,277.159363 532.238770,302.164825 531.895752,302.752899 "
     style="fill:rgb(0,0,0);fill-opacity:1.000000"
     id="polygon1" />
  <polygon
     points="576.567688,278.011292 562.056641,302.887817 561.375854,302.884766 561.038086,302.293640 575.549133,277.417114 576.229919,277.420166 "
     style="fill:rgb(0,0,0);fill-opacity:1.000000"
     id="polygon2" />
  <polygon
     points="516.932068,276.565186 531.786072,251.100845 532.123840,251.691971 532.461609,252.283096 517.950623,277.159363 517.269836,277.156311 "
     style="fill:rgb(0,0,0);fill-opacity:1.000000"
     id="polygon3" />
  <polygon
     points="561.946899,251.235596 576.572937,276.832092 576.229919,277.420166 575.549133,277.417114 561.260864,252.411743 561.603882,251.823669 "
     style="fill:rgb(0,0,0);fill-opacity:1.000000"
     id="polygon4" />
  <polygon
     points="561.032837,303.472839 532.233521,303.344025 531.895752,302.752899 532.238770,302.164825 561.038086,302.293640 561.375854,302.884766 "
     style="fill:rgb(0,0,0);fill-opacity:1.000000"
     id="polygon5" />
  <polygon
     points="606.052979,276.963806 621.016724,303.151245 620.335938,303.148193 619.655151,303.145142 605.366943,278.139954 605.709961,277.551880 "
     style="fill:rgb(0,0,0);fill-opacity:1.000000"
     id="polygon6" />
  <polygon
     points="605.819580,329.203918 575.658752,329.069122 576.001770,328.481049 576.344788,327.892975 605.144043,328.021667 605.481812,328.612793 "
     style="fill:rgb(0,0,0);fill-opacity:1.000000"
     id="polygon7" />
  <polygon
     points="517.378906,328.808441 487.218079,328.673218 487.561127,328.085144 487.904175,327.497070 516.703369,327.626190 517.041138,328.217316 "
     style="fill:rgb(0,0,0);fill-opacity:1.000000"
     id="polygon8" />
  <polygon
     points="472.254761,302.485565 487.452332,276.433136 487.790070,277.024261 488.127838,277.615387 473.616394,302.491669 472.935577,302.488617 "
     style="fill:rgb(0,0,0);fill-opacity:1.000000"
     id="polygon9" />
  <polygon
     points="487.452332,276.433136 516.932068,276.565186 517.269836,277.156311 516.926819,277.744385 488.127838,277.615387 487.790070,277.024261 "
     style="fill:rgb(0,0,0);fill-opacity:1.000000"
     id="polygon10" />
  <polygon
     points="489.819305,279.981415 515.214172,280.095154 515.211548,280.684753 515.208923,281.274353 489.813995,281.160614 489.816650,280.571014 "
     style="fill:rgb(0,0,0);fill-opacity:1.000000"
     id="polygon11" />
  <polygon
     points="487.218079,328.673218 472.254761,302.485565 472.935577,302.488617 473.616394,302.491669 487.904175,327.497070 487.561127,328.085144 "
     style="fill:rgb(0,0,0);fill-opacity:1.000000"
     id="polygon12" />
  <polygon
     points="489.107483,324.849213 476.508514,302.799438 477.020447,302.506927 477.532379,302.214417 490.131348,324.264191 489.619415,324.556702 "
     style="fill:rgb(0,0,0);fill-opacity:1.000000"
     id="polygon13" />
  <polygon
     points="532.233521,303.344025 517.378906,328.808441 517.041138,328.217316 516.703369,327.626190 531.214966,302.749847 531.895752,302.752899 "
     style="fill:rgb(0,0,0);fill-opacity:1.000000"
     id="polygon14" />
  <polygon
     points="528.320129,303.031677 515.523865,324.967651 515.014587,324.670563 514.505310,324.373474 527.301575,302.437500 527.810852,302.734589 "
     style="fill:rgb(0,0,0);fill-opacity:1.000000"
     id="polygon15" />
  <polygon
     points="531.786072,251.100845 561.946899,251.235596 561.603882,251.823669 561.260864,252.411743 532.461609,252.283096 532.123840,251.691971 "
     style="fill:rgb(0,0,0);fill-opacity:1.000000"
     id="polygon16" />
  <polygon
     points="534.153076,254.649094 559.548279,254.762543 559.545654,255.352142 559.543030,255.941742 534.147827,255.828293 534.150452,255.238693 "
     style="fill:rgb(0,0,0);fill-opacity:1.000000"
     id="polygon17" />
  <polygon
     points="576.572937,276.832092 606.052979,276.963806 605.709961,277.551880 605.366943,278.139954 576.567688,278.011292 576.229919,277.420166 "
     style="fill:rgb(0,0,0);fill-opacity:1.000000"
     id="polygon18" />
  <polygon
     points="578.259155,280.377289 603.654358,280.490753 603.651733,281.080353 603.649109,281.669952 578.253906,281.556488 578.256531,280.966888 "
     style="fill:rgb(0,0,0);fill-opacity:1.000000"
     id="polygon19" />
  <polygon
     points="575.658752,329.069122 561.032837,303.472839 561.375854,302.884766 562.056641,302.887817 576.344788,327.892975 576.001770,328.481049 "
     style="fill:rgb(0,0,0);fill-opacity:1.000000"
     id="polygon20" />
  <polygon
     points="577.548096,325.245117 564.948792,303.195526 565.460693,302.903015 565.972595,302.610504 578.571899,324.660095 578.059998,324.952606 "
     style="fill:rgb(0,0,0);fill-opacity:1.000000"
     id="polygon21" />
  <polygon
     points="621.016724,303.151245 605.819580,329.203918 605.481812,328.612793 605.144043,328.021667 619.655151,303.145142 620.335938,303.148193 "
     style="fill:rgb(0,0,0);fill-opacity:1.000000"
     id="polygon22" />
  <polygon
     points="616.760376,303.427032 603.964478,325.363159 603.455200,325.066071 602.945923,324.768982 615.741821,302.832855 616.251099,303.129944 "
     style="fill:rgb(0,0,0);fill-opacity:1.000000"
     id="polygon23" />
  <path
     d="M605.709961 262.811737 C 601.709961 262.811737,598.709961 269.811737,605.709961 277.551880 M605.709961 262.811737 C 609.709961 262.811737,612.709961 269.811737,605.709961 277.551880"
     fill="url(#gradient1)"
     id="path23" />
  <path
     d="M605.709961 291.551880 C 609.709961 291.551880,612.709961 284.551880,605.709961 277.551880 M605.709961 291.551880 C 601.709961 291.551880,598.709961 284.551880,605.709961 277.551880"
     style="fill:rgb(255,255,255);fill-opacity:1.000000;stroke-width:1.179213;stroke:rgb(0,0,0);"
     stroke-linecap="round"
     id="path24" />
  <path
     d="M620.107666 317.886566 C 624.107178 317.948517,627.215271 310.995819,620.335938 303.148193 M620.107666 317.886566 C 616.108154 317.824615,613.216919 310.778992,620.335938 303.148193"
     fill="url(#gradient2)"
     id="path25" />
  <path
     d="M620.552734 289.149872 C 616.553223 289.087921,613.445190 296.040619,620.335938 303.148193 M620.552734 289.149872 C 624.552246 289.211823,627.443481 296.257446,620.335938 303.148193"
     style="fill:rgb(255,255,255);fill-opacity:1.000000;stroke-width:1.179213;stroke:rgb(0,0,0);"
     stroke-linecap="round"
     id="path26" />
  <path
     d="M605.061096 343.346832 C 609.059448 343.460999,612.258057 336.549469,605.481812 328.612793 M605.061096 343.346832 C 601.062744 343.232666,598.263733 336.149872,605.481812 328.612793"
     fill="url(#gradient3)"
     id="path27" />
  <path
     d="M605.881409 314.618500 C 601.883057 314.504333,598.684448 321.415863,605.481812 328.612793 M605.881409 314.618500 C 609.879761 314.732666,612.678772 321.815430,605.481812 328.612793"
     style="fill:rgb(255,255,255);fill-opacity:1.000000;stroke-width:1.179213;stroke:rgb(0,0,0);"
     stroke-linecap="round"
     id="path28" />
  <path
     d="M575.628357 343.216431 C 579.627075 343.317749,582.803467 336.395996,576.001770 328.481049 M575.628357 343.216431 C 571.629639 343.115112,568.807922 336.041351,576.001770 328.481049"
     fill="url(#gradient4)"
     id="path29" />
  <path
     d="M576.356445 314.485535 C 572.357727 314.384186,569.181335 321.305969,576.001770 328.481049 M576.356445 314.485535 C 580.355164 314.586884,583.176880 321.660645,576.001770 328.481049"
     style="fill:rgb(255,255,255);fill-opacity:1.000000;stroke-width:1.179213;stroke:rgb(0,0,0);"
     stroke-linecap="round"
     id="path30" />
  <path
     d="M561.171204 317.623596 C 565.170837 317.679138,568.267700 310.721466,561.375854 302.884766 M561.171204 317.623596 C 557.171570 317.568054,554.269043 310.527069,561.375854 302.884766"
     fill="url(#gradient5)"
     id="path31" />
  <path
     d="M561.570251 288.886108 C 557.570618 288.830566,554.473755 295.788239,561.375854 302.884766 M561.570251 288.886108 C 565.569885 288.941650,568.472412 295.982635,561.375854 302.884766"
     style="fill:rgb(255,255,255);fill-opacity:1.000000;stroke-width:1.179213;stroke:rgb(0,0,0);"
     stroke-linecap="round"
     id="path32" />
  <path
     d="M531.600830 317.490143 C 535.600037 317.570160,538.739502 310.631592,531.895752 302.752899 M531.600830 317.490143 C 527.601624 317.410126,524.742310 310.351471,531.895752 302.752899"
     fill="url(#gradient6)"
     id="path33" />
  <path
     d="M532.175842 288.755707 C 528.176636 288.675690,525.037170 295.614258,531.895752 302.752899 M532.175842 288.755707 C 536.175049 288.835724,539.034363 295.894348,531.895752 302.752899"
     style="fill:rgb(255,255,255);fill-opacity:1.000000;stroke-width:1.179213;stroke:rgb(0,0,0);"
     stroke-linecap="round"
     id="path34" />
  <path
     d="M516.604126 342.950836 C 520.602356 343.069427,523.808594 336.161438,517.041138 328.217316 M516.604126 342.950836 C 512.605896 342.832245,509.814758 335.746368,517.041138 328.217316"
     fill="url(#gradient7)"
     id="path35" />
  <path
     d="M517.456238 314.223480 C 513.458008 314.104889,510.251770 321.012848,517.041138 328.217316 M517.456238 314.223480 C 521.454468 314.342072,524.245605 321.427948,517.041138 328.217316"
     style="fill:rgb(255,255,255);fill-opacity:1.000000;stroke-width:1.179213;stroke:rgb(0,0,0);"
     stroke-linecap="round"
     id="path36" />
  <path
     d="M487.041382 342.815948 C 491.038879 342.957001,494.283875 336.067139,487.561127 328.085144 M487.041382 342.815948 C 483.043884 342.674896,480.292572 335.573456,487.561127 328.085144"
     fill="url(#gradient8)"
     id="path37" />
  <path
     d="M488.054779 314.093842 C 484.057281 313.952789,480.812317 320.842651,487.561127 328.085144 M488.054779 314.093842 C 492.052277 314.234894,494.803589 321.336304,487.561127 328.085144"
     style="fill:rgb(255,255,255);fill-opacity:1.000000;stroke-width:1.179213;stroke:rgb(0,0,0);"
     stroke-linecap="round"
     id="path38" />
  <path
     d="M472.355072 317.217438 C 476.351959 317.374969,479.625336 310.498566,472.935577 302.488617 M472.355072 317.217438 C 468.358185 317.059906,465.636200 309.947174,472.935577 302.488617"
     fill="url(#gradient9)"
     id="path39" />
  <path
     d="M473.486938 288.499481 C 469.490051 288.341949,466.216705 295.218384,472.935577 302.488617 M473.486938 288.499481 C 477.483826 288.657013,480.205841 295.769714,472.935577 302.488617"
     style="fill:rgb(255,255,255);fill-opacity:1.000000;stroke-width:1.179213;stroke:rgb(0,0,0);"
     stroke-linecap="round"
     id="path40" />
  <path
     d="M488.152893 262.288605 C 484.154114 262.190155,480.982697 269.114166,487.790070 277.024261 M488.152893 262.288605 C 492.151672 262.387054,494.978455 269.458801,487.790070 277.024261"
     fill="url(#gradient10)"
     id="path41" />
  <path
     d="M487.445465 291.020020 C 491.444244 291.118469,494.615662 284.194458,487.790070 277.024261 M487.445465 291.020020 C 483.446686 290.921570,480.619904 283.849823,487.790070 277.024261"
     style="fill:rgb(255,255,255);fill-opacity:1.000000;stroke-width:1.179213;stroke:rgb(0,0,0);"
     stroke-linecap="round"
     id="path42" />
  <path
     d="M517.491882 262.417877 C 513.492310 262.357635,510.387238 269.311646,517.269836 277.156311 M517.491882 262.417877 C 521.491455 262.478119,524.385620 269.522522,517.269836 277.156311"
     fill="url(#gradient11)"
     id="path43" />
  <path
     d="M517.058960 291.154724 C 521.058533 291.214966,524.163574 284.260956,517.269836 277.156311 M517.058960 291.154724 C 513.059387 291.094482,510.165192 284.050079,517.269836 277.156311"
     style="fill:rgb(255,255,255);fill-opacity:1.000000;stroke-width:1.179213;stroke:rgb(0,0,0);"
     stroke-linecap="round"
     id="path44" />
  <path
     d="M532.269043 236.952606 C 528.269226 236.913208,525.200439 243.883316,532.123840 251.691971 M532.269043 236.952606 C 536.268860 236.992004,539.199768 244.021225,532.123840 251.691971"
     fill="url(#gradient12)"
     id="path45" />
  <path
     d="M531.985901 265.691284 C 535.985718 265.730682,539.054504 258.760590,532.123840 251.691971 M531.985901 265.691284 C 527.986084 265.651886,525.055237 258.622650,532.123840 251.691971"
     style="fill:rgb(255,255,255);fill-opacity:1.000000;stroke-width:1.179213;stroke:rgb(0,0,0);"
     stroke-linecap="round"
     id="path46" />
  <path
     d="M561.603882 237.083511 C 557.603882 237.083511,554.603882 244.083511,561.603882 251.823669 M561.603882 237.083511 C 565.603882 237.083511,568.603882 244.083511,561.603882 251.823669"
     fill="url(#gradient13)"
     id="path47" />
  <path
     d="M561.603882 265.823669 C 565.603882 265.823669,568.603882 258.823669,561.603882 251.823669 M561.603882 265.823669 C 557.603882 265.823669,554.603882 258.823669,561.603882 251.823669"
     style="fill:rgb(255,255,255);fill-opacity:1.000000;stroke-width:1.179213;stroke:rgb(0,0,0);"
     stroke-linecap="round"
     id="path48" />
  <path
     d="M576.229919 262.680023 C 572.229919 262.680023,569.229919 269.680023,576.229919 277.420166 M576.229919 262.680023 C 580.229919 262.680023,583.229919 269.680023,576.229919 277.420166"
     fill="url(#gradient14)"
     id="path49" />
  <path
     d="M576.229919 291.420166 C 580.229919 291.420166,583.229919 284.420166,576.229919 277.420166 M576.229919 291.420166 C 572.229919 291.420166,569.229919 284.420166,576.229919 277.420166"
     style="fill:rgb(255,255,255);fill-opacity:1.000000;stroke-width:1.179213;stroke:rgb(0,0,0);"
     stroke-linecap="round"
     id="path50" />
  <defs
     id="defs77">
    <radialGradient
       id="gradient1"
       cx="50.000000%"
       cy="50.000000%"
       r="50.000000%"
       fx="50.000000%"
       fy="50.000000%">
      <stop
         style="stop-color:rgb(255,255,255);stop-opacity:1.000000"
         offset="0%"
         id="stop50" />
      <stop
         style="stop-color:rgb(0,0,0);stop-opacity:1.000000"
         offset="100%"
         id="stop51" />
    </radialGradient>
    <radialGradient
       id="gradient2"
       cx="50.000000%"
       cy="50.000000%"
       r="50.000000%"
       fx="50.000000%"
       fy="50.000000%">
      <stop
         style="stop-color:rgb(255,255,255);stop-opacity:1.000000"
         offset="0%"
         id="stop52" />
      <stop
         style="stop-color:rgb(0,0,0);stop-opacity:1.000000"
         offset="100%"
         id="stop53" />
    </radialGradient>
    <radialGradient
       id="gradient3"
       cx="50.000000%"
       cy="50.000000%"
       r="50.000000%"
       fx="50.000000%"
       fy="50.000000%">
      <stop
         style="stop-color:rgb(255,255,255);stop-opacity:1.000000"
         offset="0%"
         id="stop54" />
      <stop
         style="stop-color:rgb(0,0,0);stop-opacity:1.000000"
         offset="100%"
         id="stop55" />
    </radialGradient>
    <radialGradient
       id="gradient4"
       cx="50.000000%"
       cy="50.000000%"
       r="50.000000%"
       fx="50.000000%"
       fy="50.000000%">
      <stop
         style="stop-color:rgb(255,255,255);stop-opacity:1.000000"
         offset="0%"
         id="stop56" />
      <stop
         style="stop-color:rgb(0,0,0);stop-opacity:1.000000"
         offset="100%"
         id="stop57" />
    </radialGradient>
    <radialGradient
       id="gradient5"
       cx="50.000000%"
       cy="50.000000%"
       r="50.000000%"
       fx="50.000000%"
       fy="50.000000%">
      <stop
         style="stop-color:rgb(255,255,255);stop-opacity:1.000000"
         offset="0%"
         id="stop58" />
      <stop
         style="stop-color:rgb(0,0,0);stop-opacity:1.000000"
         offset="100%"
         id="stop59" />
    </radialGradient>
    <radialGradient
       id="gradient6"
       cx="50.000000%"
       cy="50.000000%"
       r="50.000000%"
       fx="50.000000%"
       fy="50.000000%">
      <stop
         style="stop-color:rgb(255,255,255);stop-opacity:1.000000"
         offset="0%"
         id="stop60" />
      <stop
         style="stop-color:rgb(0,0,0);stop-opacity:1.000000"
         offset="100%"
         id="stop61" />
    </radialGradient>
    <radialGradient
       id="gradient7"
       cx="50.000000%"
       cy="50.000000%"
       r="50.000000%"
       fx="50.000000%"
       fy="50.000000%">
      <stop
         style="stop-color:rgb(255,255,255);stop-opacity:1.000000"
         offset="0%"
         id="stop62" />
      <stop
         style="stop-color:rgb(0,0,0);stop-opacity:1.000000"
         offset="100%"
         id="stop63" />
    </radialGradient>
    <radialGradient
       id="gradient8"
       cx="50.000000%"
       cy="50.000000%"
       r="50.000000%"
       fx="50.000000%"
       fy="50.000000%">
      <stop
         style="stop-color:rgb(255,255,255);stop-opacity:1.000000"
         offset="0%"
         id="stop64" />
      <stop
         style="stop-color:rgb(0,0,0);stop-opacity:1.000000"
         offset="100%"
         id="stop65" />
    </radialGradient>
    <radialGradient
       id="gradient9"
       cx="50.000000%"
       cy="50.000000%"
       r="50.000000%"
       fx="50.000000%"
       fy="50.000000%">
      <stop
         style="stop-color:rgb(255,255,255);stop-opacity:1.000000"
         offset="0%"
         id="stop66" />
      <stop
         style="stop-color:rgb(0,0,0);stop-opacity:1.000000"
         offset="100%"
         id="stop67" />
    </radialGradient>
    <radialGradient
       id="gradient10"
       cx="50.000000%"
       cy="50.000000%"
       r="50.000000%"
       fx="50.000000%"
       fy="50.000000%">
      <stop
         style="stop-color:rgb(255,255,255);stop-opacity:1.000000"
         offset="0%"
         id="stop68" />
      <stop
         style="stop-color:rgb(0,0,0);stop-opacity:1.000000"
         offset="100%"
         id="stop69" />
    </radialGradient>
    <radialGradient
       id="gradient11"
       cx="50.000000%"
       cy="50.000000%"
       r="50.000000%"
       fx="50.000000%"
       fy="50.000000%">
      <stop
         style="stop-color:rgb(255,255,255);stop-opacity:1.000000"
         offset="0%"
         id="stop70" />
      <stop
         style="stop-color:rgb(0,0,0);stop-opacity:1.000000"
         offset="100%"
         id="stop71" />
    </radialGradient>
    <radialGradient
       id="gradient12"
       cx="50.000000%"
       cy="50.000000%"
       r="50.000000%"
       fx="50.000000%"
       fy="50.000000%">
      <stop
         style="stop-color:rgb(255,255,255);stop-opacity:1.000000"
         offset="0%"
         id="stop72" />
      <stop
         style="stop-color:rgb(0,0,0);stop-opacity:1.000000"
         offset="100%"
         id="stop73" />
    </radialGradient>
    <radialGradient
       id="gradient13"
       cx="50.000000%"
       cy="50.000000%"
       r="50.000000%"
       fx="50.000000%"
       fy="50.000000%">
      <stop
         style="stop-color:rgb(255,255,255);stop-opacity:1.000000"
         offset="0%"
         id="stop74" />
      <stop
         style="stop-color:rgb(0,0,0);stop-opacity:1.000000"
         offset="100%"
         id="stop75" />
    </radialGradient>
    <radialGradient
       id="gradient14"
       cx="50.000000%"
       cy="50.000000%"
       r="50.000000%"
       fx="50.000000%"
       fy="50.000000%">
      <stop
         style="stop-color:rgb(255,255,255);stop-opacity:1.000000"
         offset="0%"
         id="stop76" />
      <stop
         style="stop-color:rgb(0,0,0);stop-opacity:1.000000"
         offset="100%"
         id="stop77" />
    </radialGradient>
  </defs>
</svg>
