<?xml version="1.0" encoding="UTF-8" standalone="no"?>
<!-- IBoard SVG File -->

<svg
   viewBox="433.57 191.06 125.92 100.17"
   height="93.17"
   width="132.92"
   version="1.1"
   id="svg25"
   sodipodi:docname="0.svg"
   inkscape:export-filename="0.png"
   inkscape:export-xdpi="300"
   inkscape:export-ydpi="300"
   inkscape:version="1.3.2 (1:1.3.2+202311252150+091e20ef0f)"
   xmlns:inkscape="http://www.inkscape.org/namespaces/inkscape"
   xmlns:sodipodi="http://sodipodi.sourceforge.net/DTD/sodipodi-0.dtd"
   xmlns="http://www.w3.org/2000/svg"
   xmlns:svg="http://www.w3.org/2000/svg">
  <defs
     id="defs25" />
  <sodipodi:namedview
     id="namedview25"
     pagecolor="#ffffff"
     bordercolor="#000000"
     borderopacity="0.25"
     inkscape:showpageshadow="2"
     inkscape:pageopacity="0.0"
     inkscape:pagecheckerboard="0"
     inkscape:deskcolor="#d1d1d1"
     inkscape:zoom="6.2744509"
     inkscape:cx="66.459999"
     inkscape:cy="46.537937"
     inkscape:window-width="1466"
     inkscape:window-height="896"
     inkscape:window-x="70"
     inkscape:window-y="27"
     inkscape:window-maximized="1"
     inkscape:current-layer="svg25" />
  <!-- SVG File -->
  <polygon
     points="469.000000,206.002197 494.530701,220.742355 494.530701,221.423172 493.941101,221.763596 469.000000,207.363831 469.000000,206.683014 "
     style="fill:rgb(0,0,0);fill-opacity:1.000000"
     id="polygon1" />
  <polygon
     points="494.530701,251.584305 469.000000,266.324463 469.000000,265.643646 469.000000,264.962830 493.941101,250.563065 494.530701,250.903488 "
     style="fill:rgb(0,0,0);fill-opacity:1.000000"
     id="polygon2" />
  <polygon
     points="442.879700,251.243912 442.879700,221.082748 443.469299,221.423172 444.058899,221.763596 444.058899,250.563065 443.469299,250.903488 "
     style="fill:rgb(0,0,0);fill-opacity:1.000000"
     id="polygon3" />
  <polygon
     points="494.530701,220.742355 520.061401,206.002197 520.061401,206.683014 520.061401,207.363831 495.120300,221.763596 494.530701,221.423172 "
     style="fill:rgb(0,0,0);fill-opacity:1.000000"
     id="polygon4" />
  <polygon
     points="546.181702,221.082748 546.181702,251.243912 545.592102,250.903488 545.002502,250.563065 545.002502,221.763596 545.592102,221.423172 "
     style="fill:rgb(0,0,0);fill-opacity:1.000000"
     id="polygon5" />
  <polygon
     points="520.061340,266.324463 494.530701,251.584305 494.530701,250.903488 495.120300,250.563065 520.061340,264.962830 520.061340,265.643646 "
     style="fill:rgb(0,0,0);fill-opacity:1.000000"
     id="polygon6" />
  <polygon
     points="442.879700,221.082748 469.000000,206.002197 469.000000,206.683014 469.000000,207.363831 444.058899,221.763596 443.469299,221.423172 "
     style="fill:rgb(0,0,0);fill-opacity:1.000000"
     id="polygon7" />
  <polygon
     points="446.712158,222.955017 468.705200,210.257324 469.000000,210.767944 469.294800,211.278564 447.301758,223.976257 447.006958,223.465637 "
     style="fill:rgb(0,0,0);fill-opacity:1.000000"
     id="polygon8" />
  <polygon
     points="493.941101,250.563065 493.941101,221.763596 494.530701,221.423172 495.120300,221.763596 495.120300,250.563065 494.530701,250.903488 "
     style="fill:rgb(0,0,0);fill-opacity:1.000000"
     id="polygon9" />
  <polygon
     points="497.478729,248.861038 497.478729,223.465622 498.068329,223.465622 498.657928,223.465622 498.657928,248.861038 498.068329,248.861038 "
     style="fill:rgb(0,0,0);fill-opacity:1.000000"
     id="polygon10" />
  <polygon
     points="469.000000,266.324463 442.879700,251.243912 443.469299,250.903488 444.058899,250.563065 469.000000,264.962830 469.000000,265.643646 "
     style="fill:rgb(0,0,0);fill-opacity:1.000000"
     id="polygon11" />
  <polygon
     points="468.705200,262.069336 446.712158,249.371643 447.006958,248.861023 447.301758,248.350403 469.294800,261.048096 469.000000,261.558716 "
     style="fill:rgb(0,0,0);fill-opacity:1.000000"
     id="polygon12" />
  <polygon
     points="520.061401,206.002197 546.181702,221.082748 545.592102,221.423172 545.002502,221.763596 520.061401,207.363831 520.061401,206.683014 "
     style="fill:rgb(0,0,0);fill-opacity:1.000000"
     id="polygon13" />
  <polygon
     points="520.356201,210.257294 542.349243,222.955002 542.054443,223.465622 541.759644,223.976242 519.766602,211.278534 520.061401,210.767914 "
     style="fill:rgb(0,0,0);fill-opacity:1.000000"
     id="polygon14" />
  <polygon
     points="546.181702,251.243912 520.061340,266.324463 520.061340,265.643646 520.061340,264.962830 545.002502,250.563065 545.592102,250.903488 "
     style="fill:rgb(0,0,0);fill-opacity:1.000000"
     id="polygon15" />
  <polygon
     points="542.349243,249.371658 520.356140,262.069366 520.061340,261.558746 519.766541,261.048126 541.759644,248.350418 542.054443,248.861038 "
     style="fill:rgb(0,0,0);fill-opacity:1.000000"
     id="polygon16" />
  <text
     xml:space="preserve"
     x="464.749878"
     y="203.013748"
     textLength="7.230000"
     lengthAdjust="spacingAndGlyphs"
     id="text16"><tspan
       font-family="Arial"
       font-weight="normal"
       baseline-shift="0"
       font-size="13"
       fill="#000000"
       id="tspan16">1</tspan></text>
  <text
     xml:space="preserve"
     x="433.570038"
     y="225.488297"
     textLength="7.230000"
     lengthAdjust="spacingAndGlyphs"
     id="text17"><tspan
       font-family="Arial"
       font-weight="normal"
       baseline-shift="0"
       font-size="13"
       fill="#000000"
       id="tspan17">2</tspan></text>
  <text
     xml:space="preserve"
     x="433.570038"
     y="256.038269"
     textLength="7.230000"
     lengthAdjust="spacingAndGlyphs"
     id="text18"><tspan
       font-family="Arial"
       font-weight="normal"
       baseline-shift="0"
       font-size="13"
       fill="#000000"
       id="tspan18">3</tspan></text>
  <text
     xml:space="preserve"
     x="464.749878"
     y="278.238281"
     textLength="7.230000"
     lengthAdjust="spacingAndGlyphs"
     id="text19"><tspan
       font-family="Arial"
       font-weight="normal"
       baseline-shift="0"
       font-size="13"
       fill="#000000"
       id="tspan19">4</tspan></text>
  <text
     xml:space="preserve"
     x="490.915710"
     y="264.288269"
     textLength="7.230000"
     lengthAdjust="spacingAndGlyphs"
     id="text20"><tspan
       font-family="Arial"
       font-weight="normal"
       baseline-shift="0"
       font-size="13"
       fill="#000000"
       id="tspan20">5</tspan></text>
  <text
     xml:space="preserve"
     x="516.374878"
     y="278.238281"
     textLength="7.230000"
     lengthAdjust="spacingAndGlyphs"
     id="text21"><tspan
       font-family="Arial"
       font-weight="normal"
       baseline-shift="0"
       font-size="13"
       fill="#000000"
       id="tspan21">6</tspan></text>
  <text
     xml:space="preserve"
     x="549.261414"
     y="256.038269"
     textLength="7.230000"
     lengthAdjust="spacingAndGlyphs"
     id="text22"><tspan
       font-family="Arial"
       font-weight="normal"
       baseline-shift="0"
       font-size="13"
       fill="#000000"
       id="tspan22">7</tspan></text>
  <text
     xml:space="preserve"
     x="549.261414"
     y="225.488266"
     textLength="7.230000"
     lengthAdjust="spacingAndGlyphs"
     id="text23"><tspan
       font-family="Arial"
       font-weight="normal"
       baseline-shift="0"
       font-size="13"
       fill="#000000"
       id="tspan23">8</tspan></text>
  <text
     xml:space="preserve"
     x="516.374878"
     y="203.013718"
     textLength="7.230000"
     lengthAdjust="spacingAndGlyphs"
     id="text24"><tspan
       font-family="Arial"
       font-weight="normal"
       baseline-shift="0"
       font-size="13"
       fill="#000000"
       id="tspan24">9</tspan></text>
  <text
     xml:space="preserve"
     x="487.300690"
     y="214.963715"
     textLength="14.460000"
     lengthAdjust="spacingAndGlyphs"
     id="text25"><tspan
       font-family="Arial"
       font-weight="normal"
       baseline-shift="0"
       font-size="13"
       fill="#000000"
       id="tspan25">10</tspan></text>
</svg>
