<?xml version="1.0" standalone='no'?><!-- IBoard SVG File --><svg xmlns="http://www.w3.org/2000/svg" xmlns:xlink="http://www.w3.org/1999/xlink" viewBox="433.53 186.27 124.93 109.78" height="102.78" width="131.93" version="1.1"><!-- SVG File --><polygon points="469.000000,206.002213 494.530731,220.742355 494.530731,221.423172 493.941132,221.763596 469.000000,207.363846 469.000000,206.683029 " style="fill:rgb(0,0,0);fill-opacity:1.000000"/><polygon points="494.530731,251.584290 469.000000,266.324463 469.000000,265.643646 469.000000,264.962830 493.941132,250.563049 494.530731,250.903473 " style="fill:rgb(0,0,0);fill-opacity:1.000000"/><polygon points="442.879700,251.243896 442.879700,221.082748 443.469299,221.423172 444.058899,221.763596 444.058899,250.563049 443.469299,250.903473 " style="fill:rgb(0,0,0);fill-opacity:1.000000"/><polygon points="494.530731,220.742355 520.061401,206.002213 520.061401,206.683029 520.061401,207.363846 495.120331,221.763596 494.530731,221.423172 " style="fill:rgb(0,0,0);fill-opacity:1.000000"/><polygon points="546.181702,221.082748 546.181702,251.243896 545.592102,250.903473 545.002502,250.563049 545.002502,221.763596 545.592102,221.423172 " style="fill:rgb(0,0,0);fill-opacity:1.000000"/><polygon points="520.061340,266.324463 494.530731,251.584290 494.530731,250.903473 495.120331,250.563049 520.061340,264.962830 520.061340,265.643646 " style="fill:rgb(0,0,0);fill-opacity:1.000000"/><polygon points="442.879700,221.082748 469.000000,206.002213 469.000000,206.683029 469.000000,207.363846 444.058899,221.763596 443.469299,221.423172 " style="fill:rgb(0,0,0);fill-opacity:1.000000"/><polygon points="446.712158,222.955017 468.705200,210.257339 469.000000,210.767960 469.294800,211.278580 447.301758,223.976257 447.006958,223.465637 " style="fill:rgb(0,0,0);fill-opacity:1.000000"/><polygon points="493.941132,250.563049 493.941132,221.763596 494.530731,221.423172 495.120331,221.763596 495.120331,250.563049 494.530731,250.903473 " style="fill:rgb(0,0,0);fill-opacity:1.000000"/><polygon points="497.478760,248.861023 497.478760,223.465622 498.068359,223.465622 498.657959,223.465622 498.657959,248.861023 498.068359,248.861023 " style="fill:rgb(0,0,0);fill-opacity:1.000000"/><polygon points="469.000000,266.324463 442.879700,251.243896 443.469299,250.903473 444.058899,250.563049 469.000000,264.962830 469.000000,265.643646 " style="fill:rgb(0,0,0);fill-opacity:1.000000"/><polygon points="468.705200,262.069336 446.712158,249.371628 447.006958,248.861008 447.301758,248.350388 469.294800,261.048096 469.000000,261.558716 " style="fill:rgb(0,0,0);fill-opacity:1.000000"/><polygon points="520.061401,206.002213 546.181702,221.082748 545.592102,221.423172 545.002502,221.763596 520.061401,207.363846 520.061401,206.683029 " style="fill:rgb(0,0,0);fill-opacity:1.000000"/><polygon points="520.356201,210.257309 542.349243,222.955002 542.054443,223.465622 541.759644,223.976242 519.766602,211.278549 520.061401,210.767929 " style="fill:rgb(0,0,0);fill-opacity:1.000000"/><polygon points="546.181702,251.243896 520.061340,266.324463 520.061340,265.643646 520.061340,264.962830 545.002502,250.563049 545.592102,250.903473 " style="fill:rgb(0,0,0);fill-opacity:1.000000"/><polygon points="542.349243,249.371643 520.356140,262.069366 520.061340,261.558746 519.766541,261.048126 541.759644,248.350403 542.054443,248.861023 " style="fill:rgb(0,0,0);fill-opacity:1.000000"/><path d="M519.989136 221.423019 C 523.989075 221.442627,527.023376 214.457413,520.061401 206.683029 M519.989136 221.423019 C 515.989197 221.403412,513.023560 214.388794,520.061401 206.683029" fill="url(#gradient1)"/><path d="M520.130066 192.683197 C 516.130127 192.663574,513.095825 199.648788,520.061401 206.683029 M520.130066 192.683197 C 524.130005 192.702820,527.095642 199.717453,520.061401 206.683029" style="fill:rgb(255,255,255);fill-opacity:1.000000;stroke-width:1.179213;stroke:rgb(0,0,0);" stroke-linecap="round"/><path d="M545.592102 206.683014 C 541.592102 206.683014,538.592102 213.683014,545.592102 221.423172 M545.592102 206.683014 C 549.592102 206.683014,552.592102 213.683014,545.592102 221.423172" fill="url(#gradient2)"/><path d="M545.592102 235.423172 C 549.592102 235.423172,552.592102 228.423172,545.592102 221.423172 M545.592102 235.423172 C 541.592102 235.423172,538.592102 228.423172,545.592102 221.423172" style="fill:rgb(255,255,255);fill-opacity:1.000000;stroke-width:1.179213;stroke:rgb(0,0,0);" stroke-linecap="round"/><path d="M545.592102 236.163315 C 541.592102 236.163315,538.592102 243.163315,545.592102 250.903473 M545.592102 236.163315 C 549.592102 236.163315,552.592102 243.163315,545.592102 250.903473" fill="url(#gradient3)"/><path d="M545.592102 264.903473 C 549.592102 264.903473,552.592102 257.903473,545.592102 250.903473 M545.592102 264.903473 C 541.592102 264.903473,538.592102 257.903473,545.592102 250.903473" style="fill:rgb(255,255,255);fill-opacity:1.000000;stroke-width:1.179213;stroke:rgb(0,0,0);" stroke-linecap="round"/><path d="M519.887878 280.382874 C 523.887573 280.429932,526.969788 273.465729,520.061340 265.643646 M519.887878 280.382874 C 515.888184 280.335815,512.970764 273.300964,520.061340 265.643646" fill="url(#gradient4)"/><path d="M520.226074 251.644623 C 516.226379 251.597549,513.144226 258.561768,520.061340 265.643646 M520.226074 251.644623 C 524.225769 251.691696,527.143250 258.726501,520.061340 265.643646" style="fill:rgb(255,255,255);fill-opacity:1.000000;stroke-width:1.179213;stroke:rgb(0,0,0);" stroke-linecap="round"/><path d="M469.000000 191.942871 C 465.000000 191.942871,462.000000 198.942871,469.000000 206.683029 M469.000000 191.942871 C 473.000000 191.942871,476.000000 198.942871,469.000000 206.683029" fill="url(#gradient5)"/><path d="M469.000000 220.683029 C 473.000000 220.683029,476.000000 213.683029,469.000000 206.683029 M469.000000 220.683029 C 465.000000 220.683029,462.000000 213.683029,469.000000 206.683029" style="fill:rgb(255,255,255);fill-opacity:1.000000;stroke-width:1.179213;stroke:rgb(0,0,0);" stroke-linecap="round"/><path d="M443.454651 236.163376 C 447.454651 236.167358,450.461609 229.170334,443.469299 221.423172 M443.454651 236.163376 C 439.454651 236.159393,436.461609 229.156433,443.469299 221.423172" fill="url(#gradient6)"/><path d="M443.483215 207.423172 C 439.483215 207.419189,436.476257 214.416214,443.469299 221.423172 M443.483215 207.423172 C 447.483215 207.427155,450.476257 214.430115,443.469299 221.423172" style="fill:rgb(255,255,255);fill-opacity:1.000000;stroke-width:1.179213;stroke:rgb(0,0,0);" stroke-linecap="round"/><path d="M443.358185 265.643280 C 447.358063 265.673431,450.410767 258.696259,443.469299 250.903473 M443.358185 265.643280 C 439.358307 265.613129,436.411163 258.590698,443.469299 250.903473" fill="url(#gradient7)"/><path d="M443.574829 236.903870 C 439.574951 236.873718,436.522278 243.850922,443.469299 250.903473 M443.574829 236.903870 C 447.574707 236.934021,450.521851 243.956436,443.469299 250.903473" style="fill:rgb(255,255,255);fill-opacity:1.000000;stroke-width:1.179213;stroke:rgb(0,0,0);" stroke-linecap="round"/><path d="M469.000000 250.903488 C 465.000000 250.903488,462.000000 257.903503,469.000000 265.643646 M469.000000 250.903488 C 473.000000 250.903488,476.000000 257.903503,469.000000 265.643646" fill="url(#gradient8)"/><path d="M469.000000 279.643646 C 473.000000 279.643646,476.000000 272.643646,469.000000 265.643646 M469.000000 279.643646 C 465.000000 279.643646,462.000000 272.643646,469.000000 265.643646" style="fill:rgb(255,255,255);fill-opacity:1.000000;stroke-width:1.179213;stroke:rgb(0,0,0);" stroke-linecap="round"/><defs><radialGradient id="gradient1" cx="50.000000%" cy="50.000000%" r="50.000000%" fx="50.000000%" fy="50.000000%"><stop style="stop-color:rgb(255,255,255);stop-opacity:1.000000" offset="0%"/><stop style="stop-color:rgb(0,0,0);stop-opacity:1.000000" offset="100%"/></radialGradient><radialGradient id="gradient2" cx="50.000000%" cy="50.000000%" r="50.000000%" fx="50.000000%" fy="50.000000%"><stop style="stop-color:rgb(255,255,255);stop-opacity:1.000000" offset="0%"/><stop style="stop-color:rgb(0,0,0);stop-opacity:1.000000" offset="100%"/></radialGradient><radialGradient id="gradient3" cx="50.000000%" cy="50.000000%" r="50.000000%" fx="50.000000%" fy="50.000000%"><stop style="stop-color:rgb(255,255,255);stop-opacity:1.000000" offset="0%"/><stop style="stop-color:rgb(0,0,0);stop-opacity:1.000000" offset="100%"/></radialGradient><radialGradient id="gradient4" cx="50.000000%" cy="50.000000%" r="50.000000%" fx="50.000000%" fy="50.000000%"><stop style="stop-color:rgb(255,255,255);stop-opacity:1.000000" offset="0%"/><stop style="stop-color:rgb(0,0,0);stop-opacity:1.000000" offset="100%"/></radialGradient><radialGradient id="gradient5" cx="50.000000%" cy="50.000000%" r="50.000000%" fx="50.000000%" fy="50.000000%"><stop style="stop-color:rgb(255,255,255);stop-opacity:1.000000" offset="0%"/><stop style="stop-color:rgb(0,0,0);stop-opacity:1.000000" offset="100%"/></radialGradient><radialGradient id="gradient6" cx="50.000000%" cy="50.000000%" r="50.000000%" fx="50.000000%" fy="50.000000%"><stop style="stop-color:rgb(255,255,255);stop-opacity:1.000000" offset="0%"/><stop style="stop-color:rgb(0,0,0);stop-opacity:1.000000" offset="100%"/></radialGradient><radialGradient id="gradient7" cx="50.000000%" cy="50.000000%" r="50.000000%" fx="50.000000%" fy="50.000000%"><stop style="stop-color:rgb(255,255,255);stop-opacity:1.000000" offset="0%"/><stop style="stop-color:rgb(0,0,0);stop-opacity:1.000000" offset="100%"/></radialGradient><radialGradient id="gradient8" cx="50.000000%" cy="50.000000%" r="50.000000%" fx="50.000000%" fy="50.000000%"><stop style="stop-color:rgb(255,255,255);stop-opacity:1.000000" offset="0%"/><stop style="stop-color:rgb(0,0,0);stop-opacity:1.000000" offset="100%"/></radialGradient></defs></svg>