<?xml version="1.0" standalone='no'?><!-- IBoard SVG File --><svg xmlns="http://www.w3.org/2000/svg" xmlns:xlink="http://www.w3.org/1999/xlink" viewBox="433.40 186.27 125.06 109.04" height="102.04" width="132.06" version="1.1"><!-- SVG File --><polygon points="469.000000,206.002213 494.530731,220.742355 494.530731,221.423172 493.941132,221.763596 469.000000,207.363846 469.000000,206.683029 " style="fill:rgb(0,0,0);fill-opacity:1.000000"/><polygon points="494.530731,251.584290 469.000000,266.324463 469.000000,265.643646 469.000000,264.962830 493.941132,250.563049 494.530731,250.903473 " style="fill:rgb(0,0,0);fill-opacity:1.000000"/><polygon points="442.879700,251.243896 442.879700,221.082748 443.469299,221.423172 444.058899,221.763596 444.058899,250.563049 443.469299,250.903473 " style="fill:rgb(0,0,0);fill-opacity:1.000000"/><polygon points="494.530731,220.742355 520.061401,206.002213 520.061401,206.683029 520.061401,207.363846 495.120331,221.763596 494.530731,221.423172 " style="fill:rgb(0,0,0);fill-opacity:1.000000"/><polygon points="546.181702,221.082748 546.181702,251.243896 545.592102,250.903473 545.002502,250.563049 545.002502,221.763596 545.592102,221.423172 " style="fill:rgb(0,0,0);fill-opacity:1.000000"/><polygon points="520.061340,266.324463 494.530731,251.584290 494.530731,250.903473 495.120331,250.563049 520.061340,264.962830 520.061340,265.643646 " style="fill:rgb(0,0,0);fill-opacity:1.000000"/><polygon points="442.879700,221.082748 469.000000,206.002213 469.000000,206.683029 469.000000,207.363846 444.058899,221.763596 443.469299,221.423172 " style="fill:rgb(0,0,0);fill-opacity:1.000000"/><polygon points="446.712158,222.955017 468.705200,210.257339 469.000000,210.767960 469.294800,211.278580 447.301758,223.976257 447.006958,223.465637 " style="fill:rgb(0,0,0);fill-opacity:1.000000"/><polygon points="493.941132,250.563049 493.941132,221.763596 494.530731,221.423172 495.120331,221.763596 495.120331,250.563049 494.530731,250.903473 " style="fill:rgb(0,0,0);fill-opacity:1.000000"/><polygon points="497.478760,248.861023 497.478760,223.465622 498.068359,223.465622 498.657959,223.465622 498.657959,248.861023 498.068359,248.861023 " style="fill:rgb(0,0,0);fill-opacity:1.000000"/><polygon points="469.000000,266.324463 442.879700,251.243896 443.469299,250.903473 444.058899,250.563049 469.000000,264.962830 469.000000,265.643646 " style="fill:rgb(0,0,0);fill-opacity:1.000000"/><polygon points="468.705200,262.069336 446.712158,249.371628 447.006958,248.861008 447.301758,248.350388 469.294800,261.048096 469.000000,261.558716 " style="fill:rgb(0,0,0);fill-opacity:1.000000"/><polygon points="520.061401,206.002213 546.181702,221.082748 545.592102,221.423172 545.002502,221.763596 520.061401,207.363846 520.061401,206.683029 " style="fill:rgb(0,0,0);fill-opacity:1.000000"/><polygon points="520.356201,210.257309 542.349243,222.955002 542.054443,223.465622 541.759644,223.976242 519.766602,211.278549 520.061401,210.767929 " style="fill:rgb(0,0,0);fill-opacity:1.000000"/><polygon points="546.181702,251.243896 520.061340,266.324463 520.061340,265.643646 520.061340,264.962830 545.002502,250.563049 545.592102,250.903473 " style="fill:rgb(0,0,0);fill-opacity:1.000000"/><polygon points="542.349243,249.371643 520.356140,262.069366 520.061340,261.558746 519.766541,261.048126 541.759644,248.350403 542.054443,248.861023 " style="fill:rgb(0,0,0);fill-opacity:1.000000"/><path d="M520.137817 191.943069 C 516.137878 191.922333,513.101624 198.906693,520.061401 206.683029 M520.137817 191.943069 C 524.137756 191.963806,527.101440 198.979263,520.061401 206.683029" fill="url(#gradient1)"/><path d="M519.988831 220.682846 C 523.988770 220.703583,527.025024 213.719223,520.061401 206.683029 M519.988831 220.682846 C 515.988892 220.662109,513.025208 213.646637,520.061401 206.683029" style="fill:rgb(255,255,255);fill-opacity:1.000000;stroke-width:1.179213;stroke:rgb(0,0,0);" stroke-linecap="round"/><path d="M545.592102 206.683029 C 541.592102 206.683029,538.592102 213.683029,545.592102 221.423172 M545.592102 206.683029 C 549.592102 206.683029,552.592102 213.683029,545.592102 221.423172" fill="url(#gradient2)"/><path d="M545.592102 235.423172 C 549.592102 235.423172,552.592102 228.423172,545.592102 221.423172 M545.592102 235.423172 C 541.592102 235.423172,538.592102 228.423172,545.592102 221.423172" style="fill:rgb(255,255,255);fill-opacity:1.000000;stroke-width:1.179213;stroke:rgb(0,0,0);" stroke-linecap="round"/><path d="M545.592102 236.163315 C 541.592102 236.163315,538.592102 243.163315,545.592102 250.903473 M545.592102 236.163315 C 549.592102 236.163315,552.592102 243.163315,545.592102 250.903473" fill="url(#gradient3)"/><path d="M545.592102 264.903473 C 549.592102 264.903473,552.592102 257.903473,545.592102 250.903473 M545.592102 264.903473 C 541.592102 264.903473,538.592102 257.903473,545.592102 250.903473" style="fill:rgb(255,255,255);fill-opacity:1.000000;stroke-width:1.179213;stroke:rgb(0,0,0);" stroke-linecap="round"/><path d="M520.287170 250.905090 C 516.287659 250.843811,513.180786 257.797028,520.061340 265.643646 M520.287170 250.905090 C 524.286682 250.966370,527.179138 258.011505,520.061340 265.643646" fill="url(#gradient4)"/><path d="M519.846863 279.641998 C 523.846375 279.703278,526.953308 272.750061,520.061340 265.643646 M519.846863 279.641998 C 515.847351 279.580719,512.954956 272.535583,520.061340 265.643646" style="fill:rgb(255,255,255);fill-opacity:1.000000;stroke-width:1.179213;stroke:rgb(0,0,0);" stroke-linecap="round"/><path d="M469.000000 191.942871 C 465.000000 191.942871,462.000000 198.942871,469.000000 206.683029 M469.000000 191.942871 C 473.000000 191.942871,476.000000 198.942871,469.000000 206.683029" fill="url(#gradient5)"/><path d="M469.000000 220.683029 C 473.000000 220.683029,476.000000 213.683029,469.000000 206.683029 M469.000000 220.683029 C 465.000000 220.683029,462.000000 213.683029,469.000000 206.683029" style="fill:rgb(255,255,255);fill-opacity:1.000000;stroke-width:1.179213;stroke:rgb(0,0,0);" stroke-linecap="round"/><path d="M443.729736 206.685349 C 439.730347 206.614670,436.607147 213.560593,443.469299 221.423172 M443.729736 206.685349 C 447.729126 206.756027,450.604950 213.807938,443.469299 221.423172" fill="url(#gradient6)"/><path d="M443.221954 235.420990 C 447.221344 235.491653,450.344543 228.545746,443.469299 221.423172 M443.221954 235.420990 C 439.222565 235.350327,436.346710 228.298416,443.469299 221.423172" style="fill:rgb(255,255,255);fill-opacity:1.000000;stroke-width:1.179213;stroke:rgb(0,0,0);" stroke-linecap="round"/><path d="M443.806152 236.167068 C 439.807190 236.075653,436.648010 243.005280,443.469299 250.903473 M443.806152 236.167068 C 447.805115 236.258484,450.644348 243.325211,443.469299 250.903473" fill="url(#gradient7)"/><path d="M443.149353 264.899811 C 447.148315 264.991211,450.307495 258.061615,443.469299 250.903473 M443.149353 264.899811 C 439.150391 264.808411,436.311157 257.741669,443.469299 250.903473" style="fill:rgb(255,255,255);fill-opacity:1.000000;stroke-width:1.179213;stroke:rgb(0,0,0);" stroke-linecap="round"/><path d="M469.000000 250.903473 C 465.000000 250.903473,462.000000 257.903473,469.000000 265.643646 M469.000000 250.903473 C 473.000000 250.903473,476.000000 257.903473,469.000000 265.643646" fill="url(#gradient8)"/><path d="M469.000000 279.643646 C 473.000000 279.643646,476.000000 272.643646,469.000000 265.643646 M469.000000 279.643646 C 465.000000 279.643646,462.000000 272.643646,469.000000 265.643646" style="fill:rgb(255,255,255);fill-opacity:1.000000;stroke-width:1.179213;stroke:rgb(0,0,0);" stroke-linecap="round"/><path d="M494.530731 206.683014 C 490.530731 206.683014,487.530731 213.683014,494.530731 221.423172 M494.530731 206.683014 C 498.530731 206.683014,501.530731 213.683014,494.530731 221.423172" fill="url(#gradient9)"/><path d="M494.530731 235.423172 C 498.530731 235.423172,501.530731 228.423172,494.530731 221.423172 M494.530731 235.423172 C 490.530731 235.423172,487.530731 228.423172,494.530731 221.423172" style="fill:rgb(255,255,255);fill-opacity:1.000000;stroke-width:1.179213;stroke:rgb(0,0,0);" stroke-linecap="round"/><path d="M494.530731 236.163315 C 490.530731 236.163315,487.530731 243.163315,494.530731 250.903473 M494.530731 236.163315 C 498.530731 236.163315,501.530731 243.163315,494.530731 250.903473" fill="url(#gradient10)"/><path d="M494.530731 264.903473 C 498.530731 264.903473,501.530731 257.903473,494.530731 250.903473 M494.530731 264.903473 C 490.530731 264.903473,487.530731 257.903473,494.530731 250.903473" style="fill:rgb(255,255,255);fill-opacity:1.000000;stroke-width:1.179213;stroke:rgb(0,0,0);" stroke-linecap="round"/><defs><radialGradient id="gradient1" cx="50.000000%" cy="50.000000%" r="50.000000%" fx="50.000000%" fy="50.000000%"><stop style="stop-color:rgb(255,255,255);stop-opacity:1.000000" offset="0%"/><stop style="stop-color:rgb(0,0,0);stop-opacity:1.000000" offset="100%"/></radialGradient><radialGradient id="gradient2" cx="50.000000%" cy="50.000000%" r="50.000000%" fx="50.000000%" fy="50.000000%"><stop style="stop-color:rgb(255,255,255);stop-opacity:1.000000" offset="0%"/><stop style="stop-color:rgb(0,0,0);stop-opacity:1.000000" offset="100%"/></radialGradient><radialGradient id="gradient3" cx="50.000000%" cy="50.000000%" r="50.000000%" fx="50.000000%" fy="50.000000%"><stop style="stop-color:rgb(255,255,255);stop-opacity:1.000000" offset="0%"/><stop style="stop-color:rgb(0,0,0);stop-opacity:1.000000" offset="100%"/></radialGradient><radialGradient id="gradient4" cx="50.000000%" cy="50.000000%" r="50.000000%" fx="50.000000%" fy="50.000000%"><stop style="stop-color:rgb(255,255,255);stop-opacity:1.000000" offset="0%"/><stop style="stop-color:rgb(0,0,0);stop-opacity:1.000000" offset="100%"/></radialGradient><radialGradient id="gradient5" cx="50.000000%" cy="50.000000%" r="50.000000%" fx="50.000000%" fy="50.000000%"><stop style="stop-color:rgb(255,255,255);stop-opacity:1.000000" offset="0%"/><stop style="stop-color:rgb(0,0,0);stop-opacity:1.000000" offset="100%"/></radialGradient><radialGradient id="gradient6" cx="50.000000%" cy="50.000000%" r="50.000000%" fx="50.000000%" fy="50.000000%"><stop style="stop-color:rgb(255,255,255);stop-opacity:1.000000" offset="0%"/><stop style="stop-color:rgb(0,0,0);stop-opacity:1.000000" offset="100%"/></radialGradient><radialGradient id="gradient7" cx="50.000000%" cy="50.000000%" r="50.000000%" fx="50.000000%" fy="50.000000%"><stop style="stop-color:rgb(255,255,255);stop-opacity:1.000000" offset="0%"/><stop style="stop-color:rgb(0,0,0);stop-opacity:1.000000" offset="100%"/></radialGradient><radialGradient id="gradient8" cx="50.000000%" cy="50.000000%" r="50.000000%" fx="50.000000%" fy="50.000000%"><stop style="stop-color:rgb(255,255,255);stop-opacity:1.000000" offset="0%"/><stop style="stop-color:rgb(0,0,0);stop-opacity:1.000000" offset="100%"/></radialGradient><radialGradient id="gradient9" cx="50.000000%" cy="50.000000%" r="50.000000%" fx="50.000000%" fy="50.000000%"><stop style="stop-color:rgb(255,255,255);stop-opacity:1.000000" offset="0%"/><stop style="stop-color:rgb(0,0,0);stop-opacity:1.000000" offset="100%"/></radialGradient><radialGradient id="gradient10" cx="50.000000%" cy="50.000000%" r="50.000000%" fx="50.000000%" fy="50.000000%"><stop style="stop-color:rgb(255,255,255);stop-opacity:1.000000" offset="0%"/><stop style="stop-color:rgb(0,0,0);stop-opacity:1.000000" offset="100%"/></radialGradient></defs></svg>