<?xml version="1.0" standalone='no'?><!-- IBoard SVG File --><svg xmlns="http://www.w3.org/2000/svg" xmlns:xlink="http://www.w3.org/1999/xlink" viewBox="433.39 186.27 125.23 109.78" height="102.78" width="132.23" version="1.1"><!-- SVG File --><polygon points="469.000000,206.002213 494.530731,220.742355 494.530731,221.423172 493.941132,221.763596 469.000000,207.363846 469.000000,206.683029 " style="fill:rgb(0,0,0);fill-opacity:1.000000"/><polygon points="494.530731,251.584290 469.000000,266.324463 469.000000,265.643646 469.000000,264.962830 493.941132,250.563049 494.530731,250.903473 " style="fill:rgb(0,0,0);fill-opacity:1.000000"/><polygon points="442.879700,251.243896 442.879700,221.082748 443.469299,221.423172 444.058899,221.763596 444.058899,250.563049 443.469299,250.903473 " style="fill:rgb(0,0,0);fill-opacity:1.000000"/><polygon points="494.530731,220.742355 520.061401,206.002213 520.061401,206.683029 520.061401,207.363846 495.120331,221.763596 494.530731,221.423172 " style="fill:rgb(0,0,0);fill-opacity:1.000000"/><polygon points="546.181702,221.082748 546.181702,251.243896 545.592102,250.903473 545.002502,250.563049 545.002502,221.763596 545.592102,221.423172 " style="fill:rgb(0,0,0);fill-opacity:1.000000"/><polygon points="520.061340,266.324463 494.530731,251.584290 494.530731,250.903473 495.120331,250.563049 520.061340,264.962830 520.061340,265.643646 " style="fill:rgb(0,0,0);fill-opacity:1.000000"/><polygon points="442.879700,221.082748 469.000000,206.002213 469.000000,206.683029 469.000000,207.363846 444.058899,221.763596 443.469299,221.423172 " style="fill:rgb(0,0,0);fill-opacity:1.000000"/><polygon points="446.712158,222.955017 468.705200,210.257339 469.000000,210.767960 469.294800,211.278580 447.301758,223.976257 447.006958,223.465637 " style="fill:rgb(0,0,0);fill-opacity:1.000000"/><polygon points="493.941132,250.563049 493.941132,221.763596 494.530731,221.423172 495.120331,221.763596 495.120331,250.563049 494.530731,250.903473 " style="fill:rgb(0,0,0);fill-opacity:1.000000"/><polygon points="497.478760,248.861023 497.478760,223.465622 498.068359,223.465622 498.657959,223.465622 498.657959,248.861023 498.068359,248.861023 " style="fill:rgb(0,0,0);fill-opacity:1.000000"/><polygon points="469.000000,266.324463 442.879700,251.243896 443.469299,250.903473 444.058899,250.563049 469.000000,264.962830 469.000000,265.643646 " style="fill:rgb(0,0,0);fill-opacity:1.000000"/><polygon points="468.705200,262.069336 446.712158,249.371628 447.006958,248.861008 447.301758,248.350388 469.294800,261.048096 469.000000,261.558716 " style="fill:rgb(0,0,0);fill-opacity:1.000000"/><polygon points="520.061401,206.002213 546.181702,221.082748 545.592102,221.423172 545.002502,221.763596 520.061401,207.363846 520.061401,206.683029 " style="fill:rgb(0,0,0);fill-opacity:1.000000"/><polygon points="520.356201,210.257309 542.349243,222.955002 542.054443,223.465622 541.759644,223.976242 519.766602,211.278549 520.061401,210.767929 " style="fill:rgb(0,0,0);fill-opacity:1.000000"/><polygon points="546.181702,251.243896 520.061340,266.324463 520.061340,265.643646 520.061340,264.962830 545.002502,250.563049 545.592102,250.903473 " style="fill:rgb(0,0,0);fill-opacity:1.000000"/><polygon points="542.349243,249.371643 520.356140,262.069366 520.061340,261.558746 519.766541,261.048126 541.759644,248.350403 542.054443,248.861023 " style="fill:rgb(0,0,0);fill-opacity:1.000000"/><path d="M519.767334 221.420334 C 523.766541 221.500137,526.905579 214.561371,520.061401 206.683029 M519.767334 221.420334 C 515.768127 221.340530,512.908386 214.282074,520.061401 206.683029" fill="url(#gradient1)"/><path d="M520.340698 192.685822 C 516.341492 192.606018,513.202454 199.544769,520.061401 206.683029 M520.340698 192.685822 C 524.339905 192.765625,527.199646 199.824081,520.061401 206.683029" style="fill:rgb(255,255,255);fill-opacity:1.000000;stroke-width:1.179213;stroke:rgb(0,0,0);" stroke-linecap="round"/><path d="M545.575867 236.163269 C 549.575867 236.167679,552.583557 229.170990,545.592102 221.423172 M545.575867 236.163269 C 541.575867 236.158859,538.583557 229.155579,545.592102 221.423172" fill="url(#gradient2)"/><path d="M545.607544 207.423187 C 541.607544 207.418777,538.599854 214.415466,545.592102 221.423172 M545.607544 207.423187 C 549.607544 207.427597,552.599792 214.430908,545.592102 221.423172" style="fill:rgb(255,255,255);fill-opacity:1.000000;stroke-width:1.179213;stroke:rgb(0,0,0);" stroke-linecap="round"/><path d="M545.842529 236.165512 C 541.843079 236.097549,538.724609 243.045578,545.592102 250.903473 M545.842529 236.165512 C 549.841980 236.233475,552.722595 243.283417,545.592102 250.903473" fill="url(#gradient3)"/><path d="M545.354248 264.901459 C 549.353699 264.969421,552.472168 258.021393,545.592102 250.903473 M545.354248 264.901459 C 541.354797 264.833496,538.474182 257.783539,545.592102 250.903473" style="fill:rgb(255,255,255);fill-opacity:1.000000;stroke-width:1.179213;stroke:rgb(0,0,0);" stroke-linecap="round"/><path d="M520.417786 250.905228 C 516.418274 250.842422,513.308716 257.794464,520.186340 265.643646 M520.417786 250.905228 C 524.417297 250.968033,527.307007 258.014282,520.186340 265.643646" fill="url(#gradient4)"/><path d="M519.966492 279.641907 C 523.966003 279.704712,527.075562 272.752686,520.186340 265.643646 M519.966492 279.641907 C 515.966980 279.579102,513.077271 272.532837,520.186340 265.643646" style="fill:rgb(255,255,255);fill-opacity:1.000000;stroke-width:1.179213;stroke:rgb(0,0,0);" stroke-linecap="round"/><path d="M469.000000 191.942871 C 465.000000 191.942871,462.000000 198.942871,469.000000 206.683029 M469.000000 191.942871 C 473.000000 191.942871,476.000000 198.942871,469.000000 206.683029" fill="url(#gradient5)"/><path d="M469.000000 220.683029 C 473.000000 220.683029,476.000000 213.683029,469.000000 206.683029 M469.000000 220.683029 C 465.000000 220.683029,462.000000 213.683029,469.000000 206.683029" style="fill:rgb(255,255,255);fill-opacity:1.000000;stroke-width:1.179213;stroke:rgb(0,0,0);" stroke-linecap="round"/><path d="M443.835022 206.687607 C 439.836243 206.588364,436.663483 213.511765,443.469299 221.423172 M443.835022 206.687607 C 447.833801 206.786850,450.659180 213.859131,443.469299 221.423172" fill="url(#gradient6)"/><path d="M443.121948 235.418869 C 447.120728 235.518112,450.293457 228.594696,443.469299 221.423172 M443.121948 235.418869 C 439.123169 235.319626,436.297791 228.247345,443.469299 221.423172" style="fill:rgb(255,255,255);fill-opacity:1.000000;stroke-width:1.179213;stroke:rgb(0,0,0);" stroke-linecap="round"/><path d="M443.140198 265.640106 C 447.139191 265.729401,450.294739 258.798126,443.469299 250.903473 M443.140198 265.640106 C 439.141205 265.550812,436.298218 258.485565,443.469299 250.903473" fill="url(#gradient7)"/><path d="M443.781860 236.906967 C 439.782867 236.817657,436.627319 243.748947,443.469299 250.903473 M443.781860 236.906967 C 447.780853 236.996277,450.623840 244.061493,443.469299 250.903473" style="fill:rgb(255,255,255);fill-opacity:1.000000;stroke-width:1.179213;stroke:rgb(0,0,0);" stroke-linecap="round"/><path d="M468.749146 280.381622 C 472.748566 280.449707,475.867249 273.501770,469.000000 265.643646 M468.749146 280.381622 C 464.749725 280.313538,461.869293 273.263519,469.000000 265.643646" fill="url(#gradient8)"/><path d="M469.238251 251.645676 C 465.238831 251.577606,462.120148 258.525543,469.000000 265.643646 M469.238251 251.645676 C 473.237671 251.713745,476.118103 258.763794,469.000000 265.643646" style="fill:rgb(255,255,255);fill-opacity:1.000000;stroke-width:1.179213;stroke:rgb(0,0,0);" stroke-linecap="round"/><defs><radialGradient id="gradient1" cx="50.000000%" cy="50.000000%" r="50.000000%" fx="50.000000%" fy="50.000000%"><stop style="stop-color:rgb(255,255,255);stop-opacity:1.000000" offset="0%"/><stop style="stop-color:rgb(0,0,0);stop-opacity:1.000000" offset="100%"/></radialGradient><radialGradient id="gradient2" cx="50.000000%" cy="50.000000%" r="50.000000%" fx="50.000000%" fy="50.000000%"><stop style="stop-color:rgb(255,255,255);stop-opacity:1.000000" offset="0%"/><stop style="stop-color:rgb(0,0,0);stop-opacity:1.000000" offset="100%"/></radialGradient><radialGradient id="gradient3" cx="50.000000%" cy="50.000000%" r="50.000000%" fx="50.000000%" fy="50.000000%"><stop style="stop-color:rgb(255,255,255);stop-opacity:1.000000" offset="0%"/><stop style="stop-color:rgb(0,0,0);stop-opacity:1.000000" offset="100%"/></radialGradient><radialGradient id="gradient4" cx="50.000000%" cy="50.000000%" r="50.000000%" fx="50.000000%" fy="50.000000%"><stop style="stop-color:rgb(255,255,255);stop-opacity:1.000000" offset="0%"/><stop style="stop-color:rgb(0,0,0);stop-opacity:1.000000" offset="100%"/></radialGradient><radialGradient id="gradient5" cx="50.000000%" cy="50.000000%" r="50.000000%" fx="50.000000%" fy="50.000000%"><stop style="stop-color:rgb(255,255,255);stop-opacity:1.000000" offset="0%"/><stop style="stop-color:rgb(0,0,0);stop-opacity:1.000000" offset="100%"/></radialGradient><radialGradient id="gradient6" cx="50.000000%" cy="50.000000%" r="50.000000%" fx="50.000000%" fy="50.000000%"><stop style="stop-color:rgb(255,255,255);stop-opacity:1.000000" offset="0%"/><stop style="stop-color:rgb(0,0,0);stop-opacity:1.000000" offset="100%"/></radialGradient><radialGradient id="gradient7" cx="50.000000%" cy="50.000000%" r="50.000000%" fx="50.000000%" fy="50.000000%"><stop style="stop-color:rgb(255,255,255);stop-opacity:1.000000" offset="0%"/><stop style="stop-color:rgb(0,0,0);stop-opacity:1.000000" offset="100%"/></radialGradient><radialGradient id="gradient8" cx="50.000000%" cy="50.000000%" r="50.000000%" fx="50.000000%" fy="50.000000%"><stop style="stop-color:rgb(255,255,255);stop-opacity:1.000000" offset="0%"/><stop style="stop-color:rgb(0,0,0);stop-opacity:1.000000" offset="100%"/></radialGradient></defs></svg>