<?xml version="1.0" standalone='no'?><!-- IBoard SVG File --><svg xmlns="http://www.w3.org/2000/svg" xmlns:xlink="http://www.w3.org/1999/xlink" viewBox="433.44 186.27 125.12 109.04" height="102.04" width="132.12" version="1.1"><!-- SVG File --><polygon points="469.000000,206.002213 494.530731,220.742355 494.530731,221.423172 493.941132,221.763596 469.000000,207.363846 469.000000,206.683029 " style="fill:rgb(0,0,0);fill-opacity:1.000000"/><polygon points="494.530731,251.584290 469.000000,266.324463 469.000000,265.643646 469.000000,264.962830 493.941132,250.563049 494.530731,250.903473 " style="fill:rgb(0,0,0);fill-opacity:1.000000"/><polygon points="442.879700,251.243896 442.879700,221.082748 443.469299,221.423172 444.058899,221.763596 444.058899,250.563049 443.469299,250.903473 " style="fill:rgb(0,0,0);fill-opacity:1.000000"/><polygon points="494.530731,220.742355 520.061401,206.002213 520.061401,206.683029 520.061401,207.363846 495.120331,221.763596 494.530731,221.423172 " style="fill:rgb(0,0,0);fill-opacity:1.000000"/><polygon points="546.181702,221.082748 546.181702,251.243896 545.592102,250.903473 545.002502,250.563049 545.002502,221.763596 545.592102,221.423172 " style="fill:rgb(0,0,0);fill-opacity:1.000000"/><polygon points="520.061340,266.324463 494.530731,251.584290 494.530731,250.903473 495.120331,250.563049 520.061340,264.962830 520.061340,265.643646 " style="fill:rgb(0,0,0);fill-opacity:1.000000"/><polygon points="442.879700,221.082748 469.000000,206.002213 469.000000,206.683029 469.000000,207.363846 444.058899,221.763596 443.469299,221.423172 " style="fill:rgb(0,0,0);fill-opacity:1.000000"/><polygon points="446.712158,222.955017 468.705200,210.257339 469.000000,210.767960 469.294800,211.278580 447.301758,223.976257 447.006958,223.465637 " style="fill:rgb(0,0,0);fill-opacity:1.000000"/><polygon points="493.941132,250.563049 493.941132,221.763596 494.530731,221.423172 495.120331,221.763596 495.120331,250.563049 494.530731,250.903473 " style="fill:rgb(0,0,0);fill-opacity:1.000000"/><polygon points="497.478760,248.861023 497.478760,223.465622 498.068359,223.465622 498.657959,223.465622 498.657959,248.861023 498.068359,248.861023 " style="fill:rgb(0,0,0);fill-opacity:1.000000"/><polygon points="469.000000,266.324463 442.879700,251.243896 443.469299,250.903473 444.058899,250.563049 469.000000,264.962830 469.000000,265.643646 " style="fill:rgb(0,0,0);fill-opacity:1.000000"/><polygon points="468.705200,262.069336 446.712158,249.371628 447.006958,248.861008 447.301758,248.350388 469.294800,261.048096 469.000000,261.558716 " style="fill:rgb(0,0,0);fill-opacity:1.000000"/><polygon points="520.061401,206.002213 546.181702,221.082748 545.592102,221.423172 545.002502,221.763596 520.061401,207.363846 520.061401,206.683029 " style="fill:rgb(0,0,0);fill-opacity:1.000000"/><polygon points="520.356201,210.257309 542.349243,222.955002 542.054443,223.465622 541.759644,223.976242 519.766602,211.278549 520.061401,210.767929 " style="fill:rgb(0,0,0);fill-opacity:1.000000"/><polygon points="546.181702,251.243896 520.061340,266.324463 520.061340,265.643646 520.061340,264.962830 545.002502,250.563049 545.592102,250.903473 " style="fill:rgb(0,0,0);fill-opacity:1.000000"/><polygon points="542.349243,249.371643 520.356140,262.069366 520.061340,261.558746 519.766541,261.048126 541.759644,248.350403 542.054443,248.861023 " style="fill:rgb(0,0,0);fill-opacity:1.000000"/><path d="M520.322083 191.945129 C 516.322693 191.874390,513.199402 198.820236,520.061401 206.683029 M520.322083 191.945129 C 524.321472 192.015869,527.197205 199.067825,520.061401 206.683029" fill="url(#gradient1)"/><path d="M519.813782 220.680847 C 523.813171 220.751602,526.936523 213.805756,520.061401 206.683029 M519.813782 220.680847 C 515.814392 220.610092,512.938721 213.558121,520.061401 206.683029" style="fill:rgb(255,255,255);fill-opacity:1.000000;stroke-width:1.179213;stroke:rgb(0,0,0);" stroke-linecap="round"/><path d="M545.422668 236.162323 C 549.422424 236.208298,552.502686 229.243256,545.592102 221.423172 M545.422668 236.162323 C 541.422913 236.116348,538.503601 229.082336,545.592102 221.423172" fill="url(#gradient2)"/><path d="M545.753052 207.424103 C 541.753296 207.378113,538.673035 214.343140,545.592102 221.423172 M545.753052 207.424103 C 549.752808 207.470093,552.672119 214.504120,545.592102 221.423172" style="fill:rgb(255,255,255);fill-opacity:1.000000;stroke-width:1.179213;stroke:rgb(0,0,0);" stroke-linecap="round"/><path d="M545.448853 265.642975 C 549.448669 265.681854,552.516541 258.711365,545.592102 250.903473 M545.448853 265.642975 C 541.449036 265.604095,538.517212 258.575287,545.592102 250.903473" fill="url(#gradient3)"/><path d="M545.728149 236.904129 C 541.728333 236.865265,538.660461 243.835770,545.592102 250.903473 M545.728149 236.904129 C 549.727966 236.942993,552.659790 243.971817,545.592102 250.903473" style="fill:rgb(255,255,255);fill-opacity:1.000000;stroke-width:1.179213;stroke:rgb(0,0,0);" stroke-linecap="round"/><path d="M520.312683 250.905594 C 516.313293 250.837387,513.194336 257.785217,520.061340 265.643646 M520.312683 250.905594 C 524.312073 250.973801,527.192322 258.023926,520.061340 265.643646" fill="url(#gradient4)"/><path d="M519.822632 279.641602 C 523.822021 279.709808,526.940979 272.761963,520.061340 265.643646 M519.822632 279.641602 C 515.823242 279.573395,512.942993 272.523285,520.061340 265.643646" style="fill:rgb(255,255,255);fill-opacity:1.000000;stroke-width:1.179213;stroke:rgb(0,0,0);" stroke-linecap="round"/><path d="M469.000000 191.942871 C 465.000000 191.942871,462.000000 198.942871,469.000000 206.683029 M469.000000 191.942871 C 473.000000 191.942871,476.000000 198.942871,469.000000 206.683029" fill="url(#gradient5)"/><path d="M469.000000 220.683029 C 473.000000 220.683029,476.000000 213.683029,469.000000 206.683029 M469.000000 220.683029 C 465.000000 220.683029,462.000000 213.683029,469.000000 206.683029" style="fill:rgb(255,255,255);fill-opacity:1.000000;stroke-width:1.179213;stroke:rgb(0,0,0);" stroke-linecap="round"/><path d="M443.454620 236.163376 C 447.454620 236.167358,450.461578 229.170349,443.469299 221.423172 M443.454620 236.163376 C 439.454620 236.159393,436.461578 229.156418,443.469299 221.423172" fill="url(#gradient6)"/><path d="M443.483246 207.423172 C 439.483246 207.419189,436.476288 214.416199,443.469299 221.423172 M443.483246 207.423172 C 447.483246 207.427155,450.476288 214.430130,443.469299 221.423172" style="fill:rgb(255,255,255);fill-opacity:1.000000;stroke-width:1.179213;stroke:rgb(0,0,0);" stroke-linecap="round"/><path d="M443.207153 265.641296 C 447.206512 265.712433,450.330536 258.766876,443.469299 250.903473 M443.207153 265.641296 C 439.207794 265.570160,436.332764 258.517914,443.469299 250.903473" fill="url(#gradient7)"/><path d="M443.718292 236.905685 C 439.718933 236.834549,436.594910 243.780090,443.469299 250.903473 M443.718292 236.905685 C 447.717651 236.976822,450.592682 244.029083,443.469299 250.903473" style="fill:rgb(255,255,255);fill-opacity:1.000000;stroke-width:1.179213;stroke:rgb(0,0,0);" stroke-linecap="round"/><path d="M469.370117 250.908295 C 465.371368 250.807861,462.196564 257.730316,469.000000 265.643646 M469.370117 250.908295 C 473.368866 251.008728,476.192139 258.081848,469.000000 265.643646" fill="url(#gradient8)"/><path d="M468.648468 279.639221 C 472.647217 279.739655,475.822021 272.817200,469.000000 265.643646 M468.648468 279.639221 C 464.649719 279.538788,461.826447 272.465668,469.000000 265.643646" style="fill:rgb(255,255,255);fill-opacity:1.000000;stroke-width:1.179213;stroke:rgb(0,0,0);" stroke-linecap="round"/><path d="M494.326385 265.642090 C 498.325989 265.697540,501.422760 258.739807,494.530731 250.903473 M494.326385 265.642090 C 490.326782 265.586639,487.424103 258.545715,494.530731 250.903473" fill="url(#gradient9)"/><path d="M494.724823 236.904816 C 490.725220 236.849365,487.628448 243.807098,494.530731 250.903473 M494.724823 236.904816 C 498.724426 236.960266,501.627106 244.001175,494.530731 250.903473" style="fill:rgb(255,255,255);fill-opacity:1.000000;stroke-width:1.179213;stroke:rgb(0,0,0);" stroke-linecap="round"/><path d="M494.339508 236.162109 C 498.339172 236.214005,501.429718 229.253510,494.530731 221.423172 M494.339508 236.162109 C 490.339844 236.110214,487.430908 229.071884,494.530731 221.423172" fill="url(#gradient10)"/><path d="M494.712341 207.424347 C 490.712677 207.372452,487.622131 214.332962,494.530731 221.423172 M494.712341 207.424347 C 498.712006 207.476242,501.620941 214.514572,494.530731 221.423172" style="fill:rgb(255,255,255);fill-opacity:1.000000;stroke-width:1.179213;stroke:rgb(0,0,0);" stroke-linecap="round"/><defs><radialGradient id="gradient1" cx="50.000000%" cy="50.000000%" r="50.000000%" fx="50.000000%" fy="50.000000%"><stop style="stop-color:rgb(255,255,255);stop-opacity:1.000000" offset="0%"/><stop style="stop-color:rgb(0,0,0);stop-opacity:1.000000" offset="100%"/></radialGradient><radialGradient id="gradient2" cx="50.000000%" cy="50.000000%" r="50.000000%" fx="50.000000%" fy="50.000000%"><stop style="stop-color:rgb(255,255,255);stop-opacity:1.000000" offset="0%"/><stop style="stop-color:rgb(0,0,0);stop-opacity:1.000000" offset="100%"/></radialGradient><radialGradient id="gradient3" cx="50.000000%" cy="50.000000%" r="50.000000%" fx="50.000000%" fy="50.000000%"><stop style="stop-color:rgb(255,255,255);stop-opacity:1.000000" offset="0%"/><stop style="stop-color:rgb(0,0,0);stop-opacity:1.000000" offset="100%"/></radialGradient><radialGradient id="gradient4" cx="50.000000%" cy="50.000000%" r="50.000000%" fx="50.000000%" fy="50.000000%"><stop style="stop-color:rgb(255,255,255);stop-opacity:1.000000" offset="0%"/><stop style="stop-color:rgb(0,0,0);stop-opacity:1.000000" offset="100%"/></radialGradient><radialGradient id="gradient5" cx="50.000000%" cy="50.000000%" r="50.000000%" fx="50.000000%" fy="50.000000%"><stop style="stop-color:rgb(255,255,255);stop-opacity:1.000000" offset="0%"/><stop style="stop-color:rgb(0,0,0);stop-opacity:1.000000" offset="100%"/></radialGradient><radialGradient id="gradient6" cx="50.000000%" cy="50.000000%" r="50.000000%" fx="50.000000%" fy="50.000000%"><stop style="stop-color:rgb(255,255,255);stop-opacity:1.000000" offset="0%"/><stop style="stop-color:rgb(0,0,0);stop-opacity:1.000000" offset="100%"/></radialGradient><radialGradient id="gradient7" cx="50.000000%" cy="50.000000%" r="50.000000%" fx="50.000000%" fy="50.000000%"><stop style="stop-color:rgb(255,255,255);stop-opacity:1.000000" offset="0%"/><stop style="stop-color:rgb(0,0,0);stop-opacity:1.000000" offset="100%"/></radialGradient><radialGradient id="gradient8" cx="50.000000%" cy="50.000000%" r="50.000000%" fx="50.000000%" fy="50.000000%"><stop style="stop-color:rgb(255,255,255);stop-opacity:1.000000" offset="0%"/><stop style="stop-color:rgb(0,0,0);stop-opacity:1.000000" offset="100%"/></radialGradient><radialGradient id="gradient9" cx="50.000000%" cy="50.000000%" r="50.000000%" fx="50.000000%" fy="50.000000%"><stop style="stop-color:rgb(255,255,255);stop-opacity:1.000000" offset="0%"/><stop style="stop-color:rgb(0,0,0);stop-opacity:1.000000" offset="100%"/></radialGradient><radialGradient id="gradient10" cx="50.000000%" cy="50.000000%" r="50.000000%" fx="50.000000%" fy="50.000000%"><stop style="stop-color:rgb(255,255,255);stop-opacity:1.000000" offset="0%"/><stop style="stop-color:rgb(0,0,0);stop-opacity:1.000000" offset="100%"/></radialGradient></defs></svg>