<?xml version="1.0" standalone='no'?><!-- IBoard SVG File --><svg xmlns="http://www.w3.org/2000/svg" xmlns:xlink="http://www.w3.org/1999/xlink" viewBox="383.86 203.91 49.28 68.23" height="61.23" width="56.28" version="1.1"><!-- SVG File --><polygon points="422.829742,217.833557 422.829773,248.493073 422.240173,247.903473 421.650574,247.313873 421.650543,219.012756 422.240143,218.423157 " style="fill:rgb(0,0,0);fill-opacity:1.000000"/><polygon points="392.170258,248.493103 392.170227,217.833588 392.759827,218.423187 393.349426,219.012787 393.349457,247.313904 392.759857,247.903503 " style="fill:rgb(0,0,0);fill-opacity:1.000000"/><polygon points="392.170227,217.833588 422.829742,217.833557 422.240143,218.423157 421.650543,219.012756 393.349426,219.012787 392.759827,218.423187 " style="fill:rgb(0,0,0);fill-opacity:1.000000"/><polygon points="396.297485,221.371231 418.702515,221.371201 418.702515,221.960800 418.702515,222.550400 396.297485,222.550430 396.297485,221.960831 " style="fill:rgb(0,0,0);fill-opacity:1.000000"/><polygon points="422.829773,248.493073 392.170258,248.493103 392.759857,247.903503 393.349457,247.313904 421.650574,247.313873 422.240173,247.903473 " style="fill:rgb(0,0,0);fill-opacity:1.000000"/><polygon points="418.702515,244.955429 396.297485,244.955460 396.297485,244.365860 396.297485,243.776260 418.702515,243.776230 418.702515,244.365829 " style="fill:rgb(0,0,0);fill-opacity:1.000000"/><text xml:space="preserve" x="383.860535" y="215.863266" textLength="7.230000" lengthAdjust="spacingAndGlyphs"><tspan font-family="Arial" font-weight="normal" baseline-shift="0" font-size="13" fill="#000000">1</tspan></text><text xml:space="preserve" x="422.909454" y="215.863235" textLength="7.230000" lengthAdjust="spacingAndGlyphs"><tspan font-family="Arial" font-weight="normal" baseline-shift="0" font-size="13" fill="#000000">2</tspan></text><text xml:space="preserve" x="422.909454" y="259.147797" textLength="7.230000" lengthAdjust="spacingAndGlyphs"><tspan font-family="Arial" font-weight="normal" baseline-shift="0" font-size="13" fill="#000000">3</tspan></text><text xml:space="preserve" x="383.860535" y="259.147797" textLength="7.230000" lengthAdjust="spacingAndGlyphs"><tspan font-family="Arial" font-weight="normal" baseline-shift="0" font-size="13" fill="#000000">4</tspan></text></svg>