<?xml version="1.0" encoding="UTF-8" standalone="no"?>
<!-- IBoard SVG File -->

<svg
   viewBox="485.16 203.86 52.29 50.87"
   height="43.87"
   width="59.29"
   version="1.1"
   id="svg8"
   sodipodi:docname="ethylene-2.svg"
   inkscape:export-filename="ethylene-2.png"
   inkscape:export-xdpi="300"
   inkscape:export-ydpi="300"
   inkscape:version="1.3.2 (1:1.3.2+202311252150+091e20ef0f)"
   xmlns:inkscape="http://www.inkscape.org/namespaces/inkscape"
   xmlns:sodipodi="http://sodipodi.sourceforge.net/DTD/sodipodi-0.dtd"
   xmlns="http://www.w3.org/2000/svg"
   xmlns:svg="http://www.w3.org/2000/svg">
  <sodipodi:namedview
     id="namedview8"
     pagecolor="#ffffff"
     bordercolor="#000000"
     borderopacity="0.25"
     inkscape:showpageshadow="2"
     inkscape:pageopacity="0.0"
     inkscape:pagecheckerboard="0"
     inkscape:deskcolor="#d1d1d1"
     inkscape:zoom="14.066453"
     inkscape:cx="29.645"
     inkscape:cy="21.967159"
     inkscape:window-width="1466"
     inkscape:window-height="896"
     inkscape:window-x="70"
     inkscape:window-y="27"
     inkscape:window-maximized="1"
     inkscape:current-layer="svg8" />
  <!-- SVG File -->
  <polygon
     points="495.026245,223.675781 524.506409,223.731461 524.505310,224.321060 524.504211,224.910660 495.024048,224.854980 495.025146,224.265381 "
     style="fill:rgb(0,0,0);fill-opacity:1.000000"
     id="polygon1" />
  <polygon
     points="495.019592,227.213409 524.499756,227.269089 524.498657,227.858688 524.497559,228.448288 495.017334,228.392609 495.018463,227.803009 "
     style="fill:rgb(0,0,0);fill-opacity:1.000000"
     id="polygon2" />
  <path
     d="M495.025146 209.525223 C 491.025146 209.525223,488.025146 216.525223,495.025146 224.265381 M495.025146 209.525223 C 499.025146 209.525223,502.025146 216.525223,495.025146 224.265381"
     fill="url(#gradient1)"
     id="path2" />
  <path
     d="M495.025146 238.265381 C 499.025146 238.265381,502.025146 231.265381,495.025146 224.265381 M495.025146 238.265381 C 491.025146 238.265381,488.025146 231.265381,495.025146 224.265381"
     style="fill:rgb(255,255,255);fill-opacity:1.000000;stroke-width:1.179213;stroke:rgb(0,0,0);"
     stroke-linecap="round"
     id="path3" />
  <path
     d="M524.378723 239.060715 C 528.378601 239.095062,531.438599 232.121094,524.505310 224.321060 M524.378723 239.060715 C 520.378845 239.026367,517.439087 232.000839,524.505310 224.321060"
     fill="url(#gradient2)"
     id="path4" />
  <path
     d="M524.625549 210.321579 C 520.625671 210.287231,517.565674 217.261200,524.505310 224.321060 M524.625549 210.321579 C 528.625427 210.355927,531.565186 217.381439,524.505310 224.321060"
     style="fill:rgb(255,255,255);fill-opacity:1.000000;stroke-width:1.179213;stroke:rgb(0,0,0);"
     stroke-linecap="round"
     id="path5" />
  <defs
     id="defs8">
    <radialGradient
       id="gradient1"
       cx="50.000000%"
       cy="50.000000%"
       r="50.000000%"
       fx="50.000000%"
       fy="50.000000%">
      <stop
         style="stop-color:rgb(255,255,255);stop-opacity:1.000000"
         offset="0%"
         id="stop5" />
      <stop
         style="stop-color:rgb(0,0,0);stop-opacity:1.000000"
         offset="100%"
         id="stop6" />
    </radialGradient>
    <radialGradient
       id="gradient2"
       cx="50.000000%"
       cy="50.000000%"
       r="50.000000%"
       fx="50.000000%"
       fy="50.000000%">
      <stop
         style="stop-color:rgb(255,255,255);stop-opacity:1.000000"
         offset="0%"
         id="stop7" />
      <stop
         style="stop-color:rgb(0,0,0);stop-opacity:1.000000"
         offset="100%"
         id="stop8" />
    </radialGradient>
  </defs>
</svg>
