<?xml version="1.0" encoding="UTF-8" standalone="no"?>
<!-- IBoard SVG File -->

<svg
   viewBox="329.63 190.25 99.40 64.08"
   height="57.08"
   width="106.40"
   version="1.1"
   id="svg19"
   sodipodi:docname="trans-1,3-butadiene-1.svg"
   inkscape:version="1.3.2 (1:1.3.2+202311252150+091e20ef0f)"
   inkscape:export-filename="trans-1,3-butadiene-1.png"
   inkscape:export-xdpi="300"
   inkscape:export-ydpi="300"
   xmlns:inkscape="http://www.inkscape.org/namespaces/inkscape"
   xmlns:sodipodi="http://sodipodi.sourceforge.net/DTD/sodipodi-0.dtd"
   xmlns="http://www.w3.org/2000/svg"
   xmlns:svg="http://www.w3.org/2000/svg">
  <sodipodi:namedview
     id="namedview19"
     pagecolor="#ffffff"
     bordercolor="#000000"
     borderopacity="0.25"
     inkscape:showpageshadow="2"
     inkscape:pageopacity="0.0"
     inkscape:pagecheckerboard="0"
     inkscape:deskcolor="#d1d1d1"
     inkscape:zoom="8.9943608"
     inkscape:cx="53.14441"
     inkscape:cy="28.573459"
     inkscape:window-width="1466"
     inkscape:window-height="896"
     inkscape:window-x="70"
     inkscape:window-y="27"
     inkscape:window-maximized="1"
     inkscape:current-layer="svg19" />
  <!-- SVG File -->
  <polygon
     points="339.205200,224.152710 365.030701,209.242355 365.030701,209.923172 365.030701,210.603989 339.794800,225.173950 339.500000,224.663330 "
     style="fill:rgb(0,0,0);fill-opacity:1.000000"
     id="polygon1" />
  <polygon
     points="340.974030,227.216400 364.735901,213.497482 365.030701,214.008102 365.325500,214.518723 341.563629,228.237640 341.268829,227.727020 "
     style="fill:rgb(0,0,0);fill-opacity:1.000000"
     id="polygon2" />
  <polygon
     points="365.030701,209.242355 390.561401,223.982529 390.561401,224.663345 390.561401,225.344162 365.030701,210.603989 365.030701,209.923172 "
     style="fill:rgb(0,0,0);fill-opacity:1.000000"
     id="polygon3" />
  <polygon
     points="390.266602,220.067810 414.028503,206.348892 414.323303,206.859512 414.618103,207.370132 390.856201,221.089050 390.561401,220.578430 "
     style="fill:rgb(0,0,0);fill-opacity:1.000000"
     id="polygon4" />
  <polygon
     points="390.561401,223.982529 415.797333,209.412582 416.092133,209.923203 416.386932,210.433823 390.561401,225.344162 390.561401,224.663345 "
     style="fill:rgb(0,0,0);fill-opacity:1.000000"
     id="polygon5" />
  <path
     d="M339.500000 209.923172 C 335.500000 209.923172,332.500000 216.923172,339.500000 224.663330 M339.500000 209.923172 C 343.500000 209.923172,346.500000 216.923172,339.500000 224.663330"
     fill="url(#gradient1)"
     id="path5" />
  <path
     d="M339.500000 238.663330 C 343.500000 238.663330,346.500000 231.663330,339.500000 224.663330 M339.500000 238.663330 C 335.500000 238.663330,332.500000 231.663330,339.500000 224.663330"
     style="fill:rgb(255,255,255);fill-opacity:1.000000;stroke-width:1.179213;stroke:rgb(0,0,0);"
     stroke-linecap="round"
     id="path6" />
  <path
     d="M390.561401 209.923187 C 386.561401 209.923187,383.561401 216.923187,390.561401 224.663345 M390.561401 209.923187 C 394.561401 209.923187,397.561401 216.923187,390.561401 224.663345"
     fill="url(#gradient2)"
     id="path7" />
  <path
     d="M390.561401 238.663345 C 394.561401 238.663345,397.561401 231.663345,390.561401 224.663345 M390.561401 238.663345 C 386.561401 238.663345,383.561401 231.663345,390.561401 224.663345"
     style="fill:rgb(255,255,255);fill-opacity:1.000000;stroke-width:1.179213;stroke:rgb(0,0,0);"
     stroke-linecap="round"
     id="path8" />
  <path
     d="M364.950928 224.663147 C 368.950867 224.684799,371.988708 217.701126,365.030701 209.923172 M364.950928 224.663147 C 360.950989 224.641495,357.988922 217.625366,365.030701 209.923172"
     fill="url(#gradient3)"
     id="path9" />
  <path
     d="M365.106476 195.923370 C 361.106537 195.901718,358.068695 202.885376,365.030701 209.923172 M365.106476 195.923370 C 369.106415 195.945023,372.068481 202.961151,365.030701 209.923172"
     style="fill:rgb(255,255,255);fill-opacity:1.000000;stroke-width:1.179213;stroke:rgb(0,0,0);"
     stroke-linecap="round"
     id="path10" />
  <path
     d="M415.962311 224.662796 C 419.962158 224.698029,423.023682 217.724716,416.092133 209.923203 M415.962311 224.662796 C 411.962463 224.627563,409.024231 217.601410,416.092133 209.923203"
     fill="url(#gradient4)"
     id="path11" />
  <path
     d="M416.215424 195.923752 C 412.215576 195.888519,409.154053 202.861832,416.092133 209.923203 M416.215424 195.923752 C 420.215271 195.958984,423.153503 202.985123,416.092133 209.923203"
     style="fill:rgb(255,255,255);fill-opacity:1.000000;stroke-width:1.179213;stroke:rgb(0,0,0);"
     stroke-linecap="round"
     id="path12" />
  <defs
     id="defs19">
    <radialGradient
       id="gradient1"
       cx="50.000000%"
       cy="50.000000%"
       r="50.000000%"
       fx="50.000000%"
       fy="50.000000%">
      <stop
         style="stop-color:rgb(255,255,255);stop-opacity:1.000000"
         offset="0%"
         id="stop12" />
      <stop
         style="stop-color:rgb(0,0,0);stop-opacity:1.000000"
         offset="100%"
         id="stop13" />
    </radialGradient>
    <radialGradient
       id="gradient2"
       cx="50.000000%"
       cy="50.000000%"
       r="50.000000%"
       fx="50.000000%"
       fy="50.000000%">
      <stop
         style="stop-color:rgb(255,255,255);stop-opacity:1.000000"
         offset="0%"
         id="stop14" />
      <stop
         style="stop-color:rgb(0,0,0);stop-opacity:1.000000"
         offset="100%"
         id="stop15" />
    </radialGradient>
    <radialGradient
       id="gradient3"
       cx="50.000000%"
       cy="50.000000%"
       r="50.000000%"
       fx="50.000000%"
       fy="50.000000%">
      <stop
         style="stop-color:rgb(255,255,255);stop-opacity:1.000000"
         offset="0%"
         id="stop16" />
      <stop
         style="stop-color:rgb(0,0,0);stop-opacity:1.000000"
         offset="100%"
         id="stop17" />
    </radialGradient>
    <radialGradient
       id="gradient4"
       cx="50.000000%"
       cy="50.000000%"
       r="50.000000%"
       fx="50.000000%"
       fy="50.000000%">
      <stop
         style="stop-color:rgb(255,255,255);stop-opacity:1.000000"
         offset="0%"
         id="stop18" />
      <stop
         style="stop-color:rgb(0,0,0);stop-opacity:1.000000"
         offset="100%"
         id="stop19" />
    </radialGradient>
  </defs>
</svg>
