<?xml version="1.0" encoding="UTF-8" standalone="no"?>
<!-- IBoard SVG File -->

<svg
   viewBox="329.63 189.52 99.52 65.56"
   height="58.56"
   width="106.52"
   version="1.1"
   id="svg19"
   sodipodi:docname="trans-1,3-butadiene-3.svg"
   inkscape:version="1.3.2 (1:1.3.2+202311252150+091e20ef0f)"
   inkscape:export-filename="trans-1,3-butadiene-3.png"
   inkscape:export-xdpi="300"
   inkscape:export-ydpi="300"
   xmlns:inkscape="http://www.inkscape.org/namespaces/inkscape"
   xmlns:sodipodi="http://sodipodi.sourceforge.net/DTD/sodipodi-0.dtd"
   xmlns="http://www.w3.org/2000/svg"
   xmlns:svg="http://www.w3.org/2000/svg">
  <sodipodi:namedview
     id="namedview19"
     pagecolor="#ffffff"
     bordercolor="#000000"
     borderopacity="0.25"
     inkscape:showpageshadow="2"
     inkscape:pageopacity="0.0"
     inkscape:pagecheckerboard="0"
     inkscape:deskcolor="#d1d1d1"
     inkscape:zoom="8.9842286"
     inkscape:cx="53.204345"
     inkscape:cy="29.27352"
     inkscape:window-width="1466"
     inkscape:window-height="896"
     inkscape:window-x="70"
     inkscape:window-y="27"
     inkscape:window-maximized="1"
     inkscape:current-layer="svg19" />
  <!-- SVG File -->
  <polygon
     points="339.205200,224.152710 365.030701,209.242355 365.030701,209.923172 365.030701,210.603989 339.794800,225.173950 339.500000,224.663330 "
     style="fill:rgb(0,0,0);fill-opacity:1.000000"
     id="polygon1" />
  <polygon
     points="340.974030,227.216400 364.735901,213.497482 365.030701,214.008102 365.325500,214.518723 341.563629,228.237640 341.268829,227.727020 "
     style="fill:rgb(0,0,0);fill-opacity:1.000000"
     id="polygon2" />
  <polygon
     points="365.030701,209.242355 390.561401,223.982529 390.561401,224.663345 390.561401,225.344162 365.030701,210.603989 365.030701,209.923172 "
     style="fill:rgb(0,0,0);fill-opacity:1.000000"
     id="polygon3" />
  <polygon
     points="390.266602,220.067810 414.028503,206.348892 414.323303,206.859512 414.618103,207.370132 390.856201,221.089050 390.561401,220.578430 "
     style="fill:rgb(0,0,0);fill-opacity:1.000000"
     id="polygon4" />
  <polygon
     points="390.561401,223.982529 415.797333,209.412582 416.092133,209.923203 416.386932,210.433823 390.561401,225.344162 390.561401,224.663345 "
     style="fill:rgb(0,0,0);fill-opacity:1.000000"
     id="polygon5" />
  <path
     d="M339.500000 209.923172 C 335.500000 209.923172,332.500000 216.923172,339.500000 224.663330 M339.500000 209.923172 C 343.500000 209.923172,346.500000 216.923172,339.500000 224.663330"
     fill="url(#gradient1)"
     id="path5" />
  <path
     d="M339.500000 238.663330 C 343.500000 238.663330,346.500000 231.663330,339.500000 224.663330 M339.500000 238.663330 C 335.500000 238.663330,332.500000 231.663330,339.500000 224.663330"
     style="fill:rgb(255,255,255);fill-opacity:1.000000;stroke-width:1.179213;stroke:rgb(0,0,0);"
     stroke-linecap="round"
     id="path6" />
  <path
     d="M390.439758 239.403046 C 394.439636 239.436050,397.497284 232.461060,390.561401 224.663345 M390.439758 239.403046 C 386.439880 239.370041,383.497772 232.345505,390.561401 224.663345"
     fill="url(#gradient2)"
     id="path7" />
  <path
     d="M390.676941 210.663818 C 386.677063 210.630814,383.619415 217.605804,390.561401 224.663345 M390.676941 210.663818 C 394.676819 210.696823,397.618927 217.721344,390.561401 224.663345"
     style="fill:rgb(255,255,255);fill-opacity:1.000000;stroke-width:1.179213;stroke:rgb(0,0,0);"
     stroke-linecap="round"
     id="path8" />
  <path
     d="M364.640564 224.658173 C 368.639160 224.764038,371.823395 217.845901,365.030701 209.923172 M364.640564 224.658173 C 360.641968 224.552307,357.828278 217.475357,365.030701 209.923172"
     fill="url(#gradient3)"
     id="path9" />
  <path
     d="M365.401245 195.928070 C 361.402649 195.822205,358.218414 202.740341,365.030701 209.923172 M365.401245 195.928070 C 369.399841 196.033936,372.213531 203.110886,365.030701 209.923172"
     style="fill:rgb(255,255,255);fill-opacity:1.000000;stroke-width:1.179213;stroke:rgb(0,0,0);"
     stroke-linecap="round"
     id="path10" />
  <path
     d="M416.392487 195.186035 C 412.393311 195.104523,409.251312 202.041946,416.092133 209.923203 M416.392487 195.186035 C 420.391663 195.267548,423.248413 202.327209,416.092133 209.923203"
     fill="url(#gradient4)"
     id="path11" />
  <path
     d="M415.806854 223.920303 C 419.806030 224.001816,422.948029 217.064392,416.092133 209.923203 M415.806854 223.920303 C 411.807678 223.838791,408.950958 216.779114,416.092133 209.923203"
     style="fill:rgb(255,255,255);fill-opacity:1.000000;stroke-width:1.179213;stroke:rgb(0,0,0);"
     stroke-linecap="round"
     id="path12" />
  <defs
     id="defs19">
    <radialGradient
       id="gradient1"
       cx="50.000000%"
       cy="50.000000%"
       r="50.000000%"
       fx="50.000000%"
       fy="50.000000%">
      <stop
         style="stop-color:rgb(255,255,255);stop-opacity:1.000000"
         offset="0%"
         id="stop12" />
      <stop
         style="stop-color:rgb(0,0,0);stop-opacity:1.000000"
         offset="100%"
         id="stop13" />
    </radialGradient>
    <radialGradient
       id="gradient2"
       cx="50.000000%"
       cy="50.000000%"
       r="50.000000%"
       fx="50.000000%"
       fy="50.000000%">
      <stop
         style="stop-color:rgb(255,255,255);stop-opacity:1.000000"
         offset="0%"
         id="stop14" />
      <stop
         style="stop-color:rgb(0,0,0);stop-opacity:1.000000"
         offset="100%"
         id="stop15" />
    </radialGradient>
    <radialGradient
       id="gradient3"
       cx="50.000000%"
       cy="50.000000%"
       r="50.000000%"
       fx="50.000000%"
       fy="50.000000%">
      <stop
         style="stop-color:rgb(255,255,255);stop-opacity:1.000000"
         offset="0%"
         id="stop16" />
      <stop
         style="stop-color:rgb(0,0,0);stop-opacity:1.000000"
         offset="100%"
         id="stop17" />
    </radialGradient>
    <radialGradient
       id="gradient4"
       cx="50.000000%"
       cy="50.000000%"
       r="50.000000%"
       fx="50.000000%"
       fy="50.000000%">
      <stop
         style="stop-color:rgb(255,255,255);stop-opacity:1.000000"
         offset="0%"
         id="stop18" />
      <stop
         style="stop-color:rgb(0,0,0);stop-opacity:1.000000"
         offset="100%"
         id="stop19" />
    </radialGradient>
  </defs>
</svg>
