<?xml version="1.0" standalone='no'?><!-- IBoard SVG File --><svg xmlns="http://www.w3.org/2000/svg" xmlns:xlink="http://www.w3.org/1999/xlink" viewBox="329.63 189.52 99.52 65.56" height="58.56" width="106.52" version="1.1"><!-- SVG File --><polygon points="339.205200,224.152710 365.030701,209.242355 365.030701,209.923172 365.030701,210.603989 339.794800,225.173950 339.500000,224.663330 " style="fill:rgb(0,0,0);fill-opacity:1.000000"/><polygon points="340.974030,227.216400 364.735901,213.497482 365.030701,214.008102 365.325500,214.518723 341.563629,228.237640 341.268829,227.727020 " style="fill:rgb(0,0,0);fill-opacity:1.000000"/><polygon points="365.030701,209.242355 390.561401,223.982529 390.561401,224.663345 390.561401,225.344162 365.030701,210.603989 365.030701,209.923172 " style="fill:rgb(0,0,0);fill-opacity:1.000000"/><polygon points="390.266602,220.067810 414.028503,206.348892 414.323303,206.859512 414.618103,207.370132 390.856201,221.089050 390.561401,220.578430 " style="fill:rgb(0,0,0);fill-opacity:1.000000"/><polygon points="390.561401,223.982529 415.797333,209.412582 416.092133,209.923203 416.386932,210.433823 390.561401,225.344162 390.561401,224.663345 " style="fill:rgb(0,0,0);fill-opacity:1.000000"/><path d="M339.500000 209.923172 C 335.500000 209.923172,332.500000 216.923172,339.500000 224.663330 M339.500000 209.923172 C 343.500000 209.923172,346.500000 216.923172,339.500000 224.663330" fill="url(#gradient1)"/><path d="M339.500000 238.663330 C 343.500000 238.663330,346.500000 231.663330,339.500000 224.663330 M339.500000 238.663330 C 335.500000 238.663330,332.500000 231.663330,339.500000 224.663330" style="fill:rgb(255,255,255);fill-opacity:1.000000;stroke-width:1.179213;stroke:rgb(0,0,0);" stroke-linecap="round"/><path d="M390.439758 239.403046 C 394.439636 239.436050,397.497284 232.461060,390.561401 224.663345 M390.439758 239.403046 C 386.439880 239.370041,383.497772 232.345505,390.561401 224.663345" fill="url(#gradient2)"/><path d="M390.676941 210.663818 C 386.677063 210.630814,383.619415 217.605804,390.561401 224.663345 M390.676941 210.663818 C 394.676819 210.696823,397.618927 217.721344,390.561401 224.663345" style="fill:rgb(255,255,255);fill-opacity:1.000000;stroke-width:1.179213;stroke:rgb(0,0,0);" stroke-linecap="round"/><path d="M364.640564 224.658173 C 368.639160 224.764038,371.823395 217.845901,365.030701 209.923172 M364.640564 224.658173 C 360.641968 224.552307,357.828278 217.475357,365.030701 209.923172" fill="url(#gradient3)"/><path d="M365.401245 195.928070 C 361.402649 195.822205,358.218414 202.740341,365.030701 209.923172 M365.401245 195.928070 C 369.399841 196.033936,372.213531 203.110886,365.030701 209.923172" style="fill:rgb(255,255,255);fill-opacity:1.000000;stroke-width:1.179213;stroke:rgb(0,0,0);" stroke-linecap="round"/><path d="M416.392487 195.186035 C 412.393311 195.104523,409.251312 202.041946,416.092133 209.923203 M416.392487 195.186035 C 420.391663 195.267548,423.248413 202.327209,416.092133 209.923203" fill="url(#gradient4)"/><path d="M415.806854 223.920303 C 419.806030 224.001816,422.948029 217.064392,416.092133 209.923203 M415.806854 223.920303 C 411.807678 223.838791,408.950958 216.779114,416.092133 209.923203" style="fill:rgb(255,255,255);fill-opacity:1.000000;stroke-width:1.179213;stroke:rgb(0,0,0);" stroke-linecap="round"/><defs><radialGradient id="gradient1" cx="50.000000%" cy="50.000000%" r="50.000000%" fx="50.000000%" fy="50.000000%"><stop style="stop-color:rgb(255,255,255);stop-opacity:1.000000" offset="0%"/><stop style="stop-color:rgb(0,0,0);stop-opacity:1.000000" offset="100%"/></radialGradient><radialGradient id="gradient2" cx="50.000000%" cy="50.000000%" r="50.000000%" fx="50.000000%" fy="50.000000%"><stop style="stop-color:rgb(255,255,255);stop-opacity:1.000000" offset="0%"/><stop style="stop-color:rgb(0,0,0);stop-opacity:1.000000" offset="100%"/></radialGradient><radialGradient id="gradient3" cx="50.000000%" cy="50.000000%" r="50.000000%" fx="50.000000%" fy="50.000000%"><stop style="stop-color:rgb(255,255,255);stop-opacity:1.000000" offset="0%"/><stop style="stop-color:rgb(0,0,0);stop-opacity:1.000000" offset="100%"/></radialGradient><radialGradient id="gradient4" cx="50.000000%" cy="50.000000%" r="50.000000%" fx="50.000000%" fy="50.000000%"><stop style="stop-color:rgb(255,255,255);stop-opacity:1.000000" offset="0%"/><stop style="stop-color:rgb(0,0,0);stop-opacity:1.000000" offset="100%"/></radialGradient></defs></svg>