<?xml version="1.0" standalone='no'?><!-- IBoard SVG File --><svg xmlns="http://www.w3.org/2000/svg" xmlns:xlink="http://www.w3.org/1999/xlink" viewBox="333.83 190.30 90.93 61.98" height="54.98" width="97.93" version="1.1"><!-- SVG File --><polygon points="339.205200,224.152710 365.030701,209.242355 365.030701,209.923172 365.030701,210.603989 339.794800,225.173950 339.500000,224.663330 " style="fill:rgb(0,0,0);fill-opacity:1.000000"/><polygon points="340.974030,227.216400 364.735901,213.497482 365.030701,214.008102 365.325500,214.518723 341.563629,228.237640 341.268829,227.727020 " style="fill:rgb(0,0,0);fill-opacity:1.000000"/><polygon points="365.030701,209.242355 390.561401,223.982529 390.561401,224.663345 390.561401,225.344162 365.030701,210.603989 365.030701,209.923172 " style="fill:rgb(0,0,0);fill-opacity:1.000000"/><polygon points="390.266602,220.067795 414.028473,206.348892 414.323273,206.859512 414.618073,207.370132 390.856201,221.089035 390.561401,220.578415 " style="fill:rgb(0,0,0);fill-opacity:1.000000"/><polygon points="390.561401,223.982529 415.797302,209.412582 416.092102,209.923203 416.386902,210.433823 390.561401,225.344162 390.561401,224.663345 " style="fill:rgb(0,0,0);fill-opacity:1.000000"/><text xml:space="preserve" x="334.705719" y="239.282639" textLength="7.230000" lengthAdjust="spacingAndGlyphs"><tspan font-family="Arial" font-weight="normal" baseline-shift="0" font-size="13" fill="#000000">1</tspan></text><text xml:space="preserve" x="362.019867" y="202.253860" textLength="7.230000" lengthAdjust="spacingAndGlyphs"><tspan font-family="Arial" font-weight="normal" baseline-shift="0" font-size="13" fill="#000000">2</tspan></text><text xml:space="preserve" x="387.249878" y="239.282639" textLength="7.230000" lengthAdjust="spacingAndGlyphs"><tspan font-family="Arial" font-weight="normal" baseline-shift="0" font-size="13" fill="#000000">3</tspan></text><text xml:space="preserve" x="412.531372" y="202.253860" textLength="7.230000" lengthAdjust="spacingAndGlyphs"><tspan font-family="Arial" font-weight="normal" baseline-shift="0" font-size="13" fill="#000000">4</tspan></text></svg>