<?xml version="1.0" standalone='no'?><!-- IBoard SVG File --><svg xmlns="http://www.w3.org/2000/svg" xmlns:xlink="http://www.w3.org/1999/xlink" viewBox="329.63 189.52 99.40 65.56" height="58.56" width="106.40" version="1.1"><!-- SVG File --><polygon points="339.205200,224.152710 365.030701,209.242355 365.030701,209.923172 365.030701,210.603989 339.794800,225.173950 339.500000,224.663330 " style="fill:rgb(0,0,0);fill-opacity:1.000000"/><polygon points="340.974030,227.216400 364.735901,213.497482 365.030701,214.008102 365.325500,214.518723 341.563629,228.237640 341.268829,227.727020 " style="fill:rgb(0,0,0);fill-opacity:1.000000"/><polygon points="365.030701,209.242355 390.561401,223.982529 390.561401,224.663345 390.561401,225.344162 365.030701,210.603989 365.030701,209.923172 " style="fill:rgb(0,0,0);fill-opacity:1.000000"/><polygon points="390.266602,220.067810 414.028503,206.348892 414.323303,206.859512 414.618103,207.370132 390.856201,221.089050 390.561401,220.578430 " style="fill:rgb(0,0,0);fill-opacity:1.000000"/><polygon points="390.561401,223.982529 415.797333,209.412582 416.092133,209.923203 416.386932,210.433823 390.561401,225.344162 390.561401,224.663345 " style="fill:rgb(0,0,0);fill-opacity:1.000000"/><path d="M339.500000 209.923172 C 335.500000 209.923172,332.500000 216.923172,339.500000 224.663330 M339.500000 209.923172 C 343.500000 209.923172,346.500000 216.923172,339.500000 224.663330" fill="url(#gradient1)"/><path d="M339.500000 238.663330 C 343.500000 238.663330,346.500000 231.663330,339.500000 224.663330 M339.500000 238.663330 C 335.500000 238.663330,332.500000 231.663330,339.500000 224.663330" style="fill:rgb(255,255,255);fill-opacity:1.000000;stroke-width:1.179213;stroke:rgb(0,0,0);" stroke-linecap="round"/><path d="M390.439758 239.403046 C 394.439636 239.436050,397.497284 232.461060,390.561401 224.663345 M390.439758 239.403046 C 386.439880 239.370041,383.497772 232.345505,390.561401 224.663345" fill="url(#gradient2)"/><path d="M390.676941 210.663818 C 386.677063 210.630814,383.619415 217.605804,390.561401 224.663345 M390.676941 210.663818 C 394.676819 210.696823,397.618927 217.721344,390.561401 224.663345" style="fill:rgb(255,255,255);fill-opacity:1.000000;stroke-width:1.179213;stroke:rgb(0,0,0);" stroke-linecap="round"/><path d="M365.366180 195.186905 C 361.367218 195.095871,358.208679 202.025787,365.030701 209.923172 M365.366180 195.186905 C 369.365143 195.277939,372.205048 202.344406,365.030701 209.923172" fill="url(#gradient3)"/><path d="M364.712067 223.919540 C 368.711029 224.010574,371.869568 217.080673,365.030701 209.923172 M364.712067 223.919540 C 360.713104 223.828506,357.873199 216.762024,365.030701 209.923172" style="fill:rgb(255,255,255);fill-opacity:1.000000;stroke-width:1.179213;stroke:rgb(0,0,0);" stroke-linecap="round"/><path d="M415.962311 224.662796 C 419.962158 224.698029,423.023682 217.724716,416.092133 209.923203 M415.962311 224.662796 C 411.962463 224.627563,409.024231 217.601410,416.092133 209.923203" fill="url(#gradient4)"/><path d="M416.215424 195.923752 C 412.215576 195.888519,409.154053 202.861832,416.092133 209.923203 M416.215424 195.923752 C 420.215271 195.958984,423.153503 202.985123,416.092133 209.923203" style="fill:rgb(255,255,255);fill-opacity:1.000000;stroke-width:1.179213;stroke:rgb(0,0,0);" stroke-linecap="round"/><defs><radialGradient id="gradient1" cx="50.000000%" cy="50.000000%" r="50.000000%" fx="50.000000%" fy="50.000000%"><stop style="stop-color:rgb(255,255,255);stop-opacity:1.000000" offset="0%"/><stop style="stop-color:rgb(0,0,0);stop-opacity:1.000000" offset="100%"/></radialGradient><radialGradient id="gradient2" cx="50.000000%" cy="50.000000%" r="50.000000%" fx="50.000000%" fy="50.000000%"><stop style="stop-color:rgb(255,255,255);stop-opacity:1.000000" offset="0%"/><stop style="stop-color:rgb(0,0,0);stop-opacity:1.000000" offset="100%"/></radialGradient><radialGradient id="gradient3" cx="50.000000%" cy="50.000000%" r="50.000000%" fx="50.000000%" fy="50.000000%"><stop style="stop-color:rgb(255,255,255);stop-opacity:1.000000" offset="0%"/><stop style="stop-color:rgb(0,0,0);stop-opacity:1.000000" offset="100%"/></radialGradient><radialGradient id="gradient4" cx="50.000000%" cy="50.000000%" r="50.000000%" fx="50.000000%" fy="50.000000%"><stop style="stop-color:rgb(255,255,255);stop-opacity:1.000000" offset="0%"/><stop style="stop-color:rgb(0,0,0);stop-opacity:1.000000" offset="100%"/></radialGradient></defs></svg>