<?xml version="1.0" encoding="UTF-8" standalone="no"?>
<!-- IBoard SVG File -->

<svg
   viewBox="544.20 253.49 70.57 96.20"
   height="89.20"
   width="77.57"
   version="1.1"
   id="svg25"
   sodipodi:docname="2.svg"
   inkscape:export-filename="2.png"
   inkscape:export-xdpi="300"
   inkscape:export-ydpi="300"
   inkscape:version="1.3.2 (1:1.3.2+202311252150+091e20ef0f)"
   xmlns:inkscape="http://www.inkscape.org/namespaces/inkscape"
   xmlns:sodipodi="http://sodipodi.sourceforge.net/DTD/sodipodi-0.dtd"
   xmlns="http://www.w3.org/2000/svg"
   xmlns:svg="http://www.w3.org/2000/svg">
  <sodipodi:namedview
     id="namedview25"
     pagecolor="#ffffff"
     bordercolor="#000000"
     borderopacity="0.25"
     inkscape:showpageshadow="2"
     inkscape:pageopacity="0.0"
     inkscape:pagecheckerboard="0"
     inkscape:deskcolor="#d1d1d1"
     inkscape:zoom="7.1300451"
     inkscape:cx="38.849684"
     inkscape:cy="44.599998"
     inkscape:window-width="1466"
     inkscape:window-height="896"
     inkscape:window-x="70"
     inkscape:window-y="27"
     inkscape:window-maximized="1"
     inkscape:current-layer="svg25" />
  <!-- SVG File -->
  <polygon
     points="553.510742,290.979370 578.070984,273.170258 578.070313,273.899048 578.069641,274.627838 554.896606,291.431091 554.203674,291.205231 "
     style="fill:rgb(0,0,0);fill-opacity:1.000000"
     id="polygon1" />
  <polygon
     points="578.070984,273.170258 602.597107,291.024445 601.903748,291.248993 601.210388,291.473541 578.069641,274.627838 578.070313,273.899048 "
     style="fill:rgb(0,0,0);fill-opacity:1.000000"
     id="polygon2" />
  <polygon
     points="602.597107,291.024445 593.196594,319.867828 592.768738,319.277832 592.340881,318.687836 601.210388,291.473541 601.903748,291.248993 "
     style="fill:rgb(0,0,0);fill-opacity:1.000000"
     id="polygon3" />
  <polygon
     points="598.304382,292.779144 590.762268,315.920593 590.201660,315.737885 589.641052,315.555176 597.183167,292.413727 597.743774,292.596436 "
     style="fill:rgb(0,0,0);fill-opacity:1.000000"
     id="polygon4" />
  <polygon
     points="593.196594,319.867828 562.859375,319.840607 563.288269,319.251404 563.717163,318.662201 592.340881,318.687836 592.768738,319.277832 "
     style="fill:rgb(0,0,0);fill-opacity:1.000000"
     id="polygon5" />
  <polygon
     points="562.859375,319.840607 553.510742,290.979370 554.203674,291.205231 554.896606,291.431091 563.717163,318.662201 563.288269,319.251404 "
     style="fill:rgb(0,0,0);fill-opacity:1.000000"
     id="polygon6" />
  <polygon
     points="565.300781,315.897797 557.800293,292.742035 558.361206,292.560333 558.922119,292.378632 566.422607,315.534393 565.861694,315.716095 "
     style="fill:rgb(0,0,0);fill-opacity:1.000000"
     id="polygon7" />
  <path
     d="M578.070313 259.158905 C 574.070313 259.158905,571.070313 266.158905,578.070313 273.899048 M578.070313 259.158905 C 582.070313 259.158905,585.070313 266.158905,578.070313 273.899048"
     fill="url(#gradient1)"
     id="path7" />
  <path
     d="M578.070313 287.899048 C 582.070313 287.899048,585.070313 280.899048,578.070313 273.899048 M578.070313 287.899048 C 574.070313 287.899048,571.070313 280.899048,578.070313 273.899048"
     style="fill:rgb(255,255,255);fill-opacity:1.000000;stroke-width:1.179213;stroke:rgb(0,0,0);"
     stroke-linecap="round"
     id="path8" />
  <path
     d="M601.903748 276.508850 C 597.903748 276.508850,594.903748 283.508850,601.903748 291.248993 M601.903748 276.508850 C 605.903748 276.508850,608.903748 283.508850,601.903748 291.248993"
     fill="url(#gradient2)"
     id="path9" />
  <path
     d="M601.903748 305.248993 C 605.903748 305.248993,608.903748 298.248993,601.903748 291.248993 M601.903748 305.248993 C 597.903748 305.248993,594.903748 298.248993,601.903748 291.248993"
     style="fill:rgb(255,255,255);fill-opacity:1.000000;stroke-width:1.179213;stroke:rgb(0,0,0);"
     stroke-linecap="round"
     id="path10" />
  <path
     d="M592.661011 334.017670 C 596.660889 334.046906,599.711975 327.069031,592.768738 319.277832 M592.661011 334.017670 C 588.661133 333.988434,585.712341 326.966705,592.768738 319.277832"
     fill="url(#gradient3)"
     id="path11" />
  <path
     d="M592.871033 305.278198 C 588.871155 305.248962,585.820068 312.226868,592.768738 319.277832 M592.871033 305.278198 C 596.870911 305.307434,599.819702 312.329163,592.768738 319.277832"
     style="fill:rgb(255,255,255);fill-opacity:1.000000;stroke-width:1.179213;stroke:rgb(0,0,0);"
     stroke-linecap="round"
     id="path12" />
  <path
     d="M563.140503 333.990570 C 567.140320 334.030670,570.210327 327.061096,563.288269 319.251404 M563.140503 333.990570 C 559.140686 333.950470,556.210999 326.920746,563.288269 319.251404"
     fill="url(#gradient4)"
     id="path13" />
  <path
     d="M563.428589 305.252106 C 559.428772 305.212006,556.358765 312.181580,563.288269 319.251404 M563.428589 305.252106 C 567.428406 305.292206,570.358093 312.321930,563.288269 319.251404"
     style="fill:rgb(255,255,255);fill-opacity:1.000000;stroke-width:1.179213;stroke:rgb(0,0,0);"
     stroke-linecap="round"
     id="path14" />
  <path
     d="M553.982605 305.943817 C 557.982178 306.003815,561.086792 299.049591,554.203674 291.205231 M553.982605 305.943817 C 549.983032 305.883820,547.088379 298.839630,554.203674 291.205231"
     fill="url(#gradient5)"
     id="path15" />
  <path
     d="M554.413635 277.206818 C 550.414063 277.146820,547.309448 284.101044,554.203674 291.205231 M554.413635 277.206818 C 558.413208 277.266815,561.307861 284.311005,554.203674 291.205231"
     style="fill:rgb(255,255,255);fill-opacity:1.000000;stroke-width:1.179213;stroke:rgb(0,0,0);"
     stroke-linecap="round"
     id="path16" />
  <defs
     id="defs25">
    <radialGradient
       id="gradient1"
       cx="50.000000%"
       cy="50.000000%"
       r="50.000000%"
       fx="50.000000%"
       fy="50.000000%">
      <stop
         style="stop-color:rgb(255,255,255);stop-opacity:1.000000"
         offset="0%"
         id="stop16" />
      <stop
         style="stop-color:rgb(0,0,0);stop-opacity:1.000000"
         offset="100%"
         id="stop17" />
    </radialGradient>
    <radialGradient
       id="gradient2"
       cx="50.000000%"
       cy="50.000000%"
       r="50.000000%"
       fx="50.000000%"
       fy="50.000000%">
      <stop
         style="stop-color:rgb(255,255,255);stop-opacity:1.000000"
         offset="0%"
         id="stop18" />
      <stop
         style="stop-color:rgb(0,0,0);stop-opacity:1.000000"
         offset="100%"
         id="stop19" />
    </radialGradient>
    <radialGradient
       id="gradient3"
       cx="50.000000%"
       cy="50.000000%"
       r="50.000000%"
       fx="50.000000%"
       fy="50.000000%">
      <stop
         style="stop-color:rgb(255,255,255);stop-opacity:1.000000"
         offset="0%"
         id="stop20" />
      <stop
         style="stop-color:rgb(0,0,0);stop-opacity:1.000000"
         offset="100%"
         id="stop21" />
    </radialGradient>
    <radialGradient
       id="gradient4"
       cx="50.000000%"
       cy="50.000000%"
       r="50.000000%"
       fx="50.000000%"
       fy="50.000000%">
      <stop
         style="stop-color:rgb(255,255,255);stop-opacity:1.000000"
         offset="0%"
         id="stop22" />
      <stop
         style="stop-color:rgb(0,0,0);stop-opacity:1.000000"
         offset="100%"
         id="stop23" />
    </radialGradient>
    <radialGradient
       id="gradient5"
       cx="50.000000%"
       cy="50.000000%"
       r="50.000000%"
       fx="50.000000%"
       fy="50.000000%">
      <stop
         style="stop-color:rgb(255,255,255);stop-opacity:1.000000"
         offset="0%"
         id="stop24" />
      <stop
         style="stop-color:rgb(0,0,0);stop-opacity:1.000000"
         offset="100%"
         id="stop25" />
    </radialGradient>
  </defs>
</svg>
