<?xml version="1.0" standalone='no'?><!-- IBoard SVG File --><svg xmlns="http://www.w3.org/2000/svg" xmlns:xlink="http://www.w3.org/1999/xlink" viewBox="532.72 232.91 76.50 100.33" height="93.33" width="83.50" version="1.1"><!-- SVG File --><polygon points="555.168335,306.308685 583.793091,306.299988 584.220886,306.889862 584.649109,307.479797 554.312500,307.488251 554.740601,306.898682 " style="fill:rgb(0,0,0);fill-opacity:1.000000"/><polygon points="592.629883,279.073395 569.467285,262.255554 569.467224,261.526611 569.466736,260.797913 594.016235,278.623016 593.322998,278.848297 " style="fill:rgb(0,0,0);fill-opacity:1.000000"/><polygon points="569.467285,262.255554 546.314331,279.087280 545.621460,278.862030 544.928101,278.636871 569.466736,260.797913 569.467224,261.526611 " style="fill:rgb(0,0,0);fill-opacity:1.000000"/><polygon points="550.340942,280.029602 557.868225,303.177155 557.306885,303.359161 556.746765,303.541962 549.220215,280.394379 549.780640,280.211914 " style="fill:rgb(0,0,0);fill-opacity:1.000000"/><polygon points="546.314331,279.087280 555.168335,306.308685 554.740601,306.898682 554.312500,307.488251 544.928101,278.636871 545.621460,278.862030 " style="fill:rgb(0,0,0);fill-opacity:1.000000"/><polygon points="581.090271,303.170532 588.603699,280.018555 589.164612,280.200897 589.725403,280.382874 582.211914,303.534546 581.650940,303.352600 " style="fill:rgb(0,0,0);fill-opacity:1.000000"/><polygon points="583.792847,306.299988 592.629822,279.073425 593.322998,278.848297 594.016235,278.622986 584.648865,307.479828 584.220886,306.889862 " style="fill:rgb(0,0,0);fill-opacity:1.000000"/><ellipse cx="569.467224" cy="253.400635" rx="1.322835" ry="1.322835" style="fill:rgb(0,0,0);fill-opacity:1.000000;"/><text xml:space="preserve" x="565.857239" y="244.863220" textLength="7.230000" lengthAdjust="spacingAndGlyphs"><tspan font-family="Arial" font-weight="normal" baseline-shift="0" font-size="13" fill="#000000">1</tspan></text><text xml:space="preserve" x="598.992310" y="282.113251" textLength="7.230000" lengthAdjust="spacingAndGlyphs"><tspan font-family="Arial" font-weight="normal" baseline-shift="0" font-size="13" fill="#000000">2</tspan></text><text xml:space="preserve" x="587.749878" y="320.238251" textLength="7.230000" lengthAdjust="spacingAndGlyphs"><tspan font-family="Arial" font-weight="normal" baseline-shift="0" font-size="13" fill="#000000">3</tspan></text><text xml:space="preserve" x="545.874878" y="320.238251" textLength="7.230000" lengthAdjust="spacingAndGlyphs"><tspan font-family="Arial" font-weight="normal" baseline-shift="0" font-size="13" fill="#000000">4</tspan></text><text xml:space="preserve" x="532.722168" y="282.113251" textLength="7.230000" lengthAdjust="spacingAndGlyphs"><tspan font-family="Arial" font-weight="normal" baseline-shift="0" font-size="13" fill="#000000">5</tspan></text></svg>